<svg width="600" height="475" viewBox="0 0 600 475" fill="none" xmlns="http://www.w3.org/2000/svg">
<rect width="600" height="475" fill="black" fill-opacity="0.4"/>
<path d="M32.744 36V24.32H34.472V34.416H39.576V36H32.744ZM44.0818 36V34.464H46.4338V25.856H44.0818V24.32H50.5458V25.856H48.1938V34.464H50.5458V36H44.0818ZM57.6755 36L54.7155 24.32H56.4915L58.3635 32.096C58.4808 32.5547 58.5822 33.0133 58.6675 33.472C58.7635 33.92 58.8328 34.272 58.8755 34.528C58.9182 34.272 58.9768 33.92 59.0515 33.472C59.1368 33.0133 59.2382 32.5493 59.3555 32.08L61.2115 24.32H62.9395L59.9635 36H57.6755ZM67.0452 36V24.32H73.9092V25.856H68.7412V29.168H73.3492V30.688H68.7412V34.464H73.9092V36H67.0452ZM92.5047 36V25.904H89.3847V24.304H97.3527V25.904H94.2327V36H92.5047ZM101.586 36V24.32H108.45V25.856H103.282V29.168H107.89V30.688H103.282V34.464H108.45V36H101.586ZM113.34 36V24.32H115.068V34.416H120.172V36H113.34ZM124.614 36V24.32H131.478V25.856H126.31V29.168H130.918V30.688H126.31V34.464H131.478V36H124.614ZM135.68 36V24.32H137.808L138.976 28.064C139.093 28.416 139.194 28.7573 139.28 29.088C139.365 29.408 139.424 29.648 139.456 29.808C139.498 29.648 139.557 29.408 139.632 29.088C139.717 28.7573 139.813 28.416 139.92 28.064L141.04 24.32H143.168V36H141.536V32.064C141.536 31.5627 141.546 31.008 141.568 30.4C141.6 29.7813 141.642 29.1627 141.696 28.544C141.749 27.9147 141.802 27.3173 141.856 26.752C141.909 26.176 141.957 25.6747 142 25.248L140.272 30.928H138.608L136.848 25.248C136.901 25.664 136.954 26.1493 137.008 26.704C137.061 27.248 137.109 27.8293 137.152 28.448C137.194 29.0667 137.232 29.6907 137.264 30.32C137.296 30.9387 137.312 31.52 137.312 32.064V36H135.68ZM147.641 36V24.32H154.505V25.856H149.337V29.168H153.945V30.688H149.337V34.464H154.505V36H147.641ZM161.587 36V25.904H158.467V24.304H166.435V25.904H163.315V36H161.587ZM170.509 36V24.32H174.173C174.909 24.32 175.549 24.464 176.093 24.752C176.637 25.0293 177.058 25.424 177.357 25.936C177.666 26.448 177.821 27.0507 177.821 27.744C177.821 28.5227 177.618 29.2 177.213 29.776C176.818 30.3413 176.28 30.7413 175.597 30.976L177.981 36H176.013L173.885 31.2H172.237V36H170.509ZM172.237 29.68H174.173C174.749 29.68 175.208 29.5093 175.549 29.168C175.89 28.816 176.061 28.352 176.061 27.776C176.061 27.1787 175.89 26.7093 175.549 26.368C175.208 26.0267 174.749 25.856 174.173 25.856H172.237V29.68ZM184.615 36V31.696L181.143 24.32H182.935L184.999 28.736C185.137 29.024 185.249 29.296 185.335 29.552C185.42 29.7973 185.479 29.9893 185.511 30.128C185.532 29.9893 185.585 29.7973 185.671 29.552C185.767 29.296 185.879 29.024 186.007 28.736L188.023 24.32H189.815L186.343 31.696V36H184.615Z" fill="#FF45CE"/>
<path d="M33.07 114V100.86H34.69V112.524H40.63V114H33.07ZM45.753 114V100.86H53.313V102.336H47.355V106.404H52.683V107.862H47.355V112.524H53.313V114H45.753ZM57.8059 114L61.2259 100.86H63.4039L66.8059 114H65.1679L64.3039 110.508H60.3259L59.4619 114H57.8059ZM60.6499 109.14H63.9619L62.9539 105.09C62.7619 104.322 62.6119 103.68 62.5039 103.164C62.3959 102.648 62.3299 102.312 62.3059 102.156C62.2819 102.312 62.2159 102.648 62.1079 103.164C61.9999 103.68 61.8499 104.316 61.6579 105.072L60.6499 109.14ZM71.5149 114V100.86H74.9169C75.7689 100.86 76.5009 101.022 77.1129 101.346C77.7369 101.67 78.2169 102.126 78.5529 102.714C78.9009 103.302 79.0749 103.998 79.0749 104.802V110.04C79.0749 110.844 78.9009 111.546 78.5529 112.146C78.2169 112.734 77.7369 113.19 77.1129 113.514C76.5009 113.838 75.7689 114 74.9169 114H71.5149ZM73.1349 112.56H74.9169C75.7089 112.56 76.3269 112.338 76.7709 111.894C77.2269 111.45 77.4549 110.832 77.4549 110.04V104.802C77.4549 104.022 77.2269 103.41 76.7709 102.966C76.3269 102.522 75.7089 102.3 74.9169 102.3H73.1349V112.56ZM84.6119 114V100.86H92.1719V102.336H86.2139V106.404H91.5419V107.862H86.2139V112.524H92.1719V114H84.6119ZM97.4208 114V100.86H101.489C102.269 100.86 102.953 101.022 103.541 101.346C104.129 101.658 104.585 102.096 104.909 102.66C105.233 103.224 105.395 103.884 105.395 104.64C105.395 105.528 105.161 106.29 104.693 106.926C104.237 107.562 103.613 108 102.821 108.24L105.575 114H103.667L101.147 108.42H99.0408V114H97.4208ZM99.0408 106.962H101.489C102.161 106.962 102.701 106.752 103.109 106.332C103.517 105.9 103.721 105.336 103.721 104.64C103.721 103.932 103.517 103.368 103.109 102.948C102.701 102.528 102.161 102.318 101.489 102.318H99.0408V106.962ZM114.19 114.18C113.326 114.18 112.582 114.036 111.958 113.748C111.346 113.46 110.872 113.046 110.536 112.506C110.2 111.966 110.026 111.324 110.014 110.58H111.634C111.634 111.24 111.856 111.762 112.3 112.146C112.756 112.53 113.386 112.722 114.19 112.722C114.946 112.722 115.534 112.536 115.954 112.164C116.386 111.792 116.602 111.276 116.602 110.616C116.602 110.088 116.458 109.626 116.17 109.23C115.894 108.834 115.492 108.558 114.964 108.402L113.182 107.844C112.282 107.568 111.586 107.106 111.094 106.458C110.614 105.81 110.374 105.048 110.374 104.172C110.374 103.464 110.53 102.852 110.842 102.336C111.166 101.808 111.616 101.4 112.192 101.112C112.768 100.812 113.446 100.662 114.226 100.662C115.378 100.662 116.302 100.986 116.998 101.634C117.694 102.27 118.048 103.122 118.06 104.19H116.44C116.44 103.542 116.242 103.038 115.846 102.678C115.462 102.306 114.916 102.12 114.208 102.12C113.512 102.12 112.966 102.288 112.57 102.624C112.186 102.96 111.994 103.428 111.994 104.028C111.994 104.568 112.138 105.036 112.426 105.432C112.714 105.828 113.128 106.11 113.668 106.278L115.468 106.854C116.344 107.13 117.022 107.598 117.502 108.258C117.982 108.918 118.222 109.692 118.222 110.58C118.222 111.3 118.054 111.93 117.718 112.47C117.382 113.01 116.908 113.43 116.296 113.73C115.696 114.03 114.994 114.18 114.19 114.18ZM123.345 114V100.86H124.965V106.476H129.177V100.86H130.797V114H129.177V107.952H124.965V114H123.345ZM136.514 114V112.524H139.196V102.336H136.514V100.86H143.534V102.336H140.852V112.524H143.534V114H136.514ZM149.233 114V100.86H153.463C154.279 100.86 154.987 101.022 155.587 101.346C156.187 101.658 156.649 102.102 156.973 102.678C157.309 103.254 157.477 103.938 157.477 104.73C157.477 105.51 157.309 106.194 156.973 106.782C156.649 107.358 156.187 107.808 155.587 108.132C154.987 108.444 154.279 108.6 153.463 108.6H150.853V114H149.233ZM150.853 107.142H153.463C154.171 107.142 154.735 106.926 155.155 106.494C155.587 106.05 155.803 105.462 155.803 104.73C155.803 103.986 155.587 103.398 155.155 102.966C154.735 102.534 154.171 102.318 153.463 102.318H150.853V107.142Z" fill="white"/>
<path d="M36.472 188.18C35.68 188.18 34.99 188.03 34.402 187.73C33.826 187.43 33.376 186.998 33.052 186.434C32.74 185.858 32.584 185.18 32.584 184.4V178.46C32.584 177.668 32.74 176.99 33.052 176.426C33.376 175.862 33.826 175.43 34.402 175.13C34.99 174.83 35.68 174.68 36.472 174.68C37.264 174.68 37.948 174.836 38.524 175.148C39.1 175.448 39.544 175.88 39.856 176.444C40.168 177.008 40.324 177.68 40.324 178.46H38.704C38.704 177.716 38.506 177.146 38.11 176.75C37.726 176.342 37.18 176.138 36.472 176.138C35.764 176.138 35.206 176.336 34.798 176.732C34.402 177.128 34.204 177.698 34.204 178.442V184.4C34.204 185.144 34.402 185.72 34.798 186.128C35.206 186.524 35.764 186.722 36.472 186.722C37.18 186.722 37.726 186.524 38.11 186.128C38.506 185.72 38.704 185.144 38.704 184.4H40.324C40.324 185.168 40.168 185.84 39.856 186.416C39.544 186.98 39.1 187.418 38.524 187.73C37.948 188.03 37.264 188.18 36.472 188.18ZM49.353 188.18C48.561 188.18 47.877 188.03 47.301 187.73C46.737 187.43 46.299 186.998 45.987 186.434C45.687 185.858 45.537 185.18 45.537 184.4V178.46C45.537 177.668 45.687 176.99 45.987 176.426C46.299 175.862 46.737 175.43 47.301 175.13C47.877 174.83 48.561 174.68 49.353 174.68C50.145 174.68 50.823 174.83 51.387 175.13C51.963 175.43 52.401 175.862 52.701 176.426C53.013 176.99 53.169 177.662 53.169 178.442V184.4C53.169 185.18 53.013 185.858 52.701 186.434C52.401 186.998 51.963 187.43 51.387 187.73C50.823 188.03 50.145 188.18 49.353 188.18ZM49.353 186.722C50.061 186.722 50.601 186.524 50.973 186.128C51.357 185.72 51.549 185.144 51.549 184.4V178.46C51.549 177.716 51.357 177.146 50.973 176.75C50.601 176.342 50.061 176.138 49.353 176.138C48.657 176.138 48.117 176.342 47.733 176.75C47.349 177.146 47.157 177.716 47.157 178.46V184.4C47.157 185.144 47.349 185.72 47.733 186.128C48.117 186.524 48.657 186.722 49.353 186.722ZM58.9759 188V174.86H60.5959V186.524H66.5359V188H58.9759ZM71.9289 188V174.86H73.5489V186.524H79.4889V188H71.9289ZM83.7119 188L87.1319 174.86H89.3099L92.7119 188H91.0739L90.2099 184.508H86.2319L85.3679 188H83.7119ZM86.5559 183.14H89.8679L88.8599 179.09C88.6679 178.322 88.5179 177.68 88.4099 177.164C88.3019 176.648 88.2359 176.312 88.2119 176.156C88.1879 176.312 88.1219 176.648 88.0139 177.164C87.9059 177.68 87.7559 178.316 87.5639 179.072L86.5559 183.14ZM97.4388 188V174.86H101.165C102.365 174.86 103.301 175.16 103.973 175.76C104.657 176.36 104.999 177.194 104.999 178.262C104.999 178.862 104.873 179.384 104.621 179.828C104.369 180.272 104.009 180.614 103.541 180.854C103.085 181.094 102.533 181.208 101.885 181.196V180.926C102.581 180.914 103.181 181.046 103.685 181.322C104.201 181.598 104.597 181.994 104.873 182.51C105.161 183.026 105.305 183.638 105.305 184.346C105.305 185.09 105.149 185.738 104.837 186.29C104.525 186.842 104.081 187.268 103.505 187.568C102.929 187.856 102.239 188 101.435 188H97.4388ZM99.0228 186.542H101.255C102.011 186.542 102.605 186.344 103.037 185.948C103.481 185.54 103.703 184.988 103.703 184.292C103.703 183.572 103.481 182.99 103.037 182.546C102.605 182.09 102.011 181.862 101.255 181.862H99.0228V186.542ZM99.0228 180.458H101.147C101.843 180.458 102.389 180.272 102.785 179.9C103.193 179.528 103.397 179.024 103.397 178.388C103.397 177.752 103.199 177.248 102.803 176.876C102.407 176.504 101.861 176.318 101.165 176.318H99.0228V180.458ZM114.118 188.18C113.326 188.18 112.642 188.03 112.066 187.73C111.502 187.43 111.064 186.998 110.752 186.434C110.452 185.858 110.302 185.18 110.302 184.4V178.46C110.302 177.668 110.452 176.99 110.752 176.426C111.064 175.862 111.502 175.43 112.066 175.13C112.642 174.83 113.326 174.68 114.118 174.68C114.91 174.68 115.588 174.83 116.152 175.13C116.728 175.43 117.166 175.862 117.466 176.426C117.778 176.99 117.934 177.662 117.934 178.442V184.4C117.934 185.18 117.778 185.858 117.466 186.434C117.166 186.998 116.728 187.43 116.152 187.73C115.588 188.03 114.91 188.18 114.118 188.18ZM114.118 186.722C114.826 186.722 115.366 186.524 115.738 186.128C116.122 185.72 116.314 185.144 116.314 184.4V178.46C116.314 177.716 116.122 177.146 115.738 176.75C115.366 176.342 114.826 176.138 114.118 176.138C113.422 176.138 112.882 176.342 112.498 176.75C112.114 177.146 111.922 177.716 111.922 178.46V184.4C111.922 185.144 112.114 185.72 112.498 186.128C112.882 186.524 113.422 186.722 114.118 186.722ZM123.327 188V174.86H127.395C128.175 174.86 128.859 175.022 129.447 175.346C130.035 175.658 130.491 176.096 130.815 176.66C131.139 177.224 131.301 177.884 131.301 178.64C131.301 179.528 131.067 180.29 130.599 180.926C130.143 181.562 129.519 182 128.727 182.24L131.481 188H129.573L127.053 182.42H124.947V188H123.327ZM124.947 180.962H127.395C128.067 180.962 128.607 180.752 129.015 180.332C129.423 179.9 129.627 179.336 129.627 178.64C129.627 177.932 129.423 177.368 129.015 176.948C128.607 176.528 128.067 176.318 127.395 176.318H124.947V180.962ZM135.524 188L138.944 174.86H141.122L144.524 188H142.886L142.022 184.508H138.044L137.18 188H135.524ZM138.368 183.14H141.68L140.672 179.09C140.48 178.322 140.33 177.68 140.222 177.164C140.114 176.648 140.048 176.312 140.024 176.156C140 176.312 139.934 176.648 139.826 177.164C139.718 177.68 139.568 178.316 139.376 179.072L138.368 183.14ZM152.167 188V176.318H148.567V174.842H157.387V176.318H153.787V188H152.167ZM162.42 188V186.524H165.102V176.336H162.42V174.86H169.44V176.336H166.758V186.524H169.44V188H162.42ZM178.883 188.18C178.091 188.18 177.407 188.03 176.831 187.73C176.267 187.43 175.829 186.998 175.517 186.434C175.217 185.858 175.067 185.18 175.067 184.4V178.46C175.067 177.668 175.217 176.99 175.517 176.426C175.829 175.862 176.267 175.43 176.831 175.13C177.407 174.83 178.091 174.68 178.883 174.68C179.675 174.68 180.353 174.83 180.917 175.13C181.493 175.43 181.931 175.862 182.231 176.426C182.543 176.99 182.699 177.662 182.699 178.442V184.4C182.699 185.18 182.543 185.858 182.231 186.434C181.931 186.998 181.493 187.43 180.917 187.73C180.353 188.03 179.675 188.18 178.883 188.18ZM178.883 186.722C179.591 186.722 180.131 186.524 180.503 186.128C180.887 185.72 181.079 185.144 181.079 184.4V178.46C181.079 177.716 180.887 177.146 180.503 176.75C180.131 176.342 179.591 176.138 178.883 176.138C178.187 176.138 177.647 176.342 177.263 176.75C176.879 177.146 176.687 177.716 176.687 178.46V184.4C176.687 185.144 176.879 185.72 177.263 186.128C177.647 186.524 178.187 186.722 178.883 186.722ZM188.056 188V174.86H190.216L194.23 186.11C194.206 185.81 194.176 185.444 194.14 185.012C194.116 184.568 194.092 184.106 194.068 183.626C194.056 183.134 194.05 182.672 194.05 182.24V174.86H195.616V188H193.456L189.46 176.75C189.484 177.038 189.508 177.404 189.532 177.848C189.556 178.28 189.574 178.742 189.586 179.234C189.61 179.714 189.622 180.176 189.622 180.62V188H188.056Z" fill="white"/>
<path d="M36.472 262.18C35.68 262.18 34.99 262.03 34.402 261.73C33.826 261.43 33.376 260.998 33.052 260.434C32.74 259.858 32.584 259.18 32.584 258.4V252.46C32.584 251.668 32.74 250.99 33.052 250.426C33.376 249.862 33.826 249.43 34.402 249.13C34.99 248.83 35.68 248.68 36.472 248.68C37.264 248.68 37.948 248.836 38.524 249.148C39.1 249.448 39.544 249.88 39.856 250.444C40.168 251.008 40.324 251.68 40.324 252.46H38.704C38.704 251.716 38.506 251.146 38.11 250.75C37.726 250.342 37.18 250.138 36.472 250.138C35.764 250.138 35.206 250.336 34.798 250.732C34.402 251.128 34.204 251.698 34.204 252.442V258.4C34.204 259.144 34.402 259.72 34.798 260.128C35.206 260.524 35.764 260.722 36.472 260.722C37.18 260.722 37.726 260.524 38.11 260.128C38.506 259.72 38.704 259.144 38.704 258.4H40.324C40.324 259.168 40.168 259.84 39.856 260.416C39.544 260.98 39.1 261.418 38.524 261.73C37.948 262.03 37.264 262.18 36.472 262.18ZM49.353 262.18C48.561 262.18 47.877 262.03 47.301 261.73C46.737 261.43 46.299 260.998 45.987 260.434C45.687 259.858 45.537 259.18 45.537 258.4V252.46C45.537 251.668 45.687 250.99 45.987 250.426C46.299 249.862 46.737 249.43 47.301 249.13C47.877 248.83 48.561 248.68 49.353 248.68C50.145 248.68 50.823 248.83 51.387 249.13C51.963 249.43 52.401 249.862 52.701 250.426C53.013 250.99 53.169 251.662 53.169 252.442V258.4C53.169 259.18 53.013 259.858 52.701 260.434C52.401 260.998 51.963 261.43 51.387 261.73C50.823 262.03 50.145 262.18 49.353 262.18ZM49.353 260.722C50.061 260.722 50.601 260.524 50.973 260.128C51.357 259.72 51.549 259.144 51.549 258.4V252.46C51.549 251.716 51.357 251.146 50.973 250.75C50.601 250.342 50.061 250.138 49.353 250.138C48.657 250.138 48.117 250.342 47.733 250.75C47.349 251.146 47.157 251.716 47.157 252.46V258.4C47.157 259.144 47.349 259.72 47.733 260.128C48.117 260.524 48.657 260.722 49.353 260.722ZM58.5259 262V248.86H60.6859L64.6999 260.11C64.6759 259.81 64.6459 259.444 64.6099 259.012C64.5859 258.568 64.5619 258.106 64.5379 257.626C64.5259 257.134 64.5199 256.672 64.5199 256.24V248.86H66.0859V262H63.9259L59.9299 250.75C59.9539 251.038 59.9779 251.404 60.0019 251.848C60.0259 252.28 60.0439 252.742 60.0559 253.234C60.0799 253.714 60.0919 254.176 60.0919 254.62V262H58.5259ZM71.5689 262V248.842H79.3089V250.318H73.1529V254.692H78.8409V256.168H73.1889V262H71.5689ZM84.8819 262V248.86H86.5019V260.524H92.4419V262H84.8819ZM97.6548 262V260.524H100.337V250.336H97.6548V248.86H104.675V250.336H101.993V260.524H104.675V262H97.6548ZM114.19 262.18C113.398 262.18 112.708 262.03 112.12 261.73C111.544 261.43 111.094 260.998 110.77 260.434C110.458 259.858 110.302 259.18 110.302 258.4V252.46C110.302 251.668 110.458 250.99 110.77 250.426C111.094 249.862 111.544 249.43 112.12 249.13C112.708 248.83 113.398 248.68 114.19 248.68C114.982 248.68 115.666 248.836 116.242 249.148C116.818 249.448 117.262 249.88 117.574 250.444C117.886 251.008 118.042 251.68 118.042 252.46H116.422C116.422 251.716 116.224 251.146 115.828 250.75C115.444 250.342 114.898 250.138 114.19 250.138C113.482 250.138 112.924 250.336 112.516 250.732C112.12 251.128 111.922 251.698 111.922 252.442V258.4C111.922 259.144 112.12 259.72 112.516 260.128C112.924 260.524 113.482 260.722 114.19 260.722C114.898 260.722 115.444 260.524 115.828 260.128C116.224 259.72 116.422 259.144 116.422 258.4H118.042C118.042 259.168 117.886 259.84 117.574 260.416C117.262 260.98 116.818 261.418 116.242 261.73C115.666 262.03 114.982 262.18 114.19 262.18ZM126.261 262V250.318H122.661V248.842H131.481V250.318H127.881V262H126.261ZM149.233 262V248.86H153.301C154.081 248.86 154.765 249.022 155.353 249.346C155.941 249.658 156.397 250.096 156.721 250.66C157.045 251.224 157.207 251.884 157.207 252.64C157.207 253.528 156.973 254.29 156.505 254.926C156.049 255.562 155.425 256 154.633 256.24L157.387 262H155.479L152.959 256.42H150.853V262H149.233ZM150.853 254.962H153.301C153.973 254.962 154.513 254.752 154.921 254.332C155.329 253.9 155.533 253.336 155.533 252.64C155.533 251.932 155.329 251.368 154.921 250.948C154.513 250.528 153.973 250.318 153.301 250.318H150.853V254.962ZM162.33 262V248.86H169.89V250.336H163.932V254.404H169.26V255.862H163.932V260.524H169.89V262H162.33ZM178.955 262.18C178.091 262.18 177.347 262.036 176.723 261.748C176.111 261.46 175.637 261.046 175.301 260.506C174.965 259.966 174.791 259.324 174.779 258.58H176.399C176.399 259.24 176.621 259.762 177.065 260.146C177.521 260.53 178.151 260.722 178.955 260.722C179.711 260.722 180.299 260.536 180.719 260.164C181.151 259.792 181.367 259.276 181.367 258.616C181.367 258.088 181.223 257.626 180.935 257.23C180.659 256.834 180.257 256.558 179.729 256.402L177.947 255.844C177.047 255.568 176.351 255.106 175.859 254.458C175.379 253.81 175.139 253.048 175.139 252.172C175.139 251.464 175.295 250.852 175.607 250.336C175.931 249.808 176.381 249.4 176.957 249.112C177.533 248.812 178.211 248.662 178.991 248.662C180.143 248.662 181.067 248.986 181.763 249.634C182.459 250.27 182.813 251.122 182.825 252.19H181.205C181.205 251.542 181.007 251.038 180.611 250.678C180.227 250.306 179.681 250.12 178.973 250.12C178.277 250.12 177.731 250.288 177.335 250.624C176.951 250.96 176.759 251.428 176.759 252.028C176.759 252.568 176.903 253.036 177.191 253.432C177.479 253.828 177.893 254.11 178.433 254.278L180.233 254.854C181.109 255.13 181.787 255.598 182.267 256.258C182.747 256.918 182.987 257.692 182.987 258.58C182.987 259.3 182.819 259.93 182.483 260.47C182.147 261.01 181.673 261.43 181.061 261.73C180.461 262.03 179.759 262.18 178.955 262.18Z" fill="white"/>
<path d="M540.301 114.18C539.497 114.18 538.795 114.042 538.195 113.766C537.607 113.478 537.151 113.07 536.827 112.542C536.503 112.014 536.341 111.396 536.341 110.688C536.341 109.908 536.551 109.236 536.971 108.672C537.403 108.108 538.081 107.604 539.005 107.16L540.751 106.314C541.279 106.062 541.687 105.732 541.975 105.324C542.263 104.916 542.407 104.466 542.407 103.974C542.407 103.398 542.215 102.942 541.831 102.606C541.459 102.27 540.949 102.102 540.301 102.102C539.653 102.102 539.137 102.276 538.753 102.624C538.381 102.96 538.195 103.416 538.195 103.992C538.195 104.472 538.333 104.916 538.609 105.324C538.897 105.732 539.287 106.056 539.779 106.296L541.525 107.124C542.485 107.568 543.181 108.078 543.613 108.654C544.045 109.218 544.261 109.896 544.261 110.688C544.261 111.756 543.901 112.608 543.181 113.244C542.473 113.868 541.513 114.18 540.301 114.18ZM540.301 112.74C541.033 112.74 541.609 112.554 542.029 112.182C542.461 111.798 542.677 111.288 542.677 110.652C542.677 110.136 542.539 109.668 542.263 109.248C541.987 108.828 541.591 108.492 541.075 108.24L539.347 107.394C538.387 106.926 537.691 106.422 537.259 105.882C536.827 105.342 536.611 104.694 536.611 103.938C536.611 103.266 536.761 102.684 537.061 102.192C537.361 101.7 537.787 101.322 538.339 101.058C538.891 100.794 539.545 100.662 540.301 100.662C541.057 100.662 541.711 100.794 542.263 101.058C542.815 101.322 543.241 101.7 543.541 102.192C543.841 102.684 543.991 103.266 543.991 103.938C543.991 104.694 543.775 105.342 543.343 105.882C542.911 106.41 542.197 106.92 541.201 107.412L539.473 108.258C538.981 108.498 538.597 108.828 538.321 109.248C538.057 109.656 537.925 110.112 537.925 110.616C537.925 111.264 538.135 111.78 538.555 112.164C538.987 112.548 539.569 112.74 540.301 112.74ZM549.384 114L554.082 102.336H549.114V104.28H547.494V100.86H555.684V102.444L551.13 114H549.384ZM557.459 114L566.423 100.86H567.755L558.791 114H557.459ZM565.217 114.09C564.461 114.09 563.855 113.874 563.399 113.442C562.943 113.01 562.715 112.416 562.715 111.66V110.49C562.715 109.734 562.943 109.14 563.399 108.708C563.855 108.276 564.461 108.06 565.217 108.06C565.973 108.06 566.579 108.276 567.035 108.708C567.491 109.14 567.719 109.734 567.719 110.49V111.66C567.719 112.416 567.491 113.01 567.035 113.442C566.579 113.874 565.973 114.09 565.217 114.09ZM565.217 112.848C565.997 112.848 566.387 112.452 566.387 111.66V110.49C566.387 109.686 565.997 109.284 565.217 109.284C564.437 109.284 564.047 109.686 564.047 110.49V111.66C564.047 112.452 564.437 112.848 565.217 112.848ZM559.997 106.8C559.241 106.8 558.635 106.584 558.179 106.152C557.723 105.72 557.495 105.126 557.495 104.37V103.2C557.495 102.444 557.723 101.85 558.179 101.418C558.635 100.986 559.241 100.77 559.997 100.77C560.753 100.77 561.359 100.986 561.815 101.418C562.271 101.85 562.499 102.444 562.499 103.2V104.37C562.499 105.126 562.271 105.72 561.815 106.152C561.359 106.584 560.753 106.8 559.997 106.8ZM559.997 105.576C560.777 105.576 561.167 105.174 561.167 104.37V103.2C561.167 102.396 560.777 101.994 559.997 101.994C559.613 101.994 559.319 102.096 559.115 102.3C558.923 102.492 558.827 102.792 558.827 103.2V104.37C558.827 104.778 558.923 105.084 559.115 105.288C559.319 105.48 559.613 105.576 559.997 105.576Z" fill="#FF45CE"/>
<path d="M538.267 188L541.993 182.024L541.921 181.97C541.693 182.306 541.381 182.564 540.985 182.744C540.589 182.924 540.145 183.014 539.653 183.014C538.945 183.014 538.321 182.846 537.781 182.51C537.253 182.174 536.845 181.7 536.557 181.088C536.269 180.464 536.125 179.738 536.125 178.91C536.125 178.058 536.299 177.32 536.647 176.696C536.995 176.06 537.481 175.568 538.105 175.22C538.729 174.86 539.455 174.68 540.283 174.68C541.123 174.68 541.855 174.86 542.479 175.22C543.115 175.568 543.607 176.06 543.955 176.696C544.303 177.32 544.477 178.058 544.477 178.91C544.477 179.57 544.381 180.218 544.189 180.854C544.009 181.49 543.733 182.102 543.361 182.69L540.067 188H538.267ZM540.301 181.7C541.069 181.7 541.687 181.448 542.155 180.944C542.623 180.428 542.857 179.75 542.857 178.91C542.857 178.07 542.623 177.398 542.155 176.894C541.687 176.378 541.069 176.12 540.301 176.12C539.533 176.12 538.915 176.378 538.447 176.894C537.979 177.398 537.745 178.07 537.745 178.91C537.745 179.75 537.979 180.428 538.447 180.944C538.915 181.448 539.533 181.7 540.301 181.7ZM547.71 188V186.344L551.724 182.078C552.408 181.346 552.906 180.698 553.218 180.134C553.53 179.558 553.686 179.006 553.686 178.478C553.686 177.746 553.482 177.17 553.074 176.75C552.678 176.33 552.132 176.12 551.436 176.12C550.668 176.12 550.062 176.336 549.618 176.768C549.186 177.2 548.97 177.794 548.97 178.55H547.35C547.374 177.758 547.554 177.074 547.89 176.498C548.238 175.91 548.712 175.46 549.312 175.148C549.924 174.836 550.632 174.68 551.436 174.68C552.228 174.68 552.912 174.836 553.488 175.148C554.076 175.448 554.526 175.88 554.838 176.444C555.15 177.008 555.306 177.68 555.306 178.46C555.306 179.204 555.108 179.942 554.712 180.674C554.316 181.406 553.668 182.24 552.768 183.176L549.528 186.524H555.522V188H547.71ZM557.459 188L566.423 174.86H567.755L558.791 188H557.459ZM565.217 188.09C564.461 188.09 563.855 187.874 563.399 187.442C562.943 187.01 562.715 186.416 562.715 185.66V184.49C562.715 183.734 562.943 183.14 563.399 182.708C563.855 182.276 564.461 182.06 565.217 182.06C565.973 182.06 566.579 182.276 567.035 182.708C567.491 183.14 567.719 183.734 567.719 184.49V185.66C567.719 186.416 567.491 187.01 567.035 187.442C566.579 187.874 565.973 188.09 565.217 188.09ZM565.217 186.848C565.997 186.848 566.387 186.452 566.387 185.66V184.49C566.387 183.686 565.997 183.284 565.217 183.284C564.437 183.284 564.047 183.686 564.047 184.49V185.66C564.047 186.452 564.437 186.848 565.217 186.848ZM559.997 180.8C559.241 180.8 558.635 180.584 558.179 180.152C557.723 179.72 557.495 179.126 557.495 178.37V177.2C557.495 176.444 557.723 175.85 558.179 175.418C558.635 174.986 559.241 174.77 559.997 174.77C560.753 174.77 561.359 174.986 561.815 175.418C562.271 175.85 562.499 176.444 562.499 177.2V178.37C562.499 179.126 562.271 179.72 561.815 180.152C561.359 180.584 560.753 180.8 559.997 180.8ZM559.997 179.576C560.777 179.576 561.167 179.174 561.167 178.37V177.2C561.167 176.396 560.777 175.994 559.997 175.994C559.613 175.994 559.319 176.096 559.115 176.3C558.923 176.492 558.827 176.792 558.827 177.2V178.37C558.827 178.778 558.923 179.084 559.115 179.288C559.319 179.48 559.613 179.576 559.997 179.576Z" fill="#FF45CE"/>
<path d="M538.231 262L542.929 250.336H537.961V252.28H536.341V248.86H544.531V250.444L539.977 262H538.231ZM551.454 262.18C550.65 262.18 549.948 262.042 549.348 261.766C548.76 261.478 548.304 261.07 547.98 260.542C547.656 260.014 547.494 259.396 547.494 258.688C547.494 257.908 547.704 257.236 548.124 256.672C548.556 256.108 549.234 255.604 550.158 255.16L551.904 254.314C552.432 254.062 552.84 253.732 553.128 253.324C553.416 252.916 553.56 252.466 553.56 251.974C553.56 251.398 553.368 250.942 552.984 250.606C552.612 250.27 552.102 250.102 551.454 250.102C550.806 250.102 550.29 250.276 549.906 250.624C549.534 250.96 549.348 251.416 549.348 251.992C549.348 252.472 549.486 252.916 549.762 253.324C550.05 253.732 550.44 254.056 550.932 254.296L552.678 255.124C553.638 255.568 554.334 256.078 554.766 256.654C555.198 257.218 555.414 257.896 555.414 258.688C555.414 259.756 555.054 260.608 554.334 261.244C553.626 261.868 552.666 262.18 551.454 262.18ZM551.454 260.74C552.186 260.74 552.762 260.554 553.182 260.182C553.614 259.798 553.83 259.288 553.83 258.652C553.83 258.136 553.692 257.668 553.416 257.248C553.14 256.828 552.744 256.492 552.228 256.24L550.5 255.394C549.54 254.926 548.844 254.422 548.412 253.882C547.98 253.342 547.764 252.694 547.764 251.938C547.764 251.266 547.914 250.684 548.214 250.192C548.514 249.7 548.94 249.322 549.492 249.058C550.044 248.794 550.698 248.662 551.454 248.662C552.21 248.662 552.864 248.794 553.416 249.058C553.968 249.322 554.394 249.7 554.694 250.192C554.994 250.684 555.144 251.266 555.144 251.938C555.144 252.694 554.928 253.342 554.496 253.882C554.064 254.41 553.35 254.92 552.354 255.412L550.626 256.258C550.134 256.498 549.75 256.828 549.474 257.248C549.21 257.656 549.078 258.112 549.078 258.616C549.078 259.264 549.288 259.78 549.708 260.164C550.14 260.548 550.722 260.74 551.454 260.74ZM557.459 262L566.423 248.86H567.755L558.791 262H557.459ZM565.217 262.09C564.461 262.09 563.855 261.874 563.399 261.442C562.943 261.01 562.715 260.416 562.715 259.66V258.49C562.715 257.734 562.943 257.14 563.399 256.708C563.855 256.276 564.461 256.06 565.217 256.06C565.973 256.06 566.579 256.276 567.035 256.708C567.491 257.14 567.719 257.734 567.719 258.49V259.66C567.719 260.416 567.491 261.01 567.035 261.442C566.579 261.874 565.973 262.09 565.217 262.09ZM565.217 260.848C565.997 260.848 566.387 260.452 566.387 259.66V258.49C566.387 257.686 565.997 257.284 565.217 257.284C564.437 257.284 564.047 257.686 564.047 258.49V259.66C564.047 260.452 564.437 260.848 565.217 260.848ZM559.997 254.8C559.241 254.8 558.635 254.584 558.179 254.152C557.723 253.72 557.495 253.126 557.495 252.37V251.2C557.495 250.444 557.723 249.85 558.179 249.418C558.635 248.986 559.241 248.77 559.997 248.77C560.753 248.77 561.359 248.986 561.815 249.418C562.271 249.85 562.499 250.444 562.499 251.2V252.37C562.499 253.126 562.271 253.72 561.815 254.152C561.359 254.584 560.753 254.8 559.997 254.8ZM559.997 253.576C560.777 253.576 561.167 253.174 561.167 252.37V251.2C561.167 250.396 560.777 249.994 559.997 249.994C559.613 249.994 559.319 250.096 559.115 250.3C558.923 250.492 558.827 250.792 558.827 251.2V252.37C558.827 252.778 558.923 253.084 559.115 253.288C559.319 253.48 559.613 253.576 559.997 253.576Z" fill="#FF45CE"/>
<line x1="469.5" y1="129" x2="469.5" y2="142" stroke="white" stroke-width="5"/>
<line x1="520.5" y1="203" x2="520.5" y2="216" stroke="white" stroke-width="5"/>
<line x1="440.5" y1="277" x2="440.5" y2="290" stroke="white" stroke-width="5"/>
<line x1="31" y1="135.5" x2="467" y2="135.5" stroke="#FF45CE" stroke-width="5"/>
<line x1="31" y1="209.5" x2="518" y2="209.5" stroke="#FF45CE" stroke-width="5"/>
<line x1="31" y1="283.5" x2="438" y2="283.5" stroke="#FF45CE" stroke-width="5"/>
<line x1="472" y1="135.5" x2="568" y2="135.5" stroke="#0C2435" stroke-opacity="0.4" stroke-width="5"/>
<line x1="523" y1="209.5" x2="568" y2="209.5" stroke="#0C2435" stroke-opacity="0.4" stroke-width="5"/>
<line x1="443" y1="283.5" x2="568" y2="283.5" stroke="#0C2435" stroke-opacity="0.4" stroke-width="5"/>
<line x1="31" y1="58" x2="568" y2="58" stroke="#0C2435" stroke-opacity="0.4" stroke-width="2"/>
<line x1="31" y1="321" x2="568" y2="321" stroke="#0C2435" stroke-opacity="0.4" stroke-width="2"/>
<rect x="31.5" y="352.5" width="259" height="89" rx="3.5" fill="#FF45CE" fill-opacity="0.13" stroke="#7E376B"/>
<path d="M133.996 398V391.25C133.996 388.51 135.196 386.9 137.596 386.42L143.146 385.31C143.646 385.21 143.896 384.88 143.896 384.32V382.1C143.896 381.5 143.596 381.2 142.996 381.2H134.596V378.86L136.606 377.3H143.176C146.536 377.3 148.216 378.98 148.216 382.34V384.29C148.216 387.03 147.016 388.64 144.616 389.12L139.066 390.23C138.566 390.33 138.316 390.66 138.316 391.22V394.1H148.216V398H133.996ZM151.94 394.94V391.4L158.27 377.3H161.93L162.44 378.2L156.68 391.04H161.84V385.1H166.16V398H161.84V394.94H151.94ZM170.784 398V377.3H175.104V385.4H182.784V377.3H187.104V398H182.784V389.3H175.104V398H170.784Z" fill="#FF45CE"/>
<path d="M110.157 423V412.78H111.809L112.873 416.084C112.975 416.383 113.069 416.681 113.153 416.98C113.237 417.269 113.297 417.493 113.335 417.652C113.381 417.493 113.442 417.269 113.517 416.98C113.591 416.681 113.675 416.378 113.769 416.07L114.777 412.78H116.429V423H115.197V419.29C115.197 418.879 115.211 418.413 115.239 417.89C115.267 417.367 115.304 416.835 115.351 416.294C115.397 415.743 115.444 415.221 115.491 414.726C115.547 414.222 115.593 413.783 115.631 413.41L113.979 418.52H112.649L110.983 413.41C111.029 413.774 111.076 414.199 111.123 414.684C111.169 415.16 111.211 415.669 111.249 416.21C111.286 416.742 111.319 417.274 111.347 417.806C111.375 418.338 111.389 418.833 111.389 419.29V423H110.157ZM118.467 423L121.127 412.78H122.821L125.467 423H124.193L123.521 420.284H120.427L119.755 423H118.467ZM120.679 419.22H123.255L122.471 416.07C122.322 415.473 122.205 414.973 122.121 414.572C122.037 414.171 121.986 413.909 121.967 413.788C121.949 413.909 121.897 414.171 121.813 414.572C121.729 414.973 121.613 415.468 121.463 416.056L120.679 419.22ZM127.002 423L129.942 417.82L127.156 412.78H128.612L130.194 415.804C130.278 415.963 130.362 416.135 130.446 416.322C130.539 416.499 130.614 416.639 130.67 416.742C130.717 416.639 130.782 416.499 130.866 416.322C130.959 416.135 131.048 415.963 131.132 415.804L132.742 412.78H134.128L131.342 417.736L134.282 423H132.84L131.09 419.752C131.006 419.593 130.917 419.425 130.824 419.248C130.74 419.061 130.675 418.912 130.628 418.8C130.581 418.912 130.511 419.057 130.418 419.234C130.334 419.411 130.25 419.579 130.166 419.738L128.402 423H127.002ZM145.079 423V412.78H147.725C148.388 412.78 148.957 412.906 149.433 413.158C149.918 413.41 150.292 413.765 150.553 414.222C150.824 414.679 150.959 415.221 150.959 415.846V419.92C150.959 420.545 150.824 421.091 150.553 421.558C150.292 422.015 149.918 422.37 149.433 422.622C148.957 422.874 148.388 423 147.725 423H145.079ZM146.339 421.88H147.725C148.341 421.88 148.822 421.707 149.167 421.362C149.522 421.017 149.699 420.536 149.699 419.92V415.846C149.699 415.239 149.522 414.763 149.167 414.418C148.822 414.073 148.341 413.9 147.725 413.9H146.339V421.88ZM156.665 423.14C155.713 423.14 154.985 422.879 154.481 422.356C153.977 421.824 153.725 421.105 153.725 420.2V412.78H154.985V420.2C154.985 420.76 155.121 421.203 155.391 421.53C155.671 421.857 156.096 422.02 156.665 422.02C157.225 422.02 157.645 421.857 157.925 421.53C158.205 421.203 158.345 420.76 158.345 420.2V412.78H159.605V420.2C159.605 421.115 159.353 421.833 158.849 422.356C158.355 422.879 157.627 423.14 156.665 423.14ZM162.428 423V412.78H165.592C166.199 412.78 166.731 412.906 167.188 413.158C167.645 413.401 168 413.741 168.252 414.18C168.504 414.619 168.63 415.132 168.63 415.72C168.63 416.411 168.448 417.003 168.084 417.498C167.729 417.993 167.244 418.333 166.628 418.52L168.77 423H167.286L165.326 418.66H163.688V423H162.428ZM163.688 417.526H165.592C166.115 417.526 166.535 417.363 166.852 417.036C167.169 416.7 167.328 416.261 167.328 415.72C167.328 415.169 167.169 414.731 166.852 414.404C166.535 414.077 166.115 413.914 165.592 413.914H163.688V417.526ZM170.515 423L173.175 412.78H174.869L177.515 423H176.241L175.569 420.284H172.475L171.803 423H170.515ZM172.727 419.22H175.303L174.519 416.07C174.369 415.473 174.253 414.973 174.169 414.572C174.085 414.171 174.033 413.909 174.015 413.788C173.996 413.909 173.945 414.171 173.861 414.572C173.777 414.973 173.66 415.468 173.511 416.056L172.727 419.22ZM182.059 423V413.914H179.259V412.766H186.119V413.914H183.319V423H182.059ZM188.634 423V421.852H190.72V413.928H188.634V412.78H194.094V413.928H192.008V421.852H194.094V423H188.634ZM200.038 423.14C199.422 423.14 198.89 423.023 198.442 422.79C198.003 422.557 197.663 422.221 197.42 421.782C197.187 421.334 197.07 420.807 197.07 420.2V415.58C197.07 414.964 197.187 414.437 197.42 413.998C197.663 413.559 198.003 413.223 198.442 412.99C198.89 412.757 199.422 412.64 200.038 412.64C200.654 412.64 201.181 412.757 201.62 412.99C202.068 413.223 202.409 413.559 202.642 413.998C202.885 414.437 203.006 414.959 203.006 415.566V420.2C203.006 420.807 202.885 421.334 202.642 421.782C202.409 422.221 202.068 422.557 201.62 422.79C201.181 423.023 200.654 423.14 200.038 423.14ZM200.038 422.006C200.589 422.006 201.009 421.852 201.298 421.544C201.597 421.227 201.746 420.779 201.746 420.2V415.58C201.746 415.001 201.597 414.558 201.298 414.25C201.009 413.933 200.589 413.774 200.038 413.774C199.497 413.774 199.077 413.933 198.778 414.25C198.479 414.558 198.33 415.001 198.33 415.58V420.2C198.33 420.779 198.479 421.227 198.778 421.544C199.077 421.852 199.497 422.006 200.038 422.006ZM205.773 423V412.78H207.453L210.575 421.53C210.556 421.297 210.533 421.012 210.505 420.676C210.486 420.331 210.467 419.971 210.449 419.598C210.439 419.215 210.435 418.856 210.435 418.52V412.78H211.653V423H209.973L206.865 414.25C206.883 414.474 206.902 414.759 206.921 415.104C206.939 415.44 206.953 415.799 206.963 416.182C206.981 416.555 206.991 416.915 206.991 417.26V423H205.773Z" fill="#8C9AAD"/>
<rect x="308.5" y="352.5" width="259" height="89" rx="3.5" fill="#FF45CE" fill-opacity="0.13" stroke="#7E376B"/>
<path d="M430.588 396.44V394.1H439.888C440.488 394.1 440.788 393.8 440.788 393.2V389.9C440.788 389.3 440.488 389 439.888 389H430.888V377.3H444.208V381.2H435.208V385.1H440.068C443.428 385.1 445.108 386.78 445.108 390.14V392.96C445.108 396.32 443.428 398 440.068 398H432.598L430.588 396.44Z" fill="#FF45CE"/>
<path d="M394.686 423.14C394.07 423.14 393.533 423.023 393.076 422.79C392.628 422.557 392.278 422.221 392.026 421.782C391.783 421.334 391.662 420.807 391.662 420.2V415.58C391.662 414.964 391.783 414.437 392.026 413.998C392.278 413.559 392.628 413.223 393.076 412.99C393.533 412.757 394.07 412.64 394.686 412.64C395.302 412.64 395.834 412.761 396.282 413.004C396.73 413.237 397.075 413.573 397.318 414.012C397.561 414.451 397.682 414.973 397.682 415.58H396.422C396.422 415.001 396.268 414.558 395.96 414.25C395.661 413.933 395.237 413.774 394.686 413.774C394.135 413.774 393.701 413.928 393.384 414.236C393.076 414.544 392.922 414.987 392.922 415.566V420.2C392.922 420.779 393.076 421.227 393.384 421.544C393.701 421.852 394.135 422.006 394.686 422.006C395.237 422.006 395.661 421.852 395.96 421.544C396.268 421.227 396.422 420.779 396.422 420.2H397.682C397.682 420.797 397.561 421.32 397.318 421.768C397.075 422.207 396.73 422.547 396.282 422.79C395.834 423.023 395.302 423.14 394.686 423.14ZM403.305 423.14C402.689 423.14 402.157 423.023 401.709 422.79C401.27 422.557 400.929 422.221 400.687 421.782C400.453 421.334 400.337 420.807 400.337 420.2V415.58C400.337 414.964 400.453 414.437 400.687 413.998C400.929 413.559 401.27 413.223 401.709 412.99C402.157 412.757 402.689 412.64 403.305 412.64C403.921 412.64 404.448 412.757 404.887 412.99C405.335 413.223 405.675 413.559 405.909 413.998C406.151 414.437 406.273 414.959 406.273 415.566V420.2C406.273 420.807 406.151 421.334 405.909 421.782C405.675 422.221 405.335 422.557 404.887 422.79C404.448 423.023 403.921 423.14 403.305 423.14ZM403.305 422.006C403.855 422.006 404.275 421.852 404.565 421.544C404.863 421.227 405.013 420.779 405.013 420.2V415.58C405.013 415.001 404.863 414.558 404.565 414.25C404.275 413.933 403.855 413.774 403.305 413.774C402.763 413.774 402.343 413.933 402.045 414.25C401.746 414.558 401.597 415.001 401.597 415.58V420.2C401.597 420.779 401.746 421.227 402.045 421.544C402.343 421.852 402.763 422.006 403.305 422.006ZM409.067 423V412.78H412.231C412.838 412.78 413.37 412.906 413.827 413.158C414.284 413.401 414.639 413.741 414.891 414.18C415.143 414.619 415.269 415.132 415.269 415.72C415.269 416.411 415.087 417.003 414.723 417.498C414.368 417.993 413.883 418.333 413.267 418.52L415.409 423H413.925L411.965 418.66H410.327V423H409.067ZM410.327 417.526H412.231C412.754 417.526 413.174 417.363 413.491 417.036C413.808 416.7 413.967 416.261 413.967 415.72C413.967 415.169 413.808 414.731 413.491 414.404C413.174 414.077 412.754 413.914 412.231 413.914H410.327V417.526ZM417.854 423V412.78H423.734V413.928H419.1V417.092H423.244V418.226H419.1V421.852H423.734V423H417.854ZM438.059 423.14C437.387 423.14 436.808 423.028 436.323 422.804C435.847 422.58 435.478 422.258 435.217 421.838C434.955 421.418 434.82 420.919 434.811 420.34H436.071C436.071 420.853 436.243 421.259 436.589 421.558C436.943 421.857 437.433 422.006 438.059 422.006C438.647 422.006 439.104 421.861 439.431 421.572C439.767 421.283 439.935 420.881 439.935 420.368C439.935 419.957 439.823 419.598 439.599 419.29C439.384 418.982 439.071 418.767 438.661 418.646L437.275 418.212C436.575 417.997 436.033 417.638 435.651 417.134C435.277 416.63 435.091 416.037 435.091 415.356C435.091 414.805 435.212 414.329 435.455 413.928C435.707 413.517 436.057 413.2 436.505 412.976C436.953 412.743 437.48 412.626 438.087 412.626C438.983 412.626 439.701 412.878 440.243 413.382C440.784 413.877 441.059 414.539 441.069 415.37H439.809C439.809 414.866 439.655 414.474 439.347 414.194C439.048 413.905 438.623 413.76 438.073 413.76C437.531 413.76 437.107 413.891 436.799 414.152C436.5 414.413 436.351 414.777 436.351 415.244C436.351 415.664 436.463 416.028 436.687 416.336C436.911 416.644 437.233 416.863 437.653 416.994L439.053 417.442C439.734 417.657 440.261 418.021 440.635 418.534C441.008 419.047 441.195 419.649 441.195 420.34C441.195 420.9 441.064 421.39 440.803 421.81C440.541 422.23 440.173 422.557 439.697 422.79C439.23 423.023 438.684 423.14 438.059 423.14ZM443.765 423V412.78H445.025V417.162H446.537L448.805 412.78H450.177L447.643 417.694L450.317 423H448.875L446.495 418.268H445.025V423H443.765ZM452.622 423V421.852H454.708V413.928H452.622V412.78H458.082V413.928H455.996V421.852H458.082V423H452.622ZM461.436 423V412.78H462.696V421.852H467.316V423H461.436ZM470.111 423V412.78H471.371V421.852H475.991V423H470.111ZM481.431 423.14C480.759 423.14 480.181 423.028 479.695 422.804C479.219 422.58 478.851 422.258 478.589 421.838C478.328 421.418 478.193 420.919 478.183 420.34H479.443C479.443 420.853 479.616 421.259 479.961 421.558C480.316 421.857 480.806 422.006 481.431 422.006C482.019 422.006 482.477 421.861 482.803 421.572C483.139 421.283 483.307 420.881 483.307 420.368C483.307 419.957 483.195 419.598 482.971 419.29C482.757 418.982 482.444 418.767 482.033 418.646L480.647 418.212C479.947 417.997 479.406 417.638 479.023 417.134C478.65 416.63 478.463 416.037 478.463 415.356C478.463 414.805 478.585 414.329 478.827 413.928C479.079 413.517 479.429 413.2 479.877 412.976C480.325 412.743 480.853 412.626 481.459 412.626C482.355 412.626 483.074 412.878 483.615 413.382C484.157 413.877 484.432 414.539 484.441 415.37H483.181C483.181 414.866 483.027 414.474 482.719 414.194C482.421 413.905 481.996 413.76 481.445 413.76C480.904 413.76 480.479 413.891 480.171 414.152C479.873 414.413 479.723 414.777 479.723 415.244C479.723 415.664 479.835 416.028 480.059 416.336C480.283 416.644 480.605 416.863 481.025 416.994L482.425 417.442C483.107 417.657 483.634 418.021 484.007 418.534C484.381 419.047 484.567 419.649 484.567 420.34C484.567 420.9 484.437 421.39 484.175 421.81C483.914 422.23 483.545 422.557 483.069 422.79C482.603 423.023 482.057 423.14 481.431 423.14Z" fill="#8C9AAD"/>
</svg>
