<svg width="557" height="132" viewBox="0 0 557 132" fill="none" xmlns="http://www.w3.org/2000/svg">
<path d="M117.736 90V41.7H140.556C148.396 41.7 152.316 45.62 152.316 53.46V57.66C152.316 59.2467 151.849 60.6 150.916 61.72L148.466 64.66L151.406 67.11C152.946 68.37 153.716 70.2367 153.716 72.71V78.24C153.716 86.08 149.796 90 141.956 90H117.736ZM127.816 80.9H141.536C142.936 80.9 143.636 80.2 143.636 78.8V71.8C143.636 70.4 142.936 69.7 141.536 69.7H127.816V80.9ZM127.816 60.6H140.136C141.536 60.6 142.236 59.9 142.236 58.5V52.9C142.236 51.5 141.536 50.8 140.136 50.8H127.816V60.6ZM162.7 78.24V53.46C162.7 45.62 166.62 41.7 174.46 41.7H190.42C198.26 41.7 202.18 45.62 202.18 53.46V78.24C202.18 86.08 198.26 90 190.42 90H174.46C166.62 90 162.7 86.08 162.7 78.24ZM172.78 78.8C172.78 80.2 173.48 80.9 174.88 80.9H190C191.4 80.9 192.1 80.2 192.1 78.8V52.9C192.1 51.5 191.4 50.8 190 50.8H174.88C173.48 50.8 172.78 51.5 172.78 52.9V78.8ZM212.261 78.24V53.46C212.261 45.62 216.181 41.7 224.021 41.7H239.981C247.821 41.7 251.741 45.62 251.741 53.46V78.24C251.741 86.08 247.821 90 239.981 90H224.021C216.181 90 212.261 86.08 212.261 78.24ZM222.341 78.8C222.341 80.2 223.041 80.9 224.441 80.9H239.561C240.961 80.9 241.661 80.2 241.661 78.8V52.9C241.661 51.5 240.961 50.8 239.561 50.8H224.441C223.041 50.8 222.341 51.5 222.341 52.9V78.8ZM262.521 90V41.7H274.561L288.141 70.68L301.721 41.7H313.761V90H303.681V59.48L292.341 83.7H283.941L272.601 59.48V90H262.521ZM320.795 88.11L335.145 41.7H350.545L364.895 88.11L363.635 90H355.235L352.295 80.2H333.395L330.455 90H322.055L320.795 88.11ZM336.125 71.1H349.565L343.405 50.8H342.285L336.125 71.1ZM364.35 50.8V41.7H403.83V50.8H389.13V90H379.05V50.8H364.35ZM411.271 90V41.7H421.351V60.6H439.271V41.7H449.351V90H439.271V69.7H421.351V90H411.271ZM460.132 78.24V53.46C460.132 45.62 464.052 41.7 471.892 41.7H487.852C495.692 41.7 499.612 45.62 499.612 53.46V78.24C499.612 86.08 495.692 90 487.852 90H471.892C464.052 90 460.132 86.08 460.132 78.24ZM470.212 78.8C470.212 80.2 470.912 80.9 472.312 80.9H487.432C488.832 80.9 489.532 80.2 489.532 78.8V52.9C489.532 51.5 488.832 50.8 487.432 50.8H472.312C470.912 50.8 470.212 51.5 470.212 52.9V78.8ZM510.392 90V41.7H521.312L540.492 73.41V41.7H550.572V90H539.652L520.472 58.29V90H510.392Z" fill="white"/>
<path d="M29.6291 44.9668L65.9193 24.0146L102.211 44.967L102.21 86.8725L65.9201 107.825L29.6278 86.8728L29.6291 44.9668Z" stroke="#FF45CE" stroke-width="11"/>
</svg>
