<svg width="890" height="605" viewBox="0 0 890 605" fill="none" xmlns="http://www.w3.org/2000/svg">
<path d="M679.396 203.3C678.076 203.3 676.926 203.05 675.946 202.55C674.986 202.05 674.236 201.33 673.696 200.39C673.176 199.43 672.916 198.3 672.916 197V187.1C672.916 185.78 673.176 184.65 673.696 183.71C674.236 182.77 674.986 182.05 675.946 181.55C676.926 181.05 678.076 180.8 679.396 180.8C680.716 180.8 681.856 181.06 682.816 181.58C683.776 182.08 684.516 182.8 685.036 183.74C685.556 184.68 685.816 185.8 685.816 187.1H683.116C683.116 185.86 682.786 184.91 682.126 184.25C681.486 183.57 680.576 183.23 679.396 183.23C678.216 183.23 677.286 183.56 676.606 184.22C675.946 184.88 675.616 185.83 675.616 187.07V197C675.616 198.24 675.946 199.2 676.606 199.88C677.286 200.54 678.216 200.87 679.396 200.87C680.576 200.87 681.486 200.54 682.126 199.88C682.786 199.2 683.116 198.24 683.116 197H685.816C685.816 198.28 685.556 199.4 685.036 200.36C684.516 201.3 683.776 202.03 682.816 202.55C681.856 203.05 680.716 203.3 679.396 203.3ZM696.064 203.24C694.744 203.24 693.604 202.99 692.644 202.49C691.684 201.99 690.934 201.27 690.394 200.33C689.874 199.37 689.614 198.24 689.614 196.94V192.56C689.614 191.24 689.874 190.11 690.394 189.17C690.934 188.23 691.684 187.51 692.644 187.01C693.604 186.51 694.744 186.26 696.064 186.26C697.384 186.26 698.524 186.51 699.484 187.01C700.444 187.51 701.184 188.23 701.704 189.17C702.244 190.11 702.514 191.23 702.514 192.53V196.94C702.514 198.24 702.244 199.37 701.704 200.33C701.184 201.27 700.444 201.99 699.484 202.49C698.524 202.99 697.384 203.24 696.064 203.24ZM696.064 200.84C697.244 200.84 698.164 200.51 698.824 199.85C699.484 199.19 699.814 198.22 699.814 196.94V192.56C699.814 191.28 699.484 190.31 698.824 189.65C698.164 188.99 697.244 188.66 696.064 188.66C694.904 188.66 693.984 188.99 693.304 189.65C692.644 190.31 692.314 191.28 692.314 192.56V196.94C692.314 198.22 692.644 199.19 693.304 199.85C693.984 200.51 694.904 200.84 696.064 200.84ZM715.103 203C714.143 203 713.303 202.81 712.583 202.43C711.863 202.05 711.303 201.51 710.903 200.81C710.503 200.11 710.303 199.29 710.303 198.35V183.56H704.753V181.1H713.003V198.35C713.003 199.03 713.193 199.57 713.573 199.97C713.953 200.35 714.463 200.54 715.103 200.54H720.353V203H715.103ZM731.891 203C730.931 203 730.091 202.81 729.371 202.43C728.651 202.05 728.091 201.51 727.691 200.81C727.291 200.11 727.091 199.29 727.091 198.35V183.56H721.541V181.1H729.791V198.35C729.791 199.03 729.981 199.57 730.361 199.97C730.741 200.35 731.251 200.54 731.891 200.54H737.141V203H731.891ZM744.989 203.3C743.249 203.3 741.879 202.86 740.879 201.98C739.879 201.08 739.379 199.87 739.379 198.35C739.379 196.81 739.879 195.6 740.879 194.72C741.879 193.84 743.229 193.4 744.929 193.4H750.029V191.75C750.029 190.73 749.719 189.95 749.099 189.41C748.499 188.85 747.639 188.57 746.519 188.57C745.539 188.57 744.719 188.78 744.059 189.2C743.399 189.6 743.019 190.15 742.919 190.85H740.219C740.399 189.43 741.069 188.3 742.229 187.46C743.389 186.62 744.839 186.2 746.579 186.2C748.479 186.2 749.979 186.69 751.079 187.67C752.179 188.65 752.729 189.98 752.729 191.66V203H750.089V199.85H749.639L750.089 199.4C750.089 200.6 749.619 201.55 748.679 202.25C747.759 202.95 746.529 203.3 744.989 203.3ZM745.649 201.17C746.929 201.17 747.979 200.85 748.799 200.21C749.619 199.57 750.029 198.75 750.029 197.75V195.41H744.989C744.089 195.41 743.379 195.66 742.859 196.16C742.339 196.66 742.079 197.34 742.079 198.2C742.079 199.12 742.389 199.85 743.009 200.39C743.649 200.91 744.529 201.17 745.649 201.17ZM764.178 203.3C762.818 203.3 761.728 202.94 760.908 202.22C760.088 201.48 759.678 200.48 759.678 199.22L760.218 199.85H759.678V203H756.978V181.1H759.678V185.9L759.618 189.65H760.218L759.678 190.28C759.678 189.04 760.088 188.05 760.908 187.31C761.748 186.57 762.838 186.2 764.178 186.2C765.838 186.2 767.168 186.75 768.168 187.85C769.168 188.95 769.668 190.45 769.668 192.35V197.18C769.668 199.06 769.168 200.55 768.168 201.65C767.168 202.75 765.838 203.3 764.178 203.3ZM763.278 200.96C764.418 200.96 765.318 200.62 765.978 199.94C766.638 199.26 766.968 198.28 766.968 197V192.5C766.968 191.22 766.638 190.24 765.978 189.56C765.318 188.88 764.418 188.54 763.278 188.54C762.178 188.54 761.298 188.89 760.638 189.59C759.998 190.29 759.678 191.26 759.678 192.5V197C759.678 198.24 759.998 199.21 760.638 199.91C761.298 200.61 762.178 200.96 763.278 200.96ZM780.006 203.24C778.686 203.24 777.546 202.99 776.586 202.49C775.626 201.99 774.876 201.27 774.336 200.33C773.816 199.37 773.556 198.24 773.556 196.94V192.56C773.556 191.24 773.816 190.11 774.336 189.17C774.876 188.23 775.626 187.51 776.586 187.01C777.546 186.51 778.686 186.26 780.006 186.26C781.326 186.26 782.466 186.51 783.426 187.01C784.386 187.51 785.126 188.23 785.646 189.17C786.186 190.11 786.456 191.23 786.456 192.53V196.94C786.456 198.24 786.186 199.37 785.646 200.33C785.126 201.27 784.386 201.99 783.426 202.49C782.466 202.99 781.326 203.24 780.006 203.24ZM780.006 200.84C781.186 200.84 782.106 200.51 782.766 199.85C783.426 199.19 783.756 198.22 783.756 196.94V192.56C783.756 191.28 783.426 190.31 782.766 189.65C782.106 188.99 781.186 188.66 780.006 188.66C778.846 188.66 777.926 188.99 777.246 189.65C776.586 190.31 776.256 191.28 776.256 192.56V196.94C776.256 198.22 776.586 199.19 777.246 199.85C777.926 200.51 778.846 200.84 780.006 200.84ZM791.124 203V186.5H793.764V189.65H794.394L793.524 191.6C793.524 189.82 793.904 188.48 794.664 187.58C795.444 186.66 796.594 186.2 798.114 186.2C799.854 186.2 801.234 186.75 802.254 187.85C803.294 188.93 803.814 190.4 803.814 192.26V193.25H801.114V192.5C801.114 191.2 800.794 190.21 800.154 189.53C799.534 188.83 798.644 188.48 797.484 188.48C796.344 188.48 795.444 188.83 794.784 189.53C794.144 190.23 793.824 191.22 793.824 192.5V203H791.124ZM812.142 203.3C810.402 203.3 809.032 202.86 808.032 201.98C807.032 201.08 806.532 199.87 806.532 198.35C806.532 196.81 807.032 195.6 808.032 194.72C809.032 193.84 810.382 193.4 812.082 193.4H817.182V191.75C817.182 190.73 816.872 189.95 816.252 189.41C815.652 188.85 814.792 188.57 813.672 188.57C812.692 188.57 811.872 188.78 811.212 189.2C810.552 189.6 810.172 190.15 810.072 190.85H807.372C807.552 189.43 808.222 188.3 809.382 187.46C810.542 186.62 811.992 186.2 813.732 186.2C815.632 186.2 817.132 186.69 818.232 187.67C819.332 188.65 819.882 189.98 819.882 191.66V203H817.242V199.85H816.792L817.242 199.4C817.242 200.6 816.772 201.55 815.832 202.25C814.912 202.95 813.682 203.3 812.142 203.3ZM812.802 201.17C814.082 201.17 815.132 200.85 815.952 200.21C816.772 199.57 817.182 198.75 817.182 197.75V195.41H812.142C811.242 195.41 810.532 195.66 810.012 196.16C809.492 196.66 809.232 197.34 809.232 198.2C809.232 199.12 809.542 199.85 810.162 200.39C810.802 200.91 811.682 201.17 812.802 201.17ZM832.171 203C830.751 203 829.641 202.62 828.841 201.86C828.061 201.1 827.671 200.03 827.671 198.65V188.96H823.021V186.5H827.671V181.85H830.371V186.5H836.971V188.96H830.371V198.65C830.371 199.91 830.971 200.54 832.171 200.54H836.671V203H832.171ZM840.709 203V200.54H846.559V188.96H841.459V186.5H849.259V200.54H854.809V203H840.709ZM847.609 183.53C846.949 183.53 846.429 183.36 846.049 183.02C845.669 182.68 845.479 182.22 845.479 181.64C845.479 181.04 845.669 180.57 846.049 180.23C846.429 179.87 846.949 179.69 847.609 179.69C848.269 179.69 848.789 179.87 849.169 180.23C849.549 180.57 849.739 181.04 849.739 181.64C849.739 182.22 849.549 182.68 849.169 183.02C848.789 183.36 848.269 183.53 847.609 183.53ZM863.947 203.24C862.627 203.24 861.487 202.99 860.527 202.49C859.567 201.99 858.817 201.27 858.277 200.33C857.757 199.37 857.497 198.24 857.497 196.94V192.56C857.497 191.24 857.757 190.11 858.277 189.17C858.817 188.23 859.567 187.51 860.527 187.01C861.487 186.51 862.627 186.26 863.947 186.26C865.267 186.26 866.407 186.51 867.367 187.01C868.327 187.51 869.067 188.23 869.587 189.17C870.127 190.11 870.397 191.23 870.397 192.53V196.94C870.397 198.24 870.127 199.37 869.587 200.33C869.067 201.27 868.327 201.99 867.367 202.49C866.407 202.99 865.267 203.24 863.947 203.24ZM863.947 200.84C865.127 200.84 866.047 200.51 866.707 199.85C867.367 199.19 867.697 198.22 867.697 196.94V192.56C867.697 191.28 867.367 190.31 866.707 189.65C866.047 188.99 865.127 188.66 863.947 188.66C862.787 188.66 861.867 188.99 861.187 189.65C860.527 190.31 860.197 191.28 860.197 192.56V196.94C860.197 198.22 860.527 199.19 861.187 199.85C861.867 200.51 862.787 200.84 863.947 200.84ZM874.496 203V186.5H877.196V189.65H877.766L877.196 190.28C877.196 188.98 877.586 187.98 878.366 187.28C879.146 186.56 880.226 186.2 881.606 186.2C883.266 186.2 884.586 186.71 885.566 187.73C886.546 188.75 887.036 190.14 887.036 191.9V203H884.336V192.2C884.336 191.02 884.016 190.12 883.376 189.5C882.756 188.86 881.906 188.54 880.826 188.54C879.706 188.54 878.816 188.88 878.156 189.56C877.516 190.24 877.196 191.22 877.196 192.5V203H874.496Z" fill="white"/>
<path d="M276.318 204.776L445.385 107.165L614.454 204.776L614.454 399.998L445.385 497.61L276.319 399.999L276.318 204.776Z" stroke="#FF45CE" stroke-width="45.276"/>
<path d="M362.909 34V12.1H365.609V31.54H375.509V34H362.909ZM385.247 34.3C383.947 34.3 382.807 34.04 381.827 33.52C380.867 33 380.117 32.27 379.577 31.33C379.057 30.37 378.797 29.26 378.797 28V23.5C378.797 22.22 379.057 21.11 379.577 20.17C380.117 19.23 380.867 18.5 381.827 17.98C382.807 17.46 383.947 17.2 385.247 17.2C386.547 17.2 387.677 17.46 388.637 17.98C389.617 18.5 390.367 19.23 390.887 20.17C391.427 21.11 391.697 22.22 391.697 23.5V26.41H381.437V28C381.437 29.3 381.767 30.3 382.427 31C383.087 31.68 384.027 32.02 385.247 32.02C386.287 32.02 387.127 31.84 387.767 31.48C388.407 31.1 388.797 30.54 388.937 29.8H391.637C391.457 31.18 390.777 32.28 389.597 33.1C388.437 33.9 386.987 34.3 385.247 34.3ZM389.057 24.61V23.5C389.057 22.2 388.727 21.2 388.067 20.5C387.427 19.8 386.487 19.45 385.247 19.45C384.027 19.45 383.087 19.8 382.427 20.5C381.767 21.2 381.437 22.2 381.437 23.5V24.37H389.267L389.057 24.61ZM400.595 34.3C398.855 34.3 397.485 33.86 396.485 32.98C395.485 32.08 394.985 30.87 394.985 29.35C394.985 27.81 395.485 26.6 396.485 25.72C397.485 24.84 398.835 24.4 400.535 24.4H405.635V22.75C405.635 21.73 405.325 20.95 404.705 20.41C404.105 19.85 403.245 19.57 402.125 19.57C401.145 19.57 400.325 19.78 399.665 20.2C399.005 20.6 398.625 21.15 398.525 21.85H395.825C396.005 20.43 396.675 19.3 397.835 18.46C398.995 17.62 400.445 17.2 402.185 17.2C404.085 17.2 405.585 17.69 406.685 18.67C407.785 19.65 408.335 20.98 408.335 22.66V34H405.695V30.85H405.245L405.695 30.4C405.695 31.6 405.225 32.55 404.285 33.25C403.365 33.95 402.135 34.3 400.595 34.3ZM401.255 32.17C402.535 32.17 403.585 31.85 404.405 31.21C405.225 30.57 405.635 29.75 405.635 28.75V26.41H400.595C399.695 26.41 398.985 26.66 398.465 27.16C397.945 27.66 397.685 28.34 397.685 29.2C397.685 30.12 397.995 30.85 398.615 31.39C399.255 31.91 400.135 32.17 401.255 32.17ZM417.863 34.3C416.223 34.3 414.893 33.75 413.873 32.65C412.873 31.55 412.373 30.06 412.373 28.18V23.35C412.373 21.45 412.873 19.95 413.873 18.85C414.873 17.75 416.203 17.2 417.863 17.2C419.223 17.2 420.313 17.57 421.133 18.31C421.953 19.05 422.363 20.04 422.363 21.28L421.823 20.65H422.423L422.363 16.9V12.1H425.063V34H422.363V30.85H421.823L422.363 30.22C422.363 31.48 421.953 32.48 421.133 33.22C420.313 33.94 419.223 34.3 417.863 34.3ZM418.763 31.96C419.883 31.96 420.763 31.61 421.403 30.91C422.043 30.21 422.363 29.24 422.363 28V23.5C422.363 22.26 422.043 21.29 421.403 20.59C420.763 19.89 419.883 19.54 418.763 19.54C417.623 19.54 416.723 19.88 416.063 20.56C415.403 21.24 415.073 22.22 415.073 23.5V28C415.073 29.28 415.403 30.26 416.063 30.94C416.723 31.62 417.623 31.96 418.763 31.96ZM435.612 34.3C434.312 34.3 433.172 34.04 432.192 33.52C431.232 33 430.482 32.27 429.942 31.33C429.422 30.37 429.162 29.26 429.162 28V23.5C429.162 22.22 429.422 21.11 429.942 20.17C430.482 19.23 431.232 18.5 432.192 17.98C433.172 17.46 434.312 17.2 435.612 17.2C436.912 17.2 438.042 17.46 439.002 17.98C439.982 18.5 440.732 19.23 441.252 20.17C441.792 21.11 442.062 22.22 442.062 23.5V26.41H431.802V28C431.802 29.3 432.132 30.3 432.792 31C433.452 31.68 434.392 32.02 435.612 32.02C436.652 32.02 437.492 31.84 438.132 31.48C438.772 31.1 439.162 30.54 439.302 29.8H442.002C441.822 31.18 441.142 32.28 439.962 33.1C438.802 33.9 437.352 34.3 435.612 34.3ZM439.422 24.61V23.5C439.422 22.2 439.092 21.2 438.432 20.5C437.792 19.8 436.852 19.45 435.612 19.45C434.392 19.45 433.452 19.8 432.792 20.5C432.132 21.2 431.802 22.2 431.802 23.5V24.37H439.632L439.422 24.61ZM446.73 34V17.5H449.37V20.65H450L449.13 22.6C449.13 20.82 449.51 19.48 450.27 18.58C451.05 17.66 452.2 17.2 453.72 17.2C455.46 17.2 456.84 17.75 457.86 18.85C458.9 19.93 459.42 21.4 459.42 23.26V24.25H456.72V23.5C456.72 22.2 456.4 21.21 455.76 20.53C455.14 19.83 454.25 19.48 453.09 19.48C451.95 19.48 451.05 19.83 450.39 20.53C449.75 21.23 449.43 22.22 449.43 23.5V34H446.73ZM468.678 34.24C467.558 34.24 466.578 34.07 465.738 33.73C464.918 33.37 464.258 32.87 463.758 32.23C463.278 31.59 462.988 30.83 462.888 29.95H465.588C465.708 30.53 466.028 30.99 466.548 31.33C467.088 31.67 467.798 31.84 468.678 31.84H469.938C470.998 31.84 471.788 31.63 472.308 31.21C472.828 30.77 473.088 30.19 473.088 29.47C473.088 28.77 472.848 28.22 472.368 27.82C471.908 27.4 471.218 27.12 470.298 26.98L468.078 26.62C466.458 26.34 465.248 25.84 464.448 25.12C463.668 24.38 463.278 23.31 463.278 21.91C463.278 20.43 463.748 19.29 464.688 18.49C465.628 17.67 467.038 17.26 468.918 17.26H470.058C471.638 17.26 472.908 17.63 473.868 18.37C474.828 19.11 475.408 20.11 475.608 21.37H472.908C472.788 20.85 472.488 20.44 472.008 20.14C471.528 19.82 470.878 19.66 470.058 19.66H468.918C467.898 19.66 467.148 19.85 466.668 20.23C466.208 20.61 465.978 21.18 465.978 21.94C465.978 22.62 466.178 23.12 466.578 23.44C466.978 23.76 467.608 23.99 468.468 24.13L470.688 24.49C472.468 24.77 473.758 25.29 474.558 26.05C475.378 26.81 475.788 27.91 475.788 29.35C475.788 30.87 475.298 32.07 474.318 32.95C473.358 33.81 471.898 34.24 469.938 34.24H468.678ZM479.737 34V12.1H482.437V17.5V20.65H483.007L482.437 21.28C482.437 19.98 482.827 18.98 483.607 18.28C484.387 17.56 485.467 17.2 486.847 17.2C488.507 17.2 489.827 17.71 490.807 18.73C491.787 19.75 492.277 21.14 492.277 22.9V34H489.577V23.2C489.577 22.02 489.257 21.11 488.617 20.47C487.997 19.81 487.147 19.48 486.067 19.48C484.947 19.48 484.057 19.83 483.397 20.53C482.757 21.23 482.437 22.22 482.437 23.5V34H479.737ZM496.315 34V31.54H502.165V19.96H497.065V17.5H504.865V31.54H510.415V34H496.315ZM503.215 14.53C502.555 14.53 502.035 14.36 501.655 14.02C501.275 13.68 501.085 13.22 501.085 12.64C501.085 12.04 501.275 11.57 501.655 11.23C502.035 10.87 502.555 10.69 503.215 10.69C503.875 10.69 504.395 10.87 504.775 11.23C505.155 11.57 505.345 12.04 505.345 12.64C505.345 13.22 505.155 13.68 504.775 14.02C504.395 14.36 503.875 14.53 503.215 14.53ZM513.313 39.4V17.5H516.013V20.65H516.553L516.013 21.28C516.013 20.02 516.423 19.03 517.243 18.31C518.083 17.57 519.183 17.2 520.543 17.2C522.203 17.2 523.523 17.75 524.503 18.85C525.503 19.93 526.003 21.42 526.003 23.32V28.15C526.003 29.41 525.773 30.5 525.313 31.42C524.873 32.34 524.243 33.05 523.423 33.55C522.623 34.05 521.663 34.3 520.543 34.3C519.203 34.3 518.113 33.93 517.273 33.19C516.433 32.45 516.013 31.46 516.013 30.22L516.553 30.85H515.953L516.013 34.6V39.4H513.313ZM519.643 31.96C520.783 31.96 521.673 31.62 522.313 30.94C522.973 30.26 523.303 29.28 523.303 28V23.5C523.303 22.22 522.973 21.24 522.313 20.56C521.673 19.88 520.783 19.54 519.643 19.54C518.543 19.54 517.663 19.89 517.003 20.59C516.343 21.29 516.013 22.26 516.013 23.5V28C516.013 29.24 516.343 30.21 517.003 30.91C517.663 31.61 518.543 31.96 519.643 31.96Z" fill="white"/>
<path d="M344.67 596L350.37 574.1H354L359.67 596H356.94L355.5 590.18H348.87L347.43 596H344.67ZM349.41 587.9H354.93L353.25 581.15C352.93 579.87 352.68 578.8 352.5 577.94C352.32 577.08 352.21 576.52 352.17 576.26C352.13 576.52 352.02 577.08 351.84 577.94C351.66 578.8 351.41 579.86 351.09 581.12L349.41 587.9ZM367.999 596.3C366.359 596.3 365.029 595.75 364.009 594.65C363.009 593.55 362.509 592.06 362.509 590.18V585.35C362.509 583.45 363.009 581.95 364.009 580.85C365.009 579.75 366.339 579.2 367.999 579.2C369.359 579.2 370.449 579.57 371.269 580.31C372.089 581.05 372.499 582.04 372.499 583.28L371.959 582.65H372.559L372.499 578.9V574.1H375.199V596H372.499V592.85H371.959L372.499 592.22C372.499 593.48 372.089 594.48 371.269 595.22C370.449 595.94 369.359 596.3 367.999 596.3ZM368.899 593.96C370.019 593.96 370.899 593.61 371.539 592.91C372.179 592.21 372.499 591.24 372.499 590V585.5C372.499 584.26 372.179 583.29 371.539 582.59C370.899 581.89 370.019 581.54 368.899 581.54C367.759 581.54 366.859 581.88 366.199 582.56C365.539 583.24 365.209 584.22 365.209 585.5V590C365.209 591.28 365.539 592.26 366.199 592.94C366.859 593.62 367.759 593.96 368.899 593.96ZM384.307 596.3C382.567 596.3 381.197 595.86 380.197 594.98C379.197 594.08 378.697 592.87 378.697 591.35C378.697 589.81 379.197 588.6 380.197 587.72C381.197 586.84 382.547 586.4 384.247 586.4H389.347V584.75C389.347 583.73 389.037 582.95 388.417 582.41C387.817 581.85 386.957 581.57 385.837 581.57C384.857 581.57 384.037 581.78 383.377 582.2C382.717 582.6 382.337 583.15 382.237 583.85H379.537C379.717 582.43 380.387 581.3 381.547 580.46C382.707 579.62 384.157 579.2 385.897 579.2C387.797 579.2 389.297 579.69 390.397 580.67C391.497 581.65 392.047 582.98 392.047 584.66V596H389.407V592.85H388.957L389.407 592.4C389.407 593.6 388.937 594.55 387.997 595.25C387.077 595.95 385.847 596.3 384.307 596.3ZM384.967 594.17C386.247 594.17 387.297 593.85 388.117 593.21C388.937 592.57 389.347 591.75 389.347 590.75V588.41H384.307C383.407 588.41 382.697 588.66 382.177 589.16C381.657 589.66 381.397 590.34 381.397 591.2C381.397 592.12 381.707 592.85 382.327 593.39C382.967 593.91 383.847 594.17 384.967 594.17ZM396.295 601.4V579.5H398.995V582.65H399.535L398.995 583.28C398.995 582.02 399.405 581.03 400.225 580.31C401.065 579.57 402.165 579.2 403.525 579.2C405.185 579.2 406.505 579.75 407.485 580.85C408.485 581.93 408.985 583.42 408.985 585.32V590.15C408.985 591.41 408.755 592.5 408.295 593.42C407.855 594.34 407.225 595.05 406.405 595.55C405.605 596.05 404.645 596.3 403.525 596.3C402.185 596.3 401.095 595.93 400.255 595.19C399.415 594.45 398.995 593.46 398.995 592.22L399.535 592.85H398.935L398.995 596.6V601.4H396.295ZM402.625 593.96C403.765 593.96 404.655 593.62 405.295 592.94C405.955 592.26 406.285 591.28 406.285 590V585.5C406.285 584.22 405.955 583.24 405.295 582.56C404.655 581.88 403.765 581.54 402.625 581.54C401.525 581.54 400.645 581.89 399.985 582.59C399.325 583.29 398.995 584.26 398.995 585.5V590C398.995 591.24 399.325 592.21 399.985 592.91C400.645 593.61 401.525 593.96 402.625 593.96ZM421.123 596C419.703 596 418.593 595.62 417.793 594.86C417.013 594.1 416.623 593.03 416.623 591.65V581.96H411.973V579.5H416.623V574.85H419.323V579.5H425.923V581.96H419.323V591.65C419.323 592.91 419.923 593.54 421.123 593.54H425.623V596H421.123ZM434.672 596.3C432.932 596.3 431.562 595.86 430.562 594.98C429.562 594.08 429.062 592.87 429.062 591.35C429.062 589.81 429.562 588.6 430.562 587.72C431.562 586.84 432.912 586.4 434.612 586.4H439.712V584.75C439.712 583.73 439.402 582.95 438.782 582.41C438.182 581.85 437.322 581.57 436.202 581.57C435.222 581.57 434.402 581.78 433.742 582.2C433.082 582.6 432.702 583.15 432.602 583.85H429.902C430.082 582.43 430.752 581.3 431.912 580.46C433.072 579.62 434.522 579.2 436.262 579.2C438.162 579.2 439.662 579.69 440.762 580.67C441.862 581.65 442.412 582.98 442.412 584.66V596H439.772V592.85H439.322L439.772 592.4C439.772 593.6 439.302 594.55 438.362 595.25C437.442 595.95 436.212 596.3 434.672 596.3ZM435.332 594.17C436.612 594.17 437.662 593.85 438.482 593.21C439.302 592.57 439.712 591.75 439.712 590.75V588.41H434.672C433.772 588.41 433.062 588.66 432.542 589.16C432.022 589.66 431.762 590.34 431.762 591.2C431.762 592.12 432.072 592.85 432.692 593.39C433.332 593.91 434.212 594.17 435.332 594.17ZM453.86 596.3C452.5 596.3 451.41 595.94 450.59 595.22C449.77 594.48 449.36 593.48 449.36 592.22L449.9 592.85H449.36V596H446.66V574.1H449.36V578.9L449.3 582.65H449.9L449.36 583.28C449.36 582.04 449.77 581.05 450.59 580.31C451.43 579.57 452.52 579.2 453.86 579.2C455.52 579.2 456.85 579.75 457.85 580.85C458.85 581.95 459.35 583.45 459.35 585.35V590.18C459.35 592.06 458.85 593.55 457.85 594.65C456.85 595.75 455.52 596.3 453.86 596.3ZM452.96 593.96C454.1 593.96 455 593.62 455.66 592.94C456.32 592.26 456.65 591.28 456.65 590V585.5C456.65 584.22 456.32 583.24 455.66 582.56C455 581.88 454.1 581.54 452.96 581.54C451.86 581.54 450.98 581.89 450.32 582.59C449.68 583.29 449.36 584.26 449.36 585.5V590C449.36 591.24 449.68 592.21 450.32 592.91C450.98 593.61 451.86 593.96 452.96 593.96ZM463.238 596V593.54H469.088V581.96H463.988V579.5H471.788V593.54H477.338V596H463.238ZM470.138 576.53C469.478 576.53 468.958 576.36 468.578 576.02C468.198 575.68 468.008 575.22 468.008 574.64C468.008 574.04 468.198 573.57 468.578 573.23C468.958 572.87 469.478 572.69 470.138 572.69C470.798 572.69 471.318 572.87 471.698 573.23C472.078 573.57 472.268 574.04 472.268 574.64C472.268 575.22 472.078 575.68 471.698 576.02C471.318 576.36 470.798 576.53 470.138 576.53ZM488.727 596C487.767 596 486.927 595.81 486.207 595.43C485.487 595.05 484.927 594.51 484.527 593.81C484.127 593.11 483.927 592.29 483.927 591.35V576.56H478.377V574.1H486.627V591.35C486.627 592.03 486.817 592.57 487.197 592.97C487.577 593.35 488.087 593.54 488.727 593.54H493.977V596H488.727ZM496.815 596V593.54H502.665V581.96H497.565V579.5H505.365V593.54H510.915V596H496.815ZM503.715 576.53C503.055 576.53 502.535 576.36 502.155 576.02C501.775 575.68 501.585 575.22 501.585 574.64C501.585 574.04 501.775 573.57 502.155 573.23C502.535 572.87 503.055 572.69 503.715 572.69C504.375 572.69 504.895 572.87 505.275 573.23C505.655 573.57 505.845 574.04 505.845 574.64C505.845 575.22 505.655 575.68 505.275 576.02C504.895 576.36 504.375 576.53 503.715 576.53ZM521.853 596C520.433 596 519.323 595.62 518.523 594.86C517.743 594.1 517.353 593.03 517.353 591.65V581.96H512.703V579.5H517.353V574.85H520.053V579.5H526.653V581.96H520.053V591.65C520.053 592.91 520.653 593.54 521.853 593.54H526.353V596H521.853ZM533.181 601.4L535.611 594.98L529.491 579.5H532.491L536.331 589.7C536.471 590.04 536.601 590.45 536.721 590.93C536.841 591.39 536.941 591.78 537.021 592.1C537.101 591.78 537.201 591.39 537.321 590.93C537.441 590.45 537.561 590.04 537.681 589.7L541.281 579.5H544.191L536.061 601.4H533.181Z" fill="white"/>
<path d="M50.3669 429.3C49.0469 429.3 47.8969 429.05 46.9169 428.55C45.9569 428.05 45.2069 427.33 44.6669 426.39C44.1469 425.43 43.8869 424.3 43.8869 423V413.1C43.8869 411.78 44.1469 410.65 44.6669 409.71C45.2069 408.77 45.9569 408.05 46.9169 407.55C47.8969 407.05 49.0469 406.8 50.3669 406.8C51.6869 406.8 52.8269 407.06 53.7869 407.58C54.7469 408.08 55.4869 408.8 56.0069 409.74C56.5269 410.68 56.7869 411.8 56.7869 413.1H54.0869C54.0869 411.86 53.7569 410.91 53.0969 410.25C52.4569 409.57 51.5469 409.23 50.3669 409.23C49.1869 409.23 48.2569 409.56 47.5769 410.22C46.9169 410.88 46.5869 411.83 46.5869 413.07V423C46.5869 424.24 46.9169 425.2 47.5769 425.88C48.2569 426.54 49.1869 426.87 50.3669 426.87C51.5469 426.87 52.4569 426.54 53.0969 425.88C53.7569 425.2 54.0869 424.24 54.0869 423H56.7869C56.7869 424.28 56.5269 425.4 56.0069 426.36C55.4869 427.3 54.7469 428.03 53.7869 428.55C52.8269 429.05 51.6869 429.3 50.3669 429.3ZM67.0352 429.24C65.7152 429.24 64.5752 428.99 63.6152 428.49C62.6552 427.99 61.9052 427.27 61.3652 426.33C60.8452 425.37 60.5852 424.24 60.5852 422.94V418.56C60.5852 417.24 60.8452 416.11 61.3652 415.17C61.9052 414.23 62.6552 413.51 63.6152 413.01C64.5752 412.51 65.7152 412.26 67.0352 412.26C68.3552 412.26 69.4952 412.51 70.4552 413.01C71.4152 413.51 72.1552 414.23 72.6752 415.17C73.2152 416.11 73.4852 417.23 73.4852 418.53V422.94C73.4852 424.24 73.2152 425.37 72.6752 426.33C72.1552 427.27 71.4152 427.99 70.4552 428.49C69.4952 428.99 68.3552 429.24 67.0352 429.24ZM67.0352 426.84C68.2152 426.84 69.1352 426.51 69.7952 425.85C70.4552 425.19 70.7852 424.22 70.7852 422.94V418.56C70.7852 417.28 70.4552 416.31 69.7952 415.65C69.1352 414.99 68.2152 414.66 67.0352 414.66C65.8752 414.66 64.9552 414.99 64.2752 415.65C63.6152 416.31 63.2852 417.28 63.2852 418.56V422.94C63.2852 424.22 63.6152 425.19 64.2752 425.85C64.9552 426.51 65.8752 426.84 67.0352 426.84ZM77.5834 429V412.5H80.2834V415.65H80.8534L80.2834 416.28C80.2834 414.98 80.6734 413.98 81.4534 413.28C82.2334 412.56 83.3134 412.2 84.6934 412.2C86.3534 412.2 87.6734 412.71 88.6534 413.73C89.6334 414.75 90.1234 416.14 90.1234 417.9V429H87.4234V418.2C87.4234 417.02 87.1034 416.12 86.4634 415.5C85.8434 414.86 84.9934 414.54 83.9134 414.54C82.7934 414.54 81.9034 414.88 81.2434 415.56C80.6034 416.24 80.2834 417.22 80.2834 418.5V429H77.5834ZM98.2117 429V416.61H93.4117V414.15H98.2117V411.3C98.2117 410 98.6217 408.98 99.4417 408.24C100.262 407.48 101.392 407.1 102.832 407.1H107.662V409.56H102.832C102.212 409.56 101.732 409.71 101.392 410.01C101.072 410.29 100.912 410.72 100.912 411.3V414.15H107.662V416.61H100.912V429H98.2117ZM119.65 429C118.69 429 117.85 428.81 117.13 428.43C116.41 428.05 115.85 427.51 115.45 426.81C115.05 426.11 114.85 425.29 114.85 424.35V409.56H109.3V407.1H117.55V424.35C117.55 425.03 117.74 425.57 118.12 425.97C118.5 426.35 119.01 426.54 119.65 426.54H124.9V429H119.65ZM127.738 429V426.54H133.588V414.96H128.488V412.5H136.288V426.54H141.838V429H127.738ZM134.638 409.53C133.978 409.53 133.458 409.36 133.078 409.02C132.698 408.68 132.508 408.22 132.508 407.64C132.508 407.04 132.698 406.57 133.078 406.23C133.458 405.87 133.978 405.69 134.638 405.69C135.298 405.69 135.818 405.87 136.198 406.23C136.578 406.57 136.768 407.04 136.768 407.64C136.768 408.22 136.578 408.68 136.198 409.02C135.818 409.36 135.298 409.53 134.638 409.53ZM151.097 429.3C149.777 429.3 148.617 429.05 147.617 428.55C146.637 428.05 145.877 427.33 145.337 426.39C144.797 425.43 144.527 424.3 144.527 423V418.5C144.527 417.18 144.797 416.05 145.337 415.11C145.877 414.17 146.637 413.45 147.617 412.95C148.617 412.45 149.777 412.2 151.097 412.2C152.997 412.2 154.527 412.71 155.687 413.73C156.847 414.75 157.457 416.14 157.517 417.9H154.817C154.757 416.84 154.397 416.03 153.737 415.47C153.097 414.89 152.217 414.6 151.097 414.6C149.917 414.6 148.977 414.94 148.277 415.62C147.577 416.28 147.227 417.23 147.227 418.47V423C147.227 424.24 147.577 425.2 148.277 425.88C148.977 426.56 149.917 426.9 151.097 426.9C152.217 426.9 153.097 426.61 153.737 426.03C154.397 425.45 154.757 424.64 154.817 423.6H157.517C157.457 425.36 156.847 426.75 155.687 427.77C154.527 428.79 152.997 429.3 151.097 429.3ZM169.565 429C168.145 429 167.035 428.62 166.235 427.86C165.455 427.1 165.065 426.03 165.065 424.65V414.96H160.415V412.5H165.065V407.85H167.765V412.5H174.365V414.96H167.765V424.65C167.765 425.91 168.365 426.54 169.565 426.54H174.065V429H169.565ZM27.2186 469V447.1H33.9986C35.2986 447.1 36.4386 447.37 37.4186 447.91C38.3986 448.43 39.1586 449.16 39.6986 450.1C40.2386 451.04 40.5086 452.14 40.5086 453.4C40.5086 454.88 40.1186 456.15 39.3386 457.21C38.5786 458.27 37.5386 459 36.2186 459.4L40.8086 469H37.6286L33.4286 459.7H29.9186V469H27.2186ZM29.9186 457.27H33.9986C35.1186 457.27 36.0186 456.92 36.6986 456.22C37.3786 455.5 37.7186 454.56 37.7186 453.4C37.7186 452.22 37.3786 451.28 36.6986 450.58C36.0186 449.88 35.1186 449.53 33.9986 449.53H29.9186V457.27ZM50.2469 469.3C48.9469 469.3 47.8069 469.04 46.8269 468.52C45.8669 468 45.1169 467.27 44.5769 466.33C44.0569 465.37 43.7969 464.26 43.7969 463V458.5C43.7969 457.22 44.0569 456.11 44.5769 455.17C45.1169 454.23 45.8669 453.5 46.8269 452.98C47.8069 452.46 48.9469 452.2 50.2469 452.2C51.5469 452.2 52.6769 452.46 53.6369 452.98C54.6169 453.5 55.3669 454.23 55.8869 455.17C56.4269 456.11 56.6969 457.22 56.6969 458.5V461.41H46.4369V463C46.4369 464.3 46.7669 465.3 47.4269 466C48.0869 466.68 49.0269 467.02 50.2469 467.02C51.2869 467.02 52.1269 466.84 52.7669 466.48C53.4069 466.1 53.7969 465.54 53.9369 464.8H56.6369C56.4569 466.18 55.7769 467.28 54.5969 468.1C53.4369 468.9 51.9869 469.3 50.2469 469.3ZM54.0569 459.61V458.5C54.0569 457.2 53.7269 456.2 53.0669 455.5C52.4269 454.8 51.4869 454.45 50.2469 454.45C49.0269 454.45 48.0869 454.8 47.4269 455.5C46.7669 456.2 46.4369 457.2 46.4369 458.5V459.37H54.2669L54.0569 459.61ZM66.5252 469.24C65.4052 469.24 64.4252 469.07 63.5852 468.73C62.7652 468.37 62.1052 467.87 61.6052 467.23C61.1252 466.59 60.8352 465.83 60.7352 464.95H63.4352C63.5552 465.53 63.8752 465.99 64.3952 466.33C64.9352 466.67 65.6452 466.84 66.5252 466.84H67.7852C68.8452 466.84 69.6352 466.63 70.1552 466.21C70.6752 465.77 70.9352 465.19 70.9352 464.47C70.9352 463.77 70.6952 463.22 70.2152 462.82C69.7552 462.4 69.0652 462.12 68.1452 461.98L65.9252 461.62C64.3052 461.34 63.0952 460.84 62.2952 460.12C61.5152 459.38 61.1252 458.31 61.1252 456.91C61.1252 455.43 61.5952 454.29 62.5352 453.49C63.4752 452.67 64.8852 452.26 66.7652 452.26H67.9052C69.4852 452.26 70.7552 452.63 71.7152 453.37C72.6752 454.11 73.2552 455.11 73.4552 456.37H70.7552C70.6352 455.85 70.3352 455.44 69.8552 455.14C69.3752 454.82 68.7252 454.66 67.9052 454.66H66.7652C65.7452 454.66 64.9952 454.85 64.5152 455.23C64.0552 455.61 63.8252 456.18 63.8252 456.94C63.8252 457.62 64.0252 458.12 64.4252 458.44C64.8252 458.76 65.4552 458.99 66.3152 459.13L68.5352 459.49C70.3152 459.77 71.6052 460.29 72.4052 461.05C73.2252 461.81 73.6352 462.91 73.6352 464.35C73.6352 465.87 73.1452 467.07 72.1652 467.95C71.2052 468.81 69.7452 469.24 67.7852 469.24H66.5252ZM83.8234 469.24C82.5034 469.24 81.3634 468.99 80.4034 468.49C79.4434 467.99 78.6934 467.27 78.1534 466.33C77.6334 465.37 77.3734 464.24 77.3734 462.94V458.56C77.3734 457.24 77.6334 456.11 78.1534 455.17C78.6934 454.23 79.4434 453.51 80.4034 453.01C81.3634 452.51 82.5034 452.26 83.8234 452.26C85.1434 452.26 86.2834 452.51 87.2434 453.01C88.2034 453.51 88.9434 454.23 89.4634 455.17C90.0034 456.11 90.2734 457.23 90.2734 458.53V462.94C90.2734 464.24 90.0034 465.37 89.4634 466.33C88.9434 467.27 88.2034 467.99 87.2434 468.49C86.2834 468.99 85.1434 469.24 83.8234 469.24ZM83.8234 466.84C85.0034 466.84 85.9234 466.51 86.5834 465.85C87.2434 465.19 87.5734 464.22 87.5734 462.94V458.56C87.5734 457.28 87.2434 456.31 86.5834 455.65C85.9234 454.99 85.0034 454.66 83.8234 454.66C82.6634 454.66 81.7434 454.99 81.0634 455.65C80.4034 456.31 80.0734 457.28 80.0734 458.56V462.94C80.0734 464.22 80.4034 465.19 81.0634 465.85C81.7434 466.51 82.6634 466.84 83.8234 466.84ZM102.862 469C101.902 469 101.062 468.81 100.342 468.43C99.6217 468.05 99.0617 467.51 98.6617 466.81C98.2617 466.11 98.0617 465.29 98.0617 464.35V449.56H92.5117V447.1H100.762V464.35C100.762 465.03 100.952 465.57 101.332 465.97C101.712 466.35 102.222 466.54 102.862 466.54H108.112V469H102.862ZM117.37 469.3C115.47 469.3 113.95 468.74 112.81 467.62C111.67 466.48 111.1 464.94 111.1 463V452.5H113.8V463C113.8 464.24 114.12 465.21 114.76 465.91C115.4 466.59 116.27 466.93 117.37 466.93C118.49 466.93 119.37 466.59 120.01 465.91C120.67 465.21 121 464.24 121 463V452.5H123.7V463C123.7 464.94 123.12 466.48 121.96 467.62C120.8 468.74 119.27 469.3 117.37 469.3ZM135.988 469C134.568 469 133.458 468.62 132.658 467.86C131.878 467.1 131.488 466.03 131.488 464.65V454.96H126.838V452.5H131.488V447.85H134.188V452.5H140.788V454.96H134.188V464.65C134.188 465.91 134.788 466.54 135.988 466.54H140.488V469H135.988ZM144.527 469V466.54H150.377V454.96H145.277V452.5H153.077V466.54H158.627V469H144.527ZM151.427 449.53C150.767 449.53 150.247 449.36 149.867 449.02C149.487 448.68 149.297 448.22 149.297 447.64C149.297 447.04 149.487 446.57 149.867 446.23C150.247 445.87 150.767 445.69 151.427 445.69C152.087 445.69 152.607 445.87 152.987 446.23C153.367 446.57 153.557 447.04 153.557 447.64C153.557 448.22 153.367 448.68 152.987 449.02C152.607 449.36 152.087 449.53 151.427 449.53ZM167.765 469.24C166.445 469.24 165.305 468.99 164.345 468.49C163.385 467.99 162.635 467.27 162.095 466.33C161.575 465.37 161.315 464.24 161.315 462.94V458.56C161.315 457.24 161.575 456.11 162.095 455.17C162.635 454.23 163.385 453.51 164.345 453.01C165.305 452.51 166.445 452.26 167.765 452.26C169.085 452.26 170.225 452.51 171.185 453.01C172.145 453.51 172.885 454.23 173.405 455.17C173.945 456.11 174.215 457.23 174.215 458.53V462.94C174.215 464.24 173.945 465.37 173.405 466.33C172.885 467.27 172.145 467.99 171.185 468.49C170.225 468.99 169.085 469.24 167.765 469.24ZM167.765 466.84C168.945 466.84 169.865 466.51 170.525 465.85C171.185 465.19 171.515 464.22 171.515 462.94V458.56C171.515 457.28 171.185 456.31 170.525 455.65C169.865 454.99 168.945 454.66 167.765 454.66C166.605 454.66 165.685 454.99 165.005 455.65C164.345 456.31 164.015 457.28 164.015 458.56V462.94C164.015 464.22 164.345 465.19 165.005 465.85C165.685 466.51 166.605 466.84 167.765 466.84ZM178.313 469V452.5H181.013V455.65H181.583L181.013 456.28C181.013 454.98 181.403 453.98 182.183 453.28C182.963 452.56 184.043 452.2 185.423 452.2C187.083 452.2 188.403 452.71 189.383 453.73C190.363 454.75 190.853 456.14 190.853 457.9V469H188.153V458.2C188.153 457.02 187.833 456.12 187.193 455.5C186.573 454.86 185.723 454.54 184.643 454.54C183.523 454.54 182.633 454.88 181.973 455.56C181.333 456.24 181.013 457.22 181.013 458.5V469H178.313Z" fill="white"/>
<path d="M707.353 429V407.1H719.953V409.56H710.023V416.34H718.903V418.77H710.023V426.54H719.953V429H707.353ZM723.121 429V412.5H725.491V414.48H726.031L725.611 415.2C725.611 414.28 725.851 413.55 726.331 413.01C726.831 412.47 727.501 412.2 728.341 412.2C729.261 412.2 729.971 412.54 730.471 413.22C730.971 413.9 731.221 414.86 731.221 416.1L730.411 414.48H731.671L731.101 415.2C731.101 414.28 731.351 413.55 731.851 413.01C732.371 412.47 733.051 412.2 733.891 412.2C734.931 412.2 735.731 412.59 736.291 413.37C736.871 414.15 737.161 415.18 737.161 416.46V429H734.671V416.43C734.671 415.75 734.521 415.22 734.221 414.84C733.941 414.46 733.521 414.27 732.961 414.27C732.421 414.27 731.991 414.46 731.671 414.84C731.371 415.2 731.221 415.72 731.221 416.4V429H729.061V416.43C729.061 415.73 728.901 415.2 728.581 414.84C728.281 414.46 727.851 414.27 727.291 414.27C726.731 414.27 726.311 414.46 726.031 414.84C725.751 415.2 725.611 415.72 725.611 416.4V429H723.121ZM746.929 429.24C745.609 429.24 744.469 428.99 743.509 428.49C742.549 427.99 741.799 427.27 741.259 426.33C740.739 425.37 740.479 424.24 740.479 422.94V418.56C740.479 417.24 740.739 416.11 741.259 415.17C741.799 414.23 742.549 413.51 743.509 413.01C744.469 412.51 745.609 412.26 746.929 412.26C748.249 412.26 749.389 412.51 750.349 413.01C751.309 413.51 752.049 414.23 752.569 415.17C753.109 416.11 753.379 417.23 753.379 418.53V422.94C753.379 424.24 753.109 425.37 752.569 426.33C752.049 427.27 751.309 427.99 750.349 428.49C749.389 428.99 748.249 429.24 746.929 429.24ZM746.929 426.84C748.109 426.84 749.029 426.51 749.689 425.85C750.349 425.19 750.679 424.22 750.679 422.94V418.56C750.679 417.28 750.349 416.31 749.689 415.65C749.029 414.99 748.109 414.66 746.929 414.66C745.769 414.66 744.849 414.99 744.169 415.65C743.509 416.31 743.179 417.28 743.179 418.56V422.94C743.179 424.22 743.509 425.19 744.169 425.85C744.849 426.51 745.769 426.84 746.929 426.84ZM765.518 429C764.098 429 762.988 428.62 762.188 427.86C761.408 427.1 761.018 426.03 761.018 424.65V414.96H756.368V412.5H761.018V407.85H763.718V412.5H770.318V414.96H763.718V424.65C763.718 425.91 764.318 426.54 765.518 426.54H770.018V429H765.518ZM774.056 429V426.54H779.906V414.96H774.806V412.5H782.606V426.54H788.156V429H774.056ZM780.956 409.53C780.296 409.53 779.776 409.36 779.396 409.02C779.016 408.68 778.826 408.22 778.826 407.64C778.826 407.04 779.016 406.57 779.396 406.23C779.776 405.87 780.296 405.69 780.956 405.69C781.616 405.69 782.136 405.87 782.516 406.23C782.896 406.57 783.086 407.04 783.086 407.64C783.086 408.22 782.896 408.68 782.516 409.02C782.136 409.36 781.616 409.53 780.956 409.53ZM797.294 429.24C795.974 429.24 794.834 428.99 793.874 428.49C792.914 427.99 792.164 427.27 791.624 426.33C791.104 425.37 790.844 424.24 790.844 422.94V418.56C790.844 417.24 791.104 416.11 791.624 415.17C792.164 414.23 792.914 413.51 793.874 413.01C794.834 412.51 795.974 412.26 797.294 412.26C798.614 412.26 799.754 412.51 800.714 413.01C801.674 413.51 802.414 414.23 802.934 415.17C803.474 416.11 803.744 417.23 803.744 418.53V422.94C803.744 424.24 803.474 425.37 802.934 426.33C802.414 427.27 801.674 427.99 800.714 428.49C799.754 428.99 798.614 429.24 797.294 429.24ZM797.294 426.84C798.474 426.84 799.394 426.51 800.054 425.85C800.714 425.19 801.044 424.22 801.044 422.94V418.56C801.044 417.28 800.714 416.31 800.054 415.65C799.394 414.99 798.474 414.66 797.294 414.66C796.134 414.66 795.214 414.99 794.534 415.65C793.874 416.31 793.544 417.28 793.544 418.56V422.94C793.544 424.22 793.874 425.19 794.534 425.85C795.214 426.51 796.134 426.84 797.294 426.84ZM807.842 429V412.5H810.542V415.65H811.112L810.542 416.28C810.542 414.98 810.932 413.98 811.712 413.28C812.492 412.56 813.572 412.2 814.952 412.2C816.612 412.2 817.932 412.71 818.912 413.73C819.892 414.75 820.382 416.14 820.382 417.9V429H817.682V418.2C817.682 417.02 817.362 416.12 816.722 415.5C816.102 414.86 815.252 414.54 814.172 414.54C813.052 414.54 812.162 414.88 811.502 415.56C810.862 416.24 810.542 417.22 810.542 418.5V429H807.842ZM829.431 429.3C827.691 429.3 826.321 428.86 825.321 427.98C824.321 427.08 823.821 425.87 823.821 424.35C823.821 422.81 824.321 421.6 825.321 420.72C826.321 419.84 827.671 419.4 829.371 419.4H834.471V417.75C834.471 416.73 834.161 415.95 833.541 415.41C832.941 414.85 832.081 414.57 830.961 414.57C829.981 414.57 829.161 414.78 828.501 415.2C827.841 415.6 827.461 416.15 827.361 416.85H824.661C824.841 415.43 825.511 414.3 826.671 413.46C827.831 412.62 829.281 412.2 831.021 412.2C832.921 412.2 834.421 412.69 835.521 413.67C836.621 414.65 837.171 415.98 837.171 417.66V429H834.531V425.85H834.081L834.531 425.4C834.531 426.6 834.061 427.55 833.121 428.25C832.201 428.95 830.971 429.3 829.431 429.3ZM830.091 427.17C831.371 427.17 832.421 426.85 833.241 426.21C834.061 425.57 834.471 424.75 834.471 423.75V421.41H829.431C828.531 421.41 827.821 421.66 827.301 422.16C826.781 422.66 826.521 423.34 826.521 424.2C826.521 425.12 826.831 425.85 827.451 426.39C828.091 426.91 828.971 427.17 830.091 427.17ZM849.909 429C848.949 429 848.109 428.81 847.389 428.43C846.669 428.05 846.109 427.51 845.709 426.81C845.309 426.11 845.109 425.29 845.109 424.35V409.56H839.559V407.1H847.809V424.35C847.809 425.03 847.999 425.57 848.379 425.97C848.759 426.35 849.269 426.54 849.909 426.54H855.159V429H849.909ZM682.32 469V466.54H686.79V449.56H682.32V447.1H694.02V449.56H689.55V466.54H694.02V469H682.32ZM698.719 469V452.5H701.419V455.65H701.989L701.419 456.28C701.419 454.98 701.809 453.98 702.589 453.28C703.369 452.56 704.449 452.2 705.829 452.2C707.489 452.2 708.809 452.71 709.789 453.73C710.769 454.75 711.259 456.14 711.259 457.9V469H708.559V458.2C708.559 457.02 708.239 456.12 707.599 455.5C706.979 454.86 706.129 454.54 705.049 454.54C703.929 454.54 703.039 454.88 702.379 455.56C701.739 456.24 701.419 457.22 701.419 458.5V469H698.719ZM723.547 469C722.127 469 721.017 468.62 720.217 467.86C719.437 467.1 719.047 466.03 719.047 464.65V454.96H714.397V452.5H719.047V447.85H721.747V452.5H728.347V454.96H721.747V464.65C721.747 465.91 722.347 466.54 723.547 466.54H728.047V469H723.547ZM738.535 469.3C737.235 469.3 736.095 469.04 735.115 468.52C734.155 468 733.405 467.27 732.865 466.33C732.345 465.37 732.085 464.26 732.085 463V458.5C732.085 457.22 732.345 456.11 732.865 455.17C733.405 454.23 734.155 453.5 735.115 452.98C736.095 452.46 737.235 452.2 738.535 452.2C739.835 452.2 740.965 452.46 741.925 452.98C742.905 453.5 743.655 454.23 744.175 455.17C744.715 456.11 744.985 457.22 744.985 458.5V461.41H734.725V463C734.725 464.3 735.055 465.3 735.715 466C736.375 466.68 737.315 467.02 738.535 467.02C739.575 467.02 740.415 466.84 741.055 466.48C741.695 466.1 742.085 465.54 742.225 464.8H744.925C744.745 466.18 744.065 467.28 742.885 468.1C741.725 468.9 740.275 469.3 738.535 469.3ZM742.345 459.61V458.5C742.345 457.2 742.015 456.2 741.355 455.5C740.715 454.8 739.775 454.45 738.535 454.45C737.315 454.45 736.375 454.8 735.715 455.5C735.055 456.2 734.725 457.2 734.725 458.5V459.37H742.555L742.345 459.61ZM757.573 469C756.613 469 755.773 468.81 755.053 468.43C754.333 468.05 753.773 467.51 753.373 466.81C752.973 466.11 752.773 465.29 752.773 464.35V449.56H747.223V447.1H755.473V464.35C755.473 465.03 755.663 465.57 756.043 465.97C756.423 466.35 756.933 466.54 757.573 466.54H762.823V469H757.573ZM774.362 469C773.402 469 772.562 468.81 771.842 468.43C771.122 468.05 770.562 467.51 770.162 466.81C769.762 466.11 769.562 465.29 769.562 464.35V449.56H764.012V447.1H772.262V464.35C772.262 465.03 772.452 465.57 772.832 465.97C773.212 466.35 773.722 466.54 774.362 466.54H779.612V469H774.362ZM782.45 469V466.54H788.3V454.96H783.2V452.5H791V466.54H796.55V469H782.45ZM789.35 449.53C788.69 449.53 788.17 449.36 787.79 449.02C787.41 448.68 787.22 448.22 787.22 447.64C787.22 447.04 787.41 446.57 787.79 446.23C788.17 445.87 788.69 445.69 789.35 445.69C790.01 445.69 790.53 445.87 790.91 446.23C791.29 446.57 791.48 447.04 791.48 447.64C791.48 448.22 791.29 448.68 790.91 449.02C790.53 449.36 790.01 449.53 789.35 449.53ZM801.518 474.4V471.94H806.768C807.608 471.94 808.218 471.75 808.598 471.37C808.998 470.99 809.198 470.4 809.198 469.6V467.5L809.258 464.5H808.718L809.228 464.05C809.228 465.25 808.828 466.2 808.028 466.9C807.228 467.6 806.158 467.95 804.818 467.95C803.118 467.95 801.778 467.4 800.798 466.3C799.818 465.18 799.328 463.68 799.328 461.8V458.32C799.328 456.44 799.818 454.95 800.798 453.85C801.778 452.75 803.118 452.2 804.818 452.2C806.158 452.2 807.228 452.55 808.028 453.25C808.828 453.95 809.228 454.9 809.228 456.1L808.718 455.65H809.228V452.5H811.898V469.6C811.898 471.08 811.438 472.25 810.518 473.11C809.618 473.97 808.358 474.4 806.738 474.4H801.518ZM805.628 465.61C806.748 465.61 807.628 465.26 808.268 464.56C808.908 463.86 809.228 462.89 809.228 461.65V458.5C809.228 457.26 808.908 456.29 808.268 455.59C807.628 454.89 806.748 454.54 805.628 454.54C804.488 454.54 803.598 454.88 802.958 455.56C802.338 456.24 802.028 457.22 802.028 458.5V461.65C802.028 462.93 802.338 463.91 802.958 464.59C803.598 465.27 804.488 465.61 805.628 465.61ZM822.477 469.3C821.177 469.3 820.037 469.04 819.057 468.52C818.097 468 817.347 467.27 816.807 466.33C816.287 465.37 816.027 464.26 816.027 463V458.5C816.027 457.22 816.287 456.11 816.807 455.17C817.347 454.23 818.097 453.5 819.057 452.98C820.037 452.46 821.177 452.2 822.477 452.2C823.777 452.2 824.907 452.46 825.867 452.98C826.847 453.5 827.597 454.23 828.117 455.17C828.657 456.11 828.927 457.22 828.927 458.5V461.41H818.667V463C818.667 464.3 818.997 465.3 819.657 466C820.317 466.68 821.257 467.02 822.477 467.02C823.517 467.02 824.357 466.84 824.997 466.48C825.637 466.1 826.027 465.54 826.167 464.8H828.867C828.687 466.18 828.007 467.28 826.827 468.1C825.667 468.9 824.217 469.3 822.477 469.3ZM826.287 459.61V458.5C826.287 457.2 825.957 456.2 825.297 455.5C824.657 454.8 823.717 454.45 822.477 454.45C821.257 454.45 820.317 454.8 819.657 455.5C818.997 456.2 818.667 457.2 818.667 458.5V459.37H826.497L826.287 459.61ZM833.025 469V452.5H835.725V455.65H836.295L835.725 456.28C835.725 454.98 836.115 453.98 836.895 453.28C837.675 452.56 838.755 452.2 840.135 452.2C841.795 452.2 843.115 452.71 844.095 453.73C845.075 454.75 845.565 456.14 845.565 457.9V469H842.865V458.2C842.865 457.02 842.545 456.12 841.905 455.5C841.285 454.86 840.435 454.54 839.355 454.54C838.235 454.54 837.345 454.88 836.685 455.56C836.045 456.24 835.725 457.22 835.725 458.5V469H833.025ZM856.173 469.3C854.853 469.3 853.693 469.05 852.693 468.55C851.713 468.05 850.953 467.33 850.413 466.39C849.873 465.43 849.603 464.3 849.603 463V458.5C849.603 457.18 849.873 456.05 850.413 455.11C850.953 454.17 851.713 453.45 852.693 452.95C853.693 452.45 854.853 452.2 856.173 452.2C858.073 452.2 859.603 452.71 860.763 453.73C861.923 454.75 862.533 456.14 862.593 457.9H859.893C859.833 456.84 859.473 456.03 858.813 455.47C858.173 454.89 857.293 454.6 856.173 454.6C854.993 454.6 854.053 454.94 853.353 455.62C852.653 456.28 852.303 457.23 852.303 458.47V463C852.303 464.24 852.653 465.2 853.353 465.88C854.053 466.56 854.993 466.9 856.173 466.9C857.293 466.9 858.173 466.61 858.813 466.03C859.473 465.45 859.833 464.64 859.893 463.6H862.593C862.533 465.36 861.923 466.75 860.763 467.77C859.603 468.79 858.073 469.3 856.173 469.3ZM872.841 469.3C871.541 469.3 870.401 469.04 869.421 468.52C868.461 468 867.711 467.27 867.171 466.33C866.651 465.37 866.391 464.26 866.391 463V458.5C866.391 457.22 866.651 456.11 867.171 455.17C867.711 454.23 868.461 453.5 869.421 452.98C870.401 452.46 871.541 452.2 872.841 452.2C874.141 452.2 875.271 452.46 876.231 452.98C877.211 453.5 877.961 454.23 878.481 455.17C879.021 456.11 879.291 457.22 879.291 458.5V461.41H869.031V463C869.031 464.3 869.361 465.3 870.021 466C870.681 466.68 871.621 467.02 872.841 467.02C873.881 467.02 874.721 466.84 875.361 466.48C876.001 466.1 876.391 465.54 876.531 464.8H879.231C879.051 466.18 878.371 467.28 877.191 468.1C876.031 468.9 874.581 469.3 872.841 469.3ZM876.651 459.61V458.5C876.651 457.2 876.321 456.2 875.661 455.5C875.021 454.8 874.081 454.45 872.841 454.45C871.621 454.45 870.681 454.8 870.021 455.5C869.361 456.2 869.031 457.2 869.031 458.5V459.37H876.861L876.651 459.61Z" fill="white"/>
<path d="M9.49618 197.3C8.17618 197.3 7.02618 197.05 6.04618 196.55C5.08618 196.05 4.33618 195.33 3.79618 194.39C3.27618 193.43 3.01618 192.3 3.01618 191V181.1C3.01618 179.78 3.27618 178.65 3.79618 177.71C4.33618 176.77 5.08618 176.05 6.04618 175.55C7.02618 175.05 8.17618 174.8 9.49618 174.8C10.8162 174.8 11.9562 175.06 12.9162 175.58C13.8762 176.08 14.6162 176.8 15.1362 177.74C15.6562 178.68 15.9162 179.8 15.9162 181.1H13.2162C13.2162 179.86 12.8862 178.91 12.2262 178.25C11.5862 177.57 10.6762 177.23 9.49618 177.23C8.31618 177.23 7.38618 177.56 6.70618 178.22C6.04618 178.88 5.71618 179.83 5.71618 181.07V191C5.71618 192.24 6.04618 193.2 6.70618 193.88C7.38618 194.54 8.31618 194.87 9.49618 194.87C10.6762 194.87 11.5862 194.54 12.2262 193.88C12.8862 193.2 13.2162 192.24 13.2162 191H15.9162C15.9162 192.28 15.6562 193.4 15.1362 194.36C14.6162 195.3 13.8762 196.03 12.9162 196.55C11.9562 197.05 10.8162 197.3 9.49618 197.3ZM26.1645 197.24C24.8445 197.24 23.7045 196.99 22.7445 196.49C21.7845 195.99 21.0345 195.27 20.4945 194.33C19.9745 193.37 19.7145 192.24 19.7145 190.94V186.56C19.7145 185.24 19.9745 184.11 20.4945 183.17C21.0345 182.23 21.7845 181.51 22.7445 181.01C23.7045 180.51 24.8445 180.26 26.1645 180.26C27.4845 180.26 28.6245 180.51 29.5845 181.01C30.5445 181.51 31.2845 182.23 31.8045 183.17C32.3445 184.11 32.6145 185.23 32.6145 186.53V190.94C32.6145 192.24 32.3445 193.37 31.8045 194.33C31.2845 195.27 30.5445 195.99 29.5845 196.49C28.6245 196.99 27.4845 197.24 26.1645 197.24ZM26.1645 194.84C27.3445 194.84 28.2645 194.51 28.9245 193.85C29.5845 193.19 29.9145 192.22 29.9145 190.94V186.56C29.9145 185.28 29.5845 184.31 28.9245 183.65C28.2645 182.99 27.3445 182.66 26.1645 182.66C25.0045 182.66 24.0845 182.99 23.4045 183.65C22.7445 184.31 22.4145 185.28 22.4145 186.56V190.94C22.4145 192.22 22.7445 193.19 23.4045 193.85C24.0845 194.51 25.0045 194.84 26.1645 194.84ZM35.9327 197V180.5H38.3027V182.48H38.8427L38.4227 183.2C38.4227 182.28 38.6627 181.55 39.1427 181.01C39.6427 180.47 40.3127 180.2 41.1527 180.2C42.0727 180.2 42.7827 180.54 43.2827 181.22C43.7827 181.9 44.0327 182.86 44.0327 184.1L43.2227 182.48H44.4827L43.9127 183.2C43.9127 182.28 44.1627 181.55 44.6627 181.01C45.1827 180.47 45.8627 180.2 46.7027 180.2C47.7427 180.2 48.5427 180.59 49.1027 181.37C49.6827 182.15 49.9727 183.18 49.9727 184.46V197H47.4827V184.43C47.4827 183.75 47.3327 183.22 47.0327 182.84C46.7527 182.46 46.3327 182.27 45.7727 182.27C45.2327 182.27 44.8027 182.46 44.4827 182.84C44.1827 183.2 44.0327 183.72 44.0327 184.4V197H41.8727V184.43C41.8727 183.73 41.7127 183.2 41.3927 182.84C41.0927 182.46 40.6627 182.27 40.1027 182.27C39.5427 182.27 39.1227 182.46 38.8427 182.84C38.5627 183.2 38.4227 183.72 38.4227 184.4V197H35.9327ZM52.721 197V180.5H55.091V182.48H55.631L55.211 183.2C55.211 182.28 55.451 181.55 55.931 181.01C56.431 180.47 57.101 180.2 57.941 180.2C58.861 180.2 59.571 180.54 60.071 181.22C60.571 181.9 60.821 182.86 60.821 184.1L60.011 182.48H61.271L60.701 183.2C60.701 182.28 60.951 181.55 61.451 181.01C61.971 180.47 62.651 180.2 63.491 180.2C64.531 180.2 65.331 180.59 65.891 181.37C66.471 182.15 66.761 183.18 66.761 184.46V197H64.271V184.43C64.271 183.75 64.121 183.22 63.821 182.84C63.541 182.46 63.121 182.27 62.561 182.27C62.021 182.27 61.591 182.46 61.271 182.84C60.971 183.2 60.821 183.72 60.821 184.4V197H58.661V184.43C58.661 183.73 58.501 183.2 58.181 182.84C57.881 182.46 57.451 182.27 56.891 182.27C56.331 182.27 55.911 182.46 55.631 182.84C55.351 183.2 55.211 183.72 55.211 184.4V197H52.721ZM76.4993 197.3C74.5993 197.3 73.0793 196.74 71.9393 195.62C70.7993 194.48 70.2293 192.94 70.2293 191V180.5H72.9293V191C72.9293 192.24 73.2493 193.21 73.8893 193.91C74.5293 194.59 75.3993 194.93 76.4993 194.93C77.6193 194.93 78.4993 194.59 79.1393 193.91C79.7993 193.21 80.1293 192.24 80.1293 191V180.5H82.8293V191C82.8293 192.94 82.2493 194.48 81.0893 195.62C79.9293 196.74 78.3993 197.3 76.4993 197.3ZM87.0776 197V180.5H89.7776V183.65H90.3476L89.7776 184.28C89.7776 182.98 90.1676 181.98 90.9476 181.28C91.7276 180.56 92.8076 180.2 94.1876 180.2C95.8476 180.2 97.1676 180.71 98.1476 181.73C99.1276 182.75 99.6176 184.14 99.6176 185.9V197H96.9176V186.2C96.9176 185.02 96.5976 184.12 95.9576 183.5C95.3376 182.86 94.4876 182.54 93.4076 182.54C92.2876 182.54 91.3976 182.88 90.7376 183.56C90.0976 184.24 89.7776 185.22 89.7776 186.5V197H87.0776ZM103.656 197V194.54H109.506V182.96H104.406V180.5H112.206V194.54H117.756V197H103.656ZM110.556 177.53C109.896 177.53 109.376 177.36 108.996 177.02C108.616 176.68 108.426 176.22 108.426 175.64C108.426 175.04 108.616 174.57 108.996 174.23C109.376 173.87 109.896 173.69 110.556 173.69C111.216 173.69 111.736 173.87 112.116 174.23C112.496 174.57 112.686 175.04 112.686 175.64C112.686 176.22 112.496 176.68 112.116 177.02C111.736 177.36 111.216 177.53 110.556 177.53ZM127.014 197.3C125.694 197.3 124.534 197.05 123.534 196.55C122.554 196.05 121.794 195.33 121.254 194.39C120.714 193.43 120.444 192.3 120.444 191V186.5C120.444 185.18 120.714 184.05 121.254 183.11C121.794 182.17 122.554 181.45 123.534 180.95C124.534 180.45 125.694 180.2 127.014 180.2C128.914 180.2 130.444 180.71 131.604 181.73C132.764 182.75 133.374 184.14 133.434 185.9H130.734C130.674 184.84 130.314 184.03 129.654 183.47C129.014 182.89 128.134 182.6 127.014 182.6C125.834 182.6 124.894 182.94 124.194 183.62C123.494 184.28 123.144 185.23 123.144 186.47V191C123.144 192.24 123.494 193.2 124.194 193.88C124.894 194.56 125.834 194.9 127.014 194.9C128.134 194.9 129.014 194.61 129.654 194.03C130.314 193.45 130.674 192.64 130.734 191.6H133.434C133.374 193.36 132.764 194.75 131.604 195.77C130.444 196.79 128.914 197.3 127.014 197.3ZM142.242 197.3C140.502 197.3 139.132 196.86 138.132 195.98C137.132 195.08 136.632 193.87 136.632 192.35C136.632 190.81 137.132 189.6 138.132 188.72C139.132 187.84 140.482 187.4 142.182 187.4H147.282V185.75C147.282 184.73 146.972 183.95 146.352 183.41C145.752 182.85 144.892 182.57 143.772 182.57C142.792 182.57 141.972 182.78 141.312 183.2C140.652 183.6 140.272 184.15 140.172 184.85H137.472C137.652 183.43 138.322 182.3 139.482 181.46C140.642 180.62 142.092 180.2 143.832 180.2C145.732 180.2 147.232 180.69 148.332 181.67C149.432 182.65 149.982 183.98 149.982 185.66V197H147.342V193.85H146.892L147.342 193.4C147.342 194.6 146.872 195.55 145.932 196.25C145.012 196.95 143.782 197.3 142.242 197.3ZM142.902 195.17C144.182 195.17 145.232 194.85 146.052 194.21C146.872 193.57 147.282 192.75 147.282 191.75V189.41H142.242C141.342 189.41 140.632 189.66 140.112 190.16C139.592 190.66 139.332 191.34 139.332 192.2C139.332 193.12 139.642 193.85 140.262 194.39C140.902 194.91 141.782 195.17 142.902 195.17ZM162.271 197C160.851 197 159.741 196.62 158.941 195.86C158.161 195.1 157.771 194.03 157.771 192.65V182.96H153.121V180.5H157.771V175.85H160.471V180.5H167.071V182.96H160.471V192.65C160.471 193.91 161.071 194.54 162.271 194.54H166.771V197H162.271ZM170.809 197V194.54H176.659V182.96H171.559V180.5H179.359V194.54H184.909V197H170.809ZM177.709 177.53C177.049 177.53 176.529 177.36 176.149 177.02C175.769 176.68 175.579 176.22 175.579 175.64C175.579 175.04 175.769 174.57 176.149 174.23C176.529 173.87 177.049 173.69 177.709 173.69C178.369 173.69 178.889 173.87 179.269 174.23C179.649 174.57 179.839 175.04 179.839 175.64C179.839 176.22 179.649 176.68 179.269 177.02C178.889 177.36 178.369 177.53 177.709 177.53ZM194.047 197.24C192.727 197.24 191.587 196.99 190.627 196.49C189.667 195.99 188.917 195.27 188.377 194.33C187.857 193.37 187.597 192.24 187.597 190.94V186.56C187.597 185.24 187.857 184.11 188.377 183.17C188.917 182.23 189.667 181.51 190.627 181.01C191.587 180.51 192.727 180.26 194.047 180.26C195.367 180.26 196.507 180.51 197.467 181.01C198.427 181.51 199.167 182.23 199.687 183.17C200.227 184.11 200.497 185.23 200.497 186.53V190.94C200.497 192.24 200.227 193.37 199.687 194.33C199.167 195.27 198.427 195.99 197.467 196.49C196.507 196.99 195.367 197.24 194.047 197.24ZM194.047 194.84C195.227 194.84 196.147 194.51 196.807 193.85C197.467 193.19 197.797 192.22 197.797 190.94V186.56C197.797 185.28 197.467 184.31 196.807 183.65C196.147 182.99 195.227 182.66 194.047 182.66C192.887 182.66 191.967 182.99 191.287 183.65C190.627 184.31 190.297 185.28 190.297 186.56V190.94C190.297 192.22 190.627 193.19 191.287 193.85C191.967 194.51 192.887 194.84 194.047 194.84ZM204.596 197V180.5H207.296V183.65H207.866L207.296 184.28C207.296 182.98 207.686 181.98 208.466 181.28C209.246 180.56 210.326 180.2 211.706 180.2C213.366 180.2 214.686 180.71 215.666 181.73C216.646 182.75 217.136 184.14 217.136 185.9V197H214.436V186.2C214.436 185.02 214.116 184.12 213.476 183.5C212.856 182.86 212.006 182.54 210.926 182.54C209.806 182.54 208.916 182.88 208.256 183.56C207.616 184.24 207.296 185.22 207.296 186.5V197H204.596Z" fill="white"/>
<path d="M557 240L446 188.5L324.5 231V373L446 395L568 373L557 240Z" stroke="#00ADFF" stroke-width="6"/>
<line x1="445.5" y1="134" x2="445.5" y2="472" stroke="white" stroke-opacity="0.5"/>
<line x1="299.249" y1="217.566" x2="592.249" y2="385.566" stroke="white" stroke-opacity="0.5"/>
<line x1="592.249" y1="219.434" x2="299.249" y2="387.434" stroke="white" stroke-opacity="0.5"/>
</svg>
