<svg preserveAspectRatio="none" width="100%" height="100%" overflow="visible" style="display: block;" viewBox="0 0 969 710" fill="none" xmlns="http://www.w3.org/2000/svg">
<g id="hex_skills_spider_graph 1">
<path id="Vector" d="M719.396 254.3C718.076 254.3 716.926 254.05 715.946 253.55C714.986 253.05 714.236 252.33 713.696 251.39C713.176 250.43 712.916 249.3 712.916 248V238.1C712.916 236.78 713.176 235.65 713.696 234.71C714.236 233.77 714.986 233.05 715.946 232.55C716.926 232.05 718.076 231.8 719.396 231.8C720.716 231.8 721.856 232.06 722.816 232.58C723.776 233.08 724.516 233.8 725.036 234.74C725.556 235.68 725.816 236.8 725.816 238.1H723.116C723.116 236.86 722.786 235.91 722.126 235.25C721.486 234.57 720.576 234.23 719.396 234.23C718.216 234.23 717.286 234.56 716.606 235.22C715.946 235.88 715.616 236.83 715.616 238.07V248C715.616 249.24 715.946 250.2 716.606 250.88C717.286 251.54 718.216 251.87 719.396 251.87C720.576 251.87 721.486 251.54 722.126 250.88C722.786 250.2 723.116 249.24 723.116 248H725.816C725.816 249.28 725.556 250.4 725.036 251.36C724.516 252.3 723.776 253.03 722.816 253.55C721.856 254.05 720.716 254.3 719.396 254.3ZM736.064 254.24C734.744 254.24 733.604 253.99 732.644 253.49C731.684 252.99 730.934 252.27 730.394 251.33C729.874 250.37 729.614 249.24 729.614 247.94V243.56C729.614 242.24 729.874 241.11 730.394 240.17C730.934 239.23 731.684 238.51 732.644 238.01C733.604 237.51 734.744 237.26 736.064 237.26C737.384 237.26 738.524 237.51 739.484 238.01C740.444 238.51 741.184 239.23 741.704 240.17C742.244 241.11 742.514 242.23 742.514 243.53V247.94C742.514 249.24 742.244 250.37 741.704 251.33C741.184 252.27 740.444 252.99 739.484 253.49C738.524 253.99 737.384 254.24 736.064 254.24ZM736.064 251.84C737.244 251.84 738.164 251.51 738.824 250.85C739.484 250.19 739.814 249.22 739.814 247.94V243.56C739.814 242.28 739.484 241.31 738.824 240.65C738.164 239.99 737.244 239.66 736.064 239.66C734.904 239.66 733.984 239.99 733.304 240.65C732.644 241.31 732.314 242.28 732.314 243.56V247.94C732.314 249.22 732.644 250.19 733.304 250.85C733.984 251.51 734.904 251.84 736.064 251.84ZM755.103 254C754.143 254 753.303 253.81 752.583 253.43C751.863 253.05 751.303 252.51 750.903 251.81C750.503 251.11 750.303 250.29 750.303 249.35V234.56H744.753V232.1H753.003V249.35C753.003 250.03 753.193 250.57 753.573 250.97C753.953 251.35 754.463 251.54 755.103 251.54H760.353V254H755.103ZM771.891 254C770.931 254 770.091 253.81 769.371 253.43C768.651 253.05 768.091 252.51 767.691 251.81C767.291 251.11 767.091 250.29 767.091 249.35V234.56H761.541V232.1H769.791V249.35C769.791 250.03 769.981 250.57 770.361 250.97C770.741 251.35 771.251 251.54 771.891 251.54H777.141V254H771.891ZM784.989 254.3C783.249 254.3 781.879 253.86 780.879 252.98C779.879 252.08 779.379 250.87 779.379 249.35C779.379 247.81 779.879 246.6 780.879 245.72C781.879 244.84 783.229 244.4 784.929 244.4H790.029V242.75C790.029 241.73 789.719 240.95 789.099 240.41C788.499 239.85 787.639 239.57 786.519 239.57C785.539 239.57 784.719 239.78 784.059 240.2C783.399 240.6 783.019 241.15 782.919 241.85H780.219C780.399 240.43 781.069 239.3 782.229 238.46C783.389 237.62 784.839 237.2 786.579 237.2C788.479 237.2 789.979 237.69 791.079 238.67C792.179 239.65 792.729 240.98 792.729 242.66V254H790.089V250.85H789.639L790.089 250.4C790.089 251.6 789.619 252.55 788.679 253.25C787.759 253.95 786.529 254.3 784.989 254.3ZM785.649 252.17C786.929 252.17 787.979 251.85 788.799 251.21C789.619 250.57 790.029 249.75 790.029 248.75V246.41H784.989C784.089 246.41 783.379 246.66 782.859 247.16C782.339 247.66 782.079 248.34 782.079 249.2C782.079 250.12 782.389 250.85 783.009 251.39C783.649 251.91 784.529 252.17 785.649 252.17ZM804.178 254.3C802.818 254.3 801.728 253.94 800.908 253.22C800.088 252.48 799.678 251.48 799.678 250.22L800.218 250.85H799.678V254H796.978V232.1H799.678V236.9L799.618 240.65H800.218L799.678 241.28C799.678 240.04 800.088 239.05 800.908 238.31C801.748 237.57 802.838 237.2 804.178 237.2C805.838 237.2 807.168 237.75 808.168 238.85C809.168 239.95 809.668 241.45 809.668 243.35V248.18C809.668 250.06 809.168 251.55 808.168 252.65C807.168 253.75 805.838 254.3 804.178 254.3ZM803.278 251.96C804.418 251.96 805.318 251.62 805.978 250.94C806.638 250.26 806.968 249.28 806.968 248V243.5C806.968 242.22 806.638 241.24 805.978 240.56C805.318 239.88 804.418 239.54 803.278 239.54C802.178 239.54 801.298 239.89 800.638 240.59C799.998 241.29 799.678 242.26 799.678 243.5V248C799.678 249.24 799.998 250.21 800.638 250.91C801.298 251.61 802.178 251.96 803.278 251.96ZM820.006 254.24C818.686 254.24 817.546 253.99 816.586 253.49C815.626 252.99 814.876 252.27 814.336 251.33C813.816 250.37 813.556 249.24 813.556 247.94V243.56C813.556 242.24 813.816 241.11 814.336 240.17C814.876 239.23 815.626 238.51 816.586 238.01C817.546 237.51 818.686 237.26 820.006 237.26C821.326 237.26 822.466 237.51 823.426 238.01C824.386 238.51 825.126 239.23 825.646 240.17C826.186 241.11 826.456 242.23 826.456 243.53V247.94C826.456 249.24 826.186 250.37 825.646 251.33C825.126 252.27 824.386 252.99 823.426 253.49C822.466 253.99 821.326 254.24 820.006 254.24ZM820.006 251.84C821.186 251.84 822.106 251.51 822.766 250.85C823.426 250.19 823.756 249.22 823.756 247.94V243.56C823.756 242.28 823.426 241.31 822.766 240.65C822.106 239.99 821.186 239.66 820.006 239.66C818.846 239.66 817.926 239.99 817.246 240.65C816.586 241.31 816.256 242.28 816.256 243.56V247.94C816.256 249.22 816.586 250.19 817.246 250.85C817.926 251.51 818.846 251.84 820.006 251.84ZM831.124 254V237.5H833.764V240.65H834.394L833.524 242.6C833.524 240.82 833.904 239.48 834.664 238.58C835.444 237.66 836.594 237.2 838.114 237.2C839.854 237.2 841.234 237.75 842.254 238.85C843.294 239.93 843.814 241.4 843.814 243.26V244.25H841.114V243.5C841.114 242.2 840.794 241.21 840.154 240.53C839.534 239.83 838.644 239.48 837.484 239.48C836.344 239.48 835.444 239.83 834.784 240.53C834.144 241.23 833.824 242.22 833.824 243.5V254H831.124ZM852.142 254.3C850.402 254.3 849.032 253.86 848.032 252.98C847.032 252.08 846.532 250.87 846.532 249.35C846.532 247.81 847.032 246.6 848.032 245.72C849.032 244.84 850.382 244.4 852.082 244.4H857.182V242.75C857.182 241.73 856.872 240.95 856.252 240.41C855.652 239.85 854.792 239.57 853.672 239.57C852.692 239.57 851.872 239.78 851.212 240.2C850.552 240.6 850.172 241.15 850.072 241.85H847.372C847.552 240.43 848.222 239.3 849.382 238.46C850.542 237.62 851.992 237.2 853.732 237.2C855.632 237.2 857.132 237.69 858.232 238.67C859.332 239.65 859.882 240.98 859.882 242.66V254H857.242V250.85H856.792L857.242 250.4C857.242 251.6 856.772 252.55 855.832 253.25C854.912 253.95 853.682 254.3 852.142 254.3ZM852.802 252.17C854.082 252.17 855.132 251.85 855.952 251.21C856.772 250.57 857.182 249.75 857.182 248.75V246.41H852.142C851.242 246.41 850.532 246.66 850.012 247.16C849.492 247.66 849.232 248.34 849.232 249.2C849.232 250.12 849.542 250.85 850.162 251.39C850.802 251.91 851.682 252.17 852.802 252.17ZM872.171 254C870.751 254 869.641 253.62 868.841 252.86C868.061 252.1 867.671 251.03 867.671 249.65V239.96H863.021V237.5H867.671V232.85H870.371V237.5H876.971V239.96H870.371V249.65C870.371 250.91 870.971 251.54 872.171 251.54H876.671V254H872.171ZM880.709 254V251.54H886.559V239.96H881.459V237.5H889.259V251.54H894.809V254H880.709ZM887.609 234.53C886.949 234.53 886.429 234.36 886.049 234.02C885.669 233.68 885.479 233.22 885.479 232.64C885.479 232.04 885.669 231.57 886.049 231.23C886.429 230.87 886.949 230.69 887.609 230.69C888.269 230.69 888.789 230.87 889.169 231.23C889.549 231.57 889.739 232.04 889.739 232.64C889.739 233.22 889.549 233.68 889.169 234.02C888.789 234.36 888.269 234.53 887.609 234.53ZM903.947 254.24C902.627 254.24 901.487 253.99 900.527 253.49C899.567 252.99 898.817 252.27 898.277 251.33C897.757 250.37 897.497 249.24 897.497 247.94V243.56C897.497 242.24 897.757 241.11 898.277 240.17C898.817 239.23 899.567 238.51 900.527 238.01C901.487 237.51 902.627 237.26 903.947 237.26C905.267 237.26 906.407 237.51 907.367 238.01C908.327 238.51 909.067 239.23 909.587 240.17C910.127 241.11 910.397 242.23 910.397 243.53V247.94C910.397 249.24 910.127 250.37 909.587 251.33C909.067 252.27 908.327 252.99 907.367 253.49C906.407 253.99 905.267 254.24 903.947 254.24ZM903.947 251.84C905.127 251.84 906.047 251.51 906.707 250.85C907.367 250.19 907.697 249.22 907.697 247.94V243.56C907.697 242.28 907.367 241.31 906.707 240.65C906.047 239.99 905.127 239.66 903.947 239.66C902.787 239.66 901.867 239.99 901.187 240.65C900.527 241.31 900.197 242.28 900.197 243.56V247.94C900.197 249.22 900.527 250.19 901.187 250.85C901.867 251.51 902.787 251.84 903.947 251.84ZM914.496 254V237.5H917.196V240.65H917.766L917.196 241.28C917.196 239.98 917.586 238.98 918.366 238.28C919.146 237.56 920.226 237.2 921.606 237.2C923.266 237.2 924.586 237.71 925.566 238.73C926.546 239.75 927.036 241.14 927.036 242.9V254H924.336V243.2C924.336 242.02 924.016 241.12 923.376 240.5C922.756 239.86 921.906 239.54 920.826 239.54C919.706 239.54 918.816 239.88 918.156 240.56C917.516 241.24 917.196 242.22 917.196 243.5V254H914.496Z" fill="var(--fill-0, white)"/>
<path id="Vector_2" d="M316.318 255.776L485.385 158.165L654.454 255.777V450.999L485.385 548.611L316.319 450.999L316.318 255.776Z" stroke="var(--stroke-0, #FF45CE)" stroke-width="45.276"/>
<path id="Vector_3" d="M402.909 85V63.1H405.609V82.54H415.509V85H402.909ZM425.247 85.3C423.947 85.3 422.807 85.04 421.827 84.52C420.867 84 420.117 83.27 419.577 82.33C419.057 81.37 418.797 80.26 418.797 79V74.5C418.797 73.22 419.057 72.11 419.577 71.17C420.117 70.23 420.867 69.5 421.827 68.98C422.807 68.46 423.947 68.2 425.247 68.2C426.547 68.2 427.677 68.46 428.637 68.98C429.617 69.5 430.367 70.23 430.887 71.17C431.427 72.11 431.697 73.22 431.697 74.5V77.41H421.437V79C421.437 80.3 421.767 81.3 422.427 82C423.087 82.68 424.027 83.02 425.247 83.02C426.287 83.02 427.127 82.84 427.767 82.48C428.407 82.1 428.797 81.54 428.937 80.8H431.637C431.457 82.18 430.777 83.28 429.597 84.1C428.437 84.9 426.987 85.3 425.247 85.3ZM429.057 75.61V74.5C429.057 73.2 428.727 72.2 428.067 71.5C427.427 70.8 426.487 70.45 425.247 70.45C424.027 70.45 423.087 70.8 422.427 71.5C421.767 72.2 421.437 73.2 421.437 74.5V75.37H429.267L429.057 75.61ZM440.595 85.3C438.855 85.3 437.485 84.86 436.485 83.98C435.485 83.08 434.985 81.87 434.985 80.35C434.985 78.81 435.485 77.6 436.485 76.72C437.485 75.84 438.835 75.4 440.535 75.4H445.635V73.75C445.635 72.73 445.325 71.95 444.705 71.41C444.105 70.85 443.245 70.57 442.125 70.57C441.145 70.57 440.325 70.78 439.665 71.2C439.005 71.6 438.625 72.15 438.525 72.85H435.825C436.005 71.43 436.675 70.3 437.835 69.46C438.995 68.62 440.445 68.2 442.185 68.2C444.085 68.2 445.585 68.69 446.685 69.67C447.785 70.65 448.335 71.98 448.335 73.66V85H445.695V81.85H445.245L445.695 81.4C445.695 82.6 445.225 83.55 444.285 84.25C443.365 84.95 442.135 85.3 440.595 85.3ZM441.255 83.17C442.535 83.17 443.585 82.85 444.405 82.21C445.225 81.57 445.635 80.75 445.635 79.75V77.41H440.595C439.695 77.41 438.985 77.66 438.465 78.16C437.945 78.66 437.685 79.34 437.685 80.2C437.685 81.12 437.995 81.85 438.615 82.39C439.255 82.91 440.135 83.17 441.255 83.17ZM457.863 85.3C456.223 85.3 454.893 84.75 453.873 83.65C452.873 82.55 452.373 81.06 452.373 79.18V74.35C452.373 72.45 452.873 70.95 453.873 69.85C454.873 68.75 456.203 68.2 457.863 68.2C459.223 68.2 460.313 68.57 461.133 69.31C461.953 70.05 462.363 71.04 462.363 72.28L461.823 71.65H462.423L462.363 67.9V63.1H465.063V85H462.363V81.85H461.823L462.363 81.22C462.363 82.48 461.953 83.48 461.133 84.22C460.313 84.94 459.223 85.3 457.863 85.3ZM458.763 82.96C459.883 82.96 460.763 82.61 461.403 81.91C462.043 81.21 462.363 80.24 462.363 79V74.5C462.363 73.26 462.043 72.29 461.403 71.59C460.763 70.89 459.883 70.54 458.763 70.54C457.623 70.54 456.723 70.88 456.063 71.56C455.403 72.24 455.073 73.22 455.073 74.5V79C455.073 80.28 455.403 81.26 456.063 81.94C456.723 82.62 457.623 82.96 458.763 82.96ZM475.612 85.3C474.312 85.3 473.172 85.04 472.192 84.52C471.232 84 470.482 83.27 469.942 82.33C469.422 81.37 469.162 80.26 469.162 79V74.5C469.162 73.22 469.422 72.11 469.942 71.17C470.482 70.23 471.232 69.5 472.192 68.98C473.172 68.46 474.312 68.2 475.612 68.2C476.912 68.2 478.042 68.46 479.002 68.98C479.982 69.5 480.732 70.23 481.252 71.17C481.792 72.11 482.062 73.22 482.062 74.5V77.41H471.802V79C471.802 80.3 472.132 81.3 472.792 82C473.452 82.68 474.392 83.02 475.612 83.02C476.652 83.02 477.492 82.84 478.132 82.48C478.772 82.1 479.162 81.54 479.302 80.8H482.002C481.822 82.18 481.142 83.28 479.962 84.1C478.802 84.9 477.352 85.3 475.612 85.3ZM479.422 75.61V74.5C479.422 73.2 479.092 72.2 478.432 71.5C477.792 70.8 476.852 70.45 475.612 70.45C474.392 70.45 473.452 70.8 472.792 71.5C472.132 72.2 471.802 73.2 471.802 74.5V75.37H479.632L479.422 75.61ZM486.73 85V68.5H489.37V71.65H490L489.13 73.6C489.13 71.82 489.51 70.48 490.27 69.58C491.05 68.66 492.2 68.2 493.72 68.2C495.46 68.2 496.84 68.75 497.86 69.85C498.9 70.93 499.42 72.4 499.42 74.26V75.25H496.72V74.5C496.72 73.2 496.4 72.21 495.76 71.53C495.14 70.83 494.25 70.48 493.09 70.48C491.95 70.48 491.05 70.83 490.39 71.53C489.75 72.23 489.43 73.22 489.43 74.5V85H486.73ZM508.678 85.24C507.558 85.24 506.578 85.07 505.738 84.73C504.918 84.37 504.258 83.87 503.758 83.23C503.278 82.59 502.988 81.83 502.888 80.95H505.588C505.708 81.53 506.028 81.99 506.548 82.33C507.088 82.67 507.798 82.84 508.678 82.84H509.938C510.998 82.84 511.788 82.63 512.308 82.21C512.828 81.77 513.088 81.19 513.088 80.47C513.088 79.77 512.848 79.22 512.368 78.82C511.908 78.4 511.218 78.12 510.298 77.98L508.078 77.62C506.458 77.34 505.248 76.84 504.448 76.12C503.668 75.38 503.278 74.31 503.278 72.91C503.278 71.43 503.748 70.29 504.688 69.49C505.628 68.67 507.038 68.26 508.918 68.26H510.058C511.638 68.26 512.908 68.63 513.868 69.37C514.828 70.11 515.408 71.11 515.608 72.37H512.908C512.788 71.85 512.488 71.44 512.008 71.14C511.528 70.82 510.878 70.66 510.058 70.66H508.918C507.898 70.66 507.148 70.85 506.668 71.23C506.208 71.61 505.978 72.18 505.978 72.94C505.978 73.62 506.178 74.12 506.578 74.44C506.978 74.76 507.608 74.99 508.468 75.13L510.688 75.49C512.468 75.77 513.758 76.29 514.558 77.05C515.378 77.81 515.788 78.91 515.788 80.35C515.788 81.87 515.298 83.07 514.318 83.95C513.358 84.81 511.898 85.24 509.938 85.24H508.678ZM519.737 85V63.1H522.437V68.5V71.65H523.007L522.437 72.28C522.437 70.98 522.827 69.98 523.607 69.28C524.387 68.56 525.467 68.2 526.847 68.2C528.507 68.2 529.827 68.71 530.807 69.73C531.787 70.75 532.277 72.14 532.277 73.9V85H529.577V74.2C529.577 73.02 529.257 72.11 528.617 71.47C527.997 70.81 527.147 70.48 526.067 70.48C524.947 70.48 524.057 70.83 523.397 71.53C522.757 72.23 522.437 73.22 522.437 74.5V85H519.737ZM536.315 85V82.54H542.165V70.96H537.065V68.5H544.865V82.54H550.415V85H536.315ZM543.215 65.53C542.555 65.53 542.035 65.36 541.655 65.02C541.275 64.68 541.085 64.22 541.085 63.64C541.085 63.04 541.275 62.57 541.655 62.23C542.035 61.87 542.555 61.69 543.215 61.69C543.875 61.69 544.395 61.87 544.775 62.23C545.155 62.57 545.345 63.04 545.345 63.64C545.345 64.22 545.155 64.68 544.775 65.02C544.395 65.36 543.875 65.53 543.215 65.53ZM553.313 90.4V68.5H556.013V71.65H556.553L556.013 72.28C556.013 71.02 556.423 70.03 557.243 69.31C558.083 68.57 559.183 68.2 560.543 68.2C562.203 68.2 563.523 68.75 564.503 69.85C565.503 70.93 566.003 72.42 566.003 74.32V79.15C566.003 80.41 565.773 81.5 565.313 82.42C564.873 83.34 564.243 84.05 563.423 84.55C562.623 85.05 561.663 85.3 560.543 85.3C559.203 85.3 558.113 84.93 557.273 84.19C556.433 83.45 556.013 82.46 556.013 81.22L556.553 81.85H555.953L556.013 85.6V90.4H553.313ZM559.643 82.96C560.783 82.96 561.673 82.62 562.313 81.94C562.973 81.26 563.303 80.28 563.303 79V74.5C563.303 73.22 562.973 72.24 562.313 71.56C561.673 70.88 560.783 70.54 559.643 70.54C558.543 70.54 557.663 70.89 557.003 71.59C556.343 72.29 556.013 73.26 556.013 74.5V79C556.013 80.24 556.343 81.21 557.003 81.91C557.663 82.61 558.543 82.96 559.643 82.96Z" fill="var(--fill-0, white)"/>
<path id="Vector_4" d="M426.741 647L432.441 625.1H436.071L441.741 647H439.011L437.571 641.18H430.941L429.501 647H426.741ZM431.481 638.9H437.001L435.321 632.15C435.001 630.87 434.751 629.8 434.571 628.94C434.391 628.08 434.281 627.52 434.241 627.26C434.201 627.52 434.091 628.08 433.911 628.94C433.731 629.8 433.481 630.86 433.161 632.12L431.481 638.9ZM446.859 652.4V649.94H452.109C452.949 649.94 453.559 649.75 453.939 649.37C454.339 648.99 454.539 648.4 454.539 647.6V645.5L454.599 642.5H454.059L454.569 642.05C454.569 643.25 454.169 644.2 453.369 644.9C452.569 645.6 451.499 645.95 450.159 645.95C448.459 645.95 447.119 645.4 446.139 644.3C445.159 643.18 444.669 641.68 444.669 639.8V636.32C444.669 634.44 445.159 632.95 446.139 631.85C447.119 630.75 448.459 630.2 450.159 630.2C451.499 630.2 452.569 630.55 453.369 631.25C454.169 631.95 454.569 632.9 454.569 634.1L454.059 633.65H454.569V630.5H457.239V647.6C457.239 649.08 456.779 650.25 455.859 651.11C454.959 651.97 453.699 652.4 452.079 652.4H446.859ZM450.969 643.61C452.089 643.61 452.969 643.26 453.609 642.56C454.249 641.86 454.569 640.89 454.569 639.65V636.5C454.569 635.26 454.249 634.29 453.609 633.59C452.969 632.89 452.089 632.54 450.969 632.54C449.829 632.54 448.939 632.88 448.299 633.56C447.679 634.24 447.369 635.22 447.369 636.5V639.65C447.369 640.93 447.679 641.91 448.299 642.59C448.939 643.27 449.829 643.61 450.969 643.61ZM461.368 647V644.54H467.218V632.96H462.118V630.5H469.918V644.54H475.468V647H461.368ZM468.268 627.53C467.608 627.53 467.088 627.36 466.708 627.02C466.328 626.68 466.138 626.22 466.138 625.64C466.138 625.04 466.328 624.57 466.708 624.23C467.088 623.87 467.608 623.69 468.268 623.69C468.928 623.69 469.448 623.87 469.828 624.23C470.208 624.57 470.398 625.04 470.398 625.64C470.398 626.22 470.208 626.68 469.828 627.02C469.448 627.36 468.928 627.53 468.268 627.53ZM486.856 647C485.896 647 485.056 646.81 484.336 646.43C483.616 646.05 483.056 645.51 482.656 644.81C482.256 644.11 482.056 643.29 482.056 642.35V627.56H476.506V625.1H484.756V642.35C484.756 643.03 484.946 643.57 485.326 643.97C485.706 644.35 486.216 644.54 486.856 644.54H492.106V647H486.856ZM494.944 647V644.54H500.794V632.96H495.694V630.5H503.494V644.54H509.044V647H494.944ZM501.844 627.53C501.184 627.53 500.664 627.36 500.284 627.02C499.904 626.68 499.714 626.22 499.714 625.64C499.714 625.04 499.904 624.57 500.284 624.23C500.664 623.87 501.184 623.69 501.844 623.69C502.504 623.69 503.024 623.87 503.404 624.23C503.784 624.57 503.974 625.04 503.974 625.64C503.974 626.22 503.784 626.68 503.404 627.02C503.024 627.36 502.504 627.53 501.844 627.53ZM519.982 647C518.562 647 517.452 646.62 516.652 645.86C515.872 645.1 515.482 644.03 515.482 642.65V632.96H510.832V630.5H515.482V625.85H518.182V630.5H524.782V632.96H518.182V642.65C518.182 643.91 518.782 644.54 519.982 644.54H524.482V647H519.982ZM531.311 652.4L533.741 645.98L527.621 630.5H530.621L534.461 640.7C534.601 641.04 534.731 641.45 534.851 641.93C534.971 642.39 535.071 642.78 535.151 643.1C535.231 642.78 535.331 642.39 535.451 641.93C535.571 641.45 535.691 641.04 535.811 640.7L539.411 630.5H542.321L534.191 652.4H531.311Z" fill="var(--fill-0, white)"/>
<path id="Vector_5" d="M106.401 466V444.1H113.451C114.811 444.1 115.991 444.37 116.991 444.91C117.991 445.43 118.761 446.17 119.301 447.13C119.861 448.09 120.141 449.23 120.141 450.55C120.141 451.85 119.861 452.99 119.301 453.97C118.761 454.93 117.991 455.68 116.991 456.22C115.991 456.74 114.811 457 113.451 457H109.101V466H106.401ZM109.101 454.57H113.451C114.631 454.57 115.571 454.21 116.271 453.49C116.991 452.75 117.351 451.77 117.351 450.55C117.351 449.31 116.991 448.33 116.271 447.61C115.571 446.89 114.631 446.53 113.451 446.53H109.101V454.57ZM123.759 466V449.5H126.399V452.65H127.029L126.159 454.6C126.159 452.82 126.539 451.48 127.299 450.58C128.079 449.66 129.229 449.2 130.749 449.2C132.489 449.2 133.869 449.75 134.889 450.85C135.929 451.93 136.449 453.4 136.449 455.26V456.25H133.749V455.5C133.749 454.2 133.429 453.21 132.789 452.53C132.169 451.83 131.279 451.48 130.119 451.48C128.979 451.48 128.079 451.83 127.419 452.53C126.779 453.23 126.459 454.22 126.459 455.5V466H123.759ZM146.218 466.24C144.898 466.24 143.758 465.99 142.798 465.49C141.838 464.99 141.088 464.27 140.548 463.33C140.028 462.37 139.768 461.24 139.768 459.94V455.56C139.768 454.24 140.028 453.11 140.548 452.17C141.088 451.23 141.838 450.51 142.798 450.01C143.758 449.51 144.898 449.26 146.218 449.26C147.538 449.26 148.678 449.51 149.638 450.01C150.598 450.51 151.338 451.23 151.858 452.17C152.398 453.11 152.668 454.23 152.668 455.53V459.94C152.668 461.24 152.398 462.37 151.858 463.33C151.338 464.27 150.598 464.99 149.638 465.49C148.678 465.99 147.538 466.24 146.218 466.24ZM146.218 463.84C147.398 463.84 148.318 463.51 148.978 462.85C149.638 462.19 149.968 461.22 149.968 459.94V455.56C149.968 454.28 149.638 453.31 148.978 452.65C148.318 451.99 147.398 451.66 146.218 451.66C145.058 451.66 144.138 451.99 143.458 452.65C142.798 453.31 142.468 454.28 142.468 455.56V459.94C142.468 461.22 142.798 462.19 143.458 462.85C144.138 463.51 145.058 463.84 146.218 463.84ZM163.966 466.3C162.606 466.3 161.516 465.94 160.696 465.22C159.876 464.48 159.466 463.48 159.466 462.22L160.006 462.85H159.466V466H156.766V444.1H159.466V448.9L159.406 452.65H160.006L159.466 453.28C159.466 452.04 159.876 451.05 160.696 450.31C161.536 449.57 162.626 449.2 163.966 449.2C165.626 449.2 166.956 449.75 167.956 450.85C168.956 451.95 169.456 453.45 169.456 455.35V460.18C169.456 462.06 168.956 463.55 167.956 464.65C166.956 465.75 165.626 466.3 163.966 466.3ZM163.066 463.96C164.206 463.96 165.106 463.62 165.766 462.94C166.426 462.26 166.756 461.28 166.756 460V455.5C166.756 454.22 166.426 453.24 165.766 452.56C165.106 451.88 164.206 451.54 163.066 451.54C161.966 451.54 161.086 451.89 160.426 452.59C159.786 453.29 159.466 454.26 159.466 455.5V460C159.466 461.24 159.786 462.21 160.426 462.91C161.086 463.61 161.966 463.96 163.066 463.96ZM182.044 466C181.084 466 180.244 465.81 179.524 465.43C178.804 465.05 178.244 464.51 177.844 463.81C177.444 463.11 177.244 462.29 177.244 461.35V446.56H171.694V444.1H179.944V461.35C179.944 462.03 180.134 462.57 180.514 462.97C180.894 463.35 181.404 463.54 182.044 463.54H187.294V466H182.044ZM196.582 466.3C195.282 466.3 194.142 466.04 193.162 465.52C192.202 465 191.452 464.27 190.912 463.33C190.392 462.37 190.132 461.26 190.132 460V455.5C190.132 454.22 190.392 453.11 190.912 452.17C191.452 451.23 192.202 450.5 193.162 449.98C194.142 449.46 195.282 449.2 196.582 449.2C197.882 449.2 199.012 449.46 199.972 449.98C200.952 450.5 201.702 451.23 202.222 452.17C202.762 453.11 203.032 454.22 203.032 455.5V458.41H192.772V460C192.772 461.3 193.102 462.3 193.762 463C194.422 463.68 195.362 464.02 196.582 464.02C197.622 464.02 198.462 463.84 199.102 463.48C199.742 463.1 200.132 462.54 200.272 461.8H202.972C202.792 463.18 202.112 464.28 200.932 465.1C199.772 465.9 198.322 466.3 196.582 466.3ZM200.392 456.61V455.5C200.392 454.2 200.062 453.2 199.402 452.5C198.762 451.8 197.822 451.45 196.582 451.45C195.362 451.45 194.422 451.8 193.762 452.5C193.102 453.2 192.772 454.2 192.772 455.5V456.37H200.602L200.392 456.61ZM206.351 466V449.5H208.721V451.48H209.261L208.841 452.2C208.841 451.28 209.081 450.55 209.561 450.01C210.061 449.47 210.731 449.2 211.571 449.2C212.491 449.2 213.201 449.54 213.701 450.22C214.201 450.9 214.451 451.86 214.451 453.1L213.641 451.48H214.901L214.331 452.2C214.331 451.28 214.581 450.55 215.081 450.01C215.601 449.47 216.281 449.2 217.121 449.2C218.161 449.2 218.961 449.59 219.521 450.37C220.101 451.15 220.391 452.18 220.391 453.46V466H217.901V453.43C217.901 452.75 217.751 452.22 217.451 451.84C217.171 451.46 216.751 451.27 216.191 451.27C215.651 451.27 215.221 451.46 214.901 451.84C214.601 452.2 214.451 452.72 214.451 453.4V466H212.291V453.43C212.291 452.73 212.131 452.2 211.811 451.84C211.511 451.46 211.081 451.27 210.521 451.27C209.961 451.27 209.541 451.46 209.261 451.84C208.981 452.2 208.841 452.72 208.841 453.4V466H206.351ZM112.761 506.3C111.321 506.3 110.081 506.06 109.041 505.58C108.021 505.1 107.231 504.41 106.671 503.51C106.111 502.61 105.821 501.54 105.801 500.3H108.501C108.501 501.4 108.871 502.27 109.611 502.91C110.371 503.55 111.421 503.87 112.761 503.87C114.021 503.87 115.001 503.56 115.701 502.94C116.421 502.32 116.781 501.46 116.781 500.36C116.781 499.48 116.541 498.71 116.061 498.05C115.601 497.39 114.931 496.93 114.051 496.67L111.081 495.74C109.581 495.28 108.421 494.51 107.601 493.43C106.801 492.35 106.401 491.08 106.401 489.62C106.401 488.44 106.661 487.42 107.181 486.56C107.721 485.68 108.471 485 109.431 484.52C110.391 484.02 111.521 483.77 112.821 483.77C114.741 483.77 116.281 484.31 117.441 485.39C118.601 486.45 119.191 487.87 119.211 489.65H116.511C116.511 488.57 116.181 487.73 115.521 487.13C114.881 486.51 113.971 486.2 112.791 486.2C111.631 486.2 110.721 486.48 110.061 487.04C109.421 487.6 109.101 488.38 109.101 489.38C109.101 490.28 109.341 491.06 109.821 491.72C110.301 492.38 110.991 492.85 111.891 493.13L114.891 494.09C116.351 494.55 117.481 495.33 118.281 496.43C119.081 497.53 119.481 498.82 119.481 500.3C119.481 501.5 119.201 502.55 118.641 503.45C118.081 504.35 117.291 505.05 116.271 505.55C115.271 506.05 114.101 506.3 112.761 506.3ZM129.429 506.24C128.109 506.24 126.969 505.99 126.009 505.49C125.049 504.99 124.299 504.27 123.759 503.33C123.239 502.37 122.979 501.24 122.979 499.94V495.56C122.979 494.24 123.239 493.11 123.759 492.17C124.299 491.23 125.049 490.51 126.009 490.01C126.969 489.51 128.109 489.26 129.429 489.26C130.749 489.26 131.889 489.51 132.849 490.01C133.809 490.51 134.549 491.23 135.069 492.17C135.609 493.11 135.879 494.23 135.879 495.53V499.94C135.879 501.24 135.609 502.37 135.069 503.33C134.549 504.27 133.809 504.99 132.849 505.49C131.889 505.99 130.749 506.24 129.429 506.24ZM129.429 503.84C130.609 503.84 131.529 503.51 132.189 502.85C132.849 502.19 133.179 501.22 133.179 499.94V495.56C133.179 494.28 132.849 493.31 132.189 492.65C131.529 491.99 130.609 491.66 129.429 491.66C128.269 491.66 127.349 491.99 126.669 492.65C126.009 493.31 125.679 494.28 125.679 495.56V499.94C125.679 501.22 126.009 502.19 126.669 502.85C127.349 503.51 128.269 503.84 129.429 503.84ZM148.468 506C147.508 506 146.668 505.81 145.948 505.43C145.228 505.05 144.668 504.51 144.268 503.81C143.868 503.11 143.668 502.29 143.668 501.35V486.56H138.118V484.1H146.368V501.35C146.368 502.03 146.558 502.57 146.938 502.97C147.318 503.35 147.828 503.54 148.468 503.54H153.718V506H148.468ZM161.176 506L155.656 489.5H158.416L162.076 500.6C162.296 501.26 162.496 501.9 162.676 502.52C162.856 503.12 162.986 503.59 163.066 503.93C163.166 503.59 163.306 503.12 163.486 502.52C163.666 501.9 163.856 501.26 164.056 500.6L167.626 489.5H170.356L164.836 506H161.176ZM173.344 506V503.54H179.194V491.96H174.094V489.5H181.894V503.54H187.444V506H173.344ZM180.244 486.53C179.584 486.53 179.064 486.36 178.684 486.02C178.304 485.68 178.114 485.22 178.114 484.64C178.114 484.04 178.304 483.57 178.684 483.23C179.064 482.87 179.584 482.69 180.244 482.69C180.904 482.69 181.424 482.87 181.804 483.23C182.184 483.57 182.374 484.04 182.374 484.64C182.374 485.22 182.184 485.68 181.804 486.02C181.424 486.36 180.904 486.53 180.244 486.53ZM190.342 506V489.5H193.042V492.65H193.612L193.042 493.28C193.042 491.98 193.432 490.98 194.212 490.28C194.992 489.56 196.072 489.2 197.452 489.2C199.112 489.2 200.432 489.71 201.412 490.73C202.392 491.75 202.882 493.14 202.882 494.9V506H200.182V495.2C200.182 494.02 199.862 493.12 199.222 492.5C198.602 491.86 197.752 491.54 196.672 491.54C195.552 491.54 194.662 491.88 194.002 492.56C193.362 493.24 193.042 494.22 193.042 495.5V506H190.342ZM209.201 511.4V508.94H214.451C215.291 508.94 215.901 508.75 216.281 508.37C216.681 507.99 216.881 507.4 216.881 506.6V504.5L216.941 501.5H216.401L216.911 501.05C216.911 502.25 216.511 503.2 215.711 503.9C214.911 504.6 213.841 504.95 212.501 504.95C210.801 504.95 209.461 504.4 208.481 503.3C207.501 502.18 207.011 500.68 207.011 498.8V495.32C207.011 493.44 207.501 491.95 208.481 490.85C209.461 489.75 210.801 489.2 212.501 489.2C213.841 489.2 214.911 489.55 215.711 490.25C216.511 490.95 216.911 491.9 216.911 493.1L216.401 492.65H216.911V489.5H219.581V506.6C219.581 508.08 219.121 509.25 218.201 510.11C217.301 510.97 216.041 511.4 214.421 511.4H209.201ZM213.311 502.61C214.431 502.61 215.311 502.26 215.951 501.56C216.591 500.86 216.911 499.89 216.911 498.65V495.5C216.911 494.26 216.591 493.29 215.951 492.59C215.311 491.89 214.431 491.54 213.311 491.54C212.171 491.54 211.281 491.88 210.641 492.56C210.021 493.24 209.711 494.22 209.711 495.5V498.65C209.711 499.93 210.021 500.91 210.641 501.59C211.281 502.27 212.171 502.61 213.311 502.61Z" fill="var(--fill-0, white)"/>
<path id="Vector_6" d="M721.76 477V455.1H728.54C729.84 455.1 730.98 455.37 731.96 455.91C732.94 456.43 733.7 457.16 734.24 458.1C734.78 459.04 735.05 460.14 735.05 461.4C735.05 462.88 734.66 464.15 733.88 465.21C733.12 466.27 732.08 467 730.76 467.4L735.35 477H732.17L727.97 467.7H724.46V477H721.76ZM724.46 465.27H728.54C729.66 465.27 730.56 464.92 731.24 464.22C731.92 463.5 732.26 462.56 732.26 461.4C732.26 460.22 731.92 459.28 731.24 458.58C730.56 457.88 729.66 457.53 728.54 457.53H724.46V465.27ZM744.788 477.3C743.488 477.3 742.348 477.04 741.368 476.52C740.408 476 739.658 475.27 739.118 474.33C738.598 473.37 738.338 472.26 738.338 471V466.5C738.338 465.22 738.598 464.11 739.118 463.17C739.658 462.23 740.408 461.5 741.368 460.98C742.348 460.46 743.488 460.2 744.788 460.2C746.088 460.2 747.218 460.46 748.178 460.98C749.158 461.5 749.908 462.23 750.428 463.17C750.968 464.11 751.238 465.22 751.238 466.5V469.41H740.978V471C740.978 472.3 741.308 473.3 741.968 474C742.628 474.68 743.568 475.02 744.788 475.02C745.828 475.02 746.668 474.84 747.308 474.48C747.948 474.1 748.338 473.54 748.478 472.8H751.178C750.998 474.18 750.318 475.28 749.138 476.1C747.978 476.9 746.528 477.3 744.788 477.3ZM748.598 467.61V466.5C748.598 465.2 748.268 464.2 747.608 463.5C746.968 462.8 746.028 462.45 744.788 462.45C743.568 462.45 742.628 462.8 741.968 463.5C741.308 464.2 740.978 465.2 740.978 466.5V467.37H748.808L748.598 467.61ZM761.067 477.24C759.947 477.24 758.967 477.07 758.127 476.73C757.307 476.37 756.647 475.87 756.147 475.23C755.667 474.59 755.377 473.83 755.277 472.95H757.977C758.097 473.53 758.417 473.99 758.937 474.33C759.477 474.67 760.187 474.84 761.067 474.84H762.327C763.387 474.84 764.177 474.63 764.697 474.21C765.217 473.77 765.477 473.19 765.477 472.47C765.477 471.77 765.237 471.22 764.757 470.82C764.297 470.4 763.607 470.12 762.687 469.98L760.467 469.62C758.847 469.34 757.637 468.84 756.837 468.12C756.057 467.38 755.667 466.31 755.667 464.91C755.667 463.43 756.137 462.29 757.077 461.49C758.017 460.67 759.427 460.26 761.307 460.26H762.447C764.027 460.26 765.297 460.63 766.257 461.37C767.217 462.11 767.797 463.11 767.997 464.37H765.297C765.177 463.85 764.877 463.44 764.397 463.14C763.917 462.82 763.267 462.66 762.447 462.66H761.307C760.287 462.66 759.537 462.85 759.057 463.23C758.597 463.61 758.367 464.18 758.367 464.94C758.367 465.62 758.567 466.12 758.967 466.44C759.367 466.76 759.997 466.99 760.857 467.13L763.077 467.49C764.857 467.77 766.147 468.29 766.947 469.05C767.767 469.81 768.177 470.91 768.177 472.35C768.177 473.87 767.687 475.07 766.707 475.95C765.747 476.81 764.287 477.24 762.327 477.24H761.067ZM771.915 477V474.54H777.765V462.96H772.665V460.5H780.465V474.54H786.015V477H771.915ZM778.815 457.53C778.155 457.53 777.635 457.36 777.255 457.02C776.875 456.68 776.685 456.22 776.685 455.64C776.685 455.04 776.875 454.57 777.255 454.23C777.635 453.87 778.155 453.69 778.815 453.69C779.475 453.69 779.995 453.87 780.375 454.23C780.755 454.57 780.945 455.04 780.945 455.64C780.945 456.22 780.755 456.68 780.375 457.02C779.995 457.36 779.475 457.53 778.815 457.53ZM797.403 477C796.443 477 795.603 476.81 794.883 476.43C794.163 476.05 793.603 475.51 793.203 474.81C792.803 474.11 792.603 473.29 792.603 472.35V457.56H787.053V455.1H795.303V472.35C795.303 473.03 795.493 473.57 795.873 473.97C796.253 474.35 796.763 474.54 797.403 474.54H802.653V477H797.403ZM805.491 477V474.54H811.341V462.96H806.241V460.5H814.041V474.54H819.591V477H805.491ZM812.391 457.53C811.731 457.53 811.211 457.36 810.831 457.02C810.451 456.68 810.261 456.22 810.261 455.64C810.261 455.04 810.451 454.57 810.831 454.23C811.211 453.87 811.731 453.69 812.391 453.69C813.051 453.69 813.571 453.87 813.951 454.23C814.331 454.57 814.521 455.04 814.521 455.64C814.521 456.22 814.331 456.68 813.951 457.02C813.571 457.36 813.051 457.53 812.391 457.53ZM828.73 477.3C827.43 477.3 826.29 477.04 825.31 476.52C824.35 476 823.6 475.27 823.06 474.33C822.54 473.37 822.28 472.26 822.28 471V466.5C822.28 465.22 822.54 464.11 823.06 463.17C823.6 462.23 824.35 461.5 825.31 460.98C826.29 460.46 827.43 460.2 828.73 460.2C830.03 460.2 831.16 460.46 832.12 460.98C833.1 461.5 833.85 462.23 834.37 463.17C834.91 464.11 835.18 465.22 835.18 466.5V469.41H824.92V471C824.92 472.3 825.25 473.3 825.91 474C826.57 474.68 827.51 475.02 828.73 475.02C829.77 475.02 830.61 474.84 831.25 474.48C831.89 474.1 832.28 473.54 832.42 472.8H835.12C834.94 474.18 834.26 475.28 833.08 476.1C831.92 476.9 830.47 477.3 828.73 477.3ZM832.54 467.61V466.5C832.54 465.2 832.21 464.2 831.55 463.5C830.91 462.8 829.97 462.45 828.73 462.45C827.51 462.45 826.57 462.8 825.91 463.5C825.25 464.2 824.92 465.2 824.92 466.5V467.37H832.75L832.54 467.61ZM839.278 477V460.5H841.978V463.65H842.548L841.978 464.28C841.978 462.98 842.368 461.98 843.148 461.28C843.928 460.56 845.008 460.2 846.388 460.2C848.048 460.2 849.368 460.71 850.348 461.73C851.328 462.75 851.818 464.14 851.818 465.9V477H849.118V466.2C849.118 465.02 848.798 464.12 848.158 463.5C847.538 462.86 846.688 462.54 845.608 462.54C844.488 462.54 843.598 462.88 842.938 463.56C842.298 464.24 841.978 465.22 841.978 466.5V477H839.278ZM862.426 477.3C861.106 477.3 859.946 477.05 858.946 476.55C857.966 476.05 857.206 475.33 856.666 474.39C856.126 473.43 855.856 472.3 855.856 471V466.5C855.856 465.18 856.126 464.05 856.666 463.11C857.206 462.17 857.966 461.45 858.946 460.95C859.946 460.45 861.106 460.2 862.426 460.2C864.326 460.2 865.856 460.71 867.016 461.73C868.176 462.75 868.786 464.14 868.846 465.9H866.146C866.086 464.84 865.726 464.03 865.066 463.47C864.426 462.89 863.546 462.6 862.426 462.6C861.246 462.6 860.306 462.94 859.606 463.62C858.906 464.28 858.556 465.23 858.556 466.47V471C858.556 472.24 858.906 473.2 859.606 473.88C860.306 474.56 861.246 474.9 862.426 474.9C863.546 474.9 864.426 474.61 865.066 474.03C865.726 473.45 866.086 472.64 866.146 471.6H868.846C868.786 473.36 868.176 474.75 867.016 475.77C865.856 476.79 864.326 477.3 862.426 477.3ZM879.095 477.3C877.795 477.3 876.655 477.04 875.675 476.52C874.715 476 873.965 475.27 873.425 474.33C872.905 473.37 872.645 472.26 872.645 471V466.5C872.645 465.22 872.905 464.11 873.425 463.17C873.965 462.23 874.715 461.5 875.675 460.98C876.655 460.46 877.795 460.2 879.095 460.2C880.395 460.2 881.525 460.46 882.485 460.98C883.465 461.5 884.215 462.23 884.735 463.17C885.275 464.11 885.545 465.22 885.545 466.5V469.41H875.285V471C875.285 472.3 875.615 473.3 876.275 474C876.935 474.68 877.875 475.02 879.095 475.02C880.135 475.02 880.975 474.84 881.615 474.48C882.255 474.1 882.645 473.54 882.785 472.8H885.485C885.305 474.18 884.625 475.28 883.445 476.1C882.285 476.9 880.835 477.3 879.095 477.3ZM882.905 467.61V466.5C882.905 465.2 882.575 464.2 881.915 463.5C881.275 462.8 880.335 462.45 879.095 462.45C877.875 462.45 876.935 462.8 876.275 463.5C875.615 464.2 875.285 465.2 875.285 466.5V467.37H883.115L882.905 467.61Z" fill="var(--fill-0, white)"/>
<path id="Vector_7" d="M49.4962 248.3C48.1762 248.3 47.0262 248.05 46.0462 247.55C45.0862 247.05 44.3362 246.33 43.7962 245.39C43.2762 244.43 43.0162 243.3 43.0162 242V232.1C43.0162 230.78 43.2762 229.65 43.7962 228.71C44.3362 227.77 45.0862 227.05 46.0462 226.55C47.0262 226.05 48.1762 225.8 49.4962 225.8C50.8162 225.8 51.9562 226.06 52.9162 226.58C53.8762 227.08 54.6162 227.8 55.1362 228.74C55.6562 229.68 55.9162 230.8 55.9162 232.1H53.2162C53.2162 230.86 52.8862 229.91 52.2262 229.25C51.5862 228.57 50.6762 228.23 49.4962 228.23C48.3162 228.23 47.3862 228.56 46.7062 229.22C46.0462 229.88 45.7162 230.83 45.7162 232.07V242C45.7162 243.24 46.0462 244.2 46.7062 244.88C47.3862 245.54 48.3162 245.87 49.4962 245.87C50.6762 245.87 51.5862 245.54 52.2262 244.88C52.8862 244.2 53.2162 243.24 53.2162 242H55.9162C55.9162 243.28 55.6562 244.4 55.1362 245.36C54.6162 246.3 53.8762 247.03 52.9162 247.55C51.9562 248.05 50.8162 248.3 49.4962 248.3ZM66.1645 248.24C64.8445 248.24 63.7045 247.99 62.7445 247.49C61.7845 246.99 61.0345 246.27 60.4945 245.33C59.9745 244.37 59.7145 243.24 59.7145 241.94V237.56C59.7145 236.24 59.9745 235.11 60.4945 234.17C61.0345 233.23 61.7845 232.51 62.7445 232.01C63.7045 231.51 64.8445 231.26 66.1645 231.26C67.4845 231.26 68.6245 231.51 69.5845 232.01C70.5445 232.51 71.2845 233.23 71.8045 234.17C72.3445 235.11 72.6145 236.23 72.6145 237.53V241.94C72.6145 243.24 72.3445 244.37 71.8045 245.33C71.2845 246.27 70.5445 246.99 69.5845 247.49C68.6245 247.99 67.4845 248.24 66.1645 248.24ZM66.1645 245.84C67.3445 245.84 68.2645 245.51 68.9245 244.85C69.5845 244.19 69.9145 243.22 69.9145 241.94V237.56C69.9145 236.28 69.5845 235.31 68.9245 234.65C68.2645 233.99 67.3445 233.66 66.1645 233.66C65.0045 233.66 64.0845 233.99 63.4045 234.65C62.7445 235.31 62.4145 236.28 62.4145 237.56V241.94C62.4145 243.22 62.7445 244.19 63.4045 244.85C64.0845 245.51 65.0045 245.84 66.1645 245.84ZM75.9327 248V231.5H78.3027V233.48H78.8427L78.4227 234.2C78.4227 233.28 78.6627 232.55 79.1427 232.01C79.6427 231.47 80.3127 231.2 81.1527 231.2C82.0727 231.2 82.7827 231.54 83.2827 232.22C83.7827 232.9 84.0327 233.86 84.0327 235.1L83.2227 233.48H84.4827L83.9127 234.2C83.9127 233.28 84.1627 232.55 84.6627 232.01C85.1827 231.47 85.8627 231.2 86.7027 231.2C87.7427 231.2 88.5427 231.59 89.1027 232.37C89.6827 233.15 89.9727 234.18 89.9727 235.46V248H87.4827V235.43C87.4827 234.75 87.3327 234.22 87.0327 233.84C86.7527 233.46 86.3327 233.27 85.7727 233.27C85.2327 233.27 84.8027 233.46 84.4827 233.84C84.1827 234.2 84.0327 234.72 84.0327 235.4V248H81.8727V235.43C81.8727 234.73 81.7127 234.2 81.3927 233.84C81.0927 233.46 80.6627 233.27 80.1027 233.27C79.5427 233.27 79.1227 233.46 78.8427 233.84C78.5627 234.2 78.4227 234.72 78.4227 235.4V248H75.9327ZM92.721 248V231.5H95.091V233.48H95.631L95.211 234.2C95.211 233.28 95.451 232.55 95.931 232.01C96.431 231.47 97.101 231.2 97.941 231.2C98.861 231.2 99.571 231.54 100.071 232.22C100.571 232.9 100.821 233.86 100.821 235.1L100.011 233.48H101.271L100.701 234.2C100.701 233.28 100.951 232.55 101.451 232.01C101.971 231.47 102.651 231.2 103.491 231.2C104.531 231.2 105.331 231.59 105.891 232.37C106.471 233.15 106.761 234.18 106.761 235.46V248H104.271V235.43C104.271 234.75 104.121 234.22 103.821 233.84C103.541 233.46 103.121 233.27 102.561 233.27C102.021 233.27 101.591 233.46 101.271 233.84C100.971 234.2 100.821 234.72 100.821 235.4V248H98.661V235.43C98.661 234.73 98.501 234.2 98.181 233.84C97.881 233.46 97.451 233.27 96.891 233.27C96.331 233.27 95.911 233.46 95.631 233.84C95.351 234.2 95.211 234.72 95.211 235.4V248H92.721ZM116.499 248.3C114.599 248.3 113.079 247.74 111.939 246.62C110.799 245.48 110.229 243.94 110.229 242V231.5H112.929V242C112.929 243.24 113.249 244.21 113.889 244.91C114.529 245.59 115.399 245.93 116.499 245.93C117.619 245.93 118.499 245.59 119.139 244.91C119.799 244.21 120.129 243.24 120.129 242V231.5H122.829V242C122.829 243.94 122.249 245.48 121.089 246.62C119.929 247.74 118.399 248.3 116.499 248.3ZM127.078 248V231.5H129.778V234.65H130.348L129.778 235.28C129.778 233.98 130.168 232.98 130.948 232.28C131.728 231.56 132.808 231.2 134.188 231.2C135.848 231.2 137.168 231.71 138.148 232.73C139.128 233.75 139.618 235.14 139.618 236.9V248H136.918V237.2C136.918 236.02 136.598 235.12 135.958 234.5C135.338 233.86 134.488 233.54 133.408 233.54C132.288 233.54 131.398 233.88 130.738 234.56C130.098 235.24 129.778 236.22 129.778 237.5V248H127.078ZM143.656 248V245.54H149.506V233.96H144.406V231.5H152.206V245.54H157.756V248H143.656ZM150.556 228.53C149.896 228.53 149.376 228.36 148.996 228.02C148.616 227.68 148.426 227.22 148.426 226.64C148.426 226.04 148.616 225.57 148.996 225.23C149.376 224.87 149.896 224.69 150.556 224.69C151.216 224.69 151.736 224.87 152.116 225.23C152.496 225.57 152.686 226.04 152.686 226.64C152.686 227.22 152.496 227.68 152.116 228.02C151.736 228.36 151.216 228.53 150.556 228.53ZM167.014 248.3C165.694 248.3 164.534 248.05 163.534 247.55C162.554 247.05 161.794 246.33 161.254 245.39C160.714 244.43 160.444 243.3 160.444 242V237.5C160.444 236.18 160.714 235.05 161.254 234.11C161.794 233.17 162.554 232.45 163.534 231.95C164.534 231.45 165.694 231.2 167.014 231.2C168.914 231.2 170.444 231.71 171.604 232.73C172.764 233.75 173.374 235.14 173.434 236.9H170.734C170.674 235.84 170.314 235.03 169.654 234.47C169.014 233.89 168.134 233.6 167.014 233.6C165.834 233.6 164.894 233.94 164.194 234.62C163.494 235.28 163.144 236.23 163.144 237.47V242C163.144 243.24 163.494 244.2 164.194 244.88C164.894 245.56 165.834 245.9 167.014 245.9C168.134 245.9 169.014 245.61 169.654 245.03C170.314 244.45 170.674 243.64 170.734 242.6H173.434C173.374 244.36 172.764 245.75 171.604 246.77C170.444 247.79 168.914 248.3 167.014 248.3ZM182.242 248.3C180.502 248.3 179.132 247.86 178.132 246.98C177.132 246.08 176.632 244.87 176.632 243.35C176.632 241.81 177.132 240.6 178.132 239.72C179.132 238.84 180.482 238.4 182.182 238.4H187.282V236.75C187.282 235.73 186.972 234.95 186.352 234.41C185.752 233.85 184.892 233.57 183.772 233.57C182.792 233.57 181.972 233.78 181.312 234.2C180.652 234.6 180.272 235.15 180.172 235.85H177.472C177.652 234.43 178.322 233.3 179.482 232.46C180.642 231.62 182.092 231.2 183.832 231.2C185.732 231.2 187.232 231.69 188.332 232.67C189.432 233.65 189.982 234.98 189.982 236.66V248H187.342V244.85H186.892L187.342 244.4C187.342 245.6 186.872 246.55 185.932 247.25C185.012 247.95 183.782 248.3 182.242 248.3ZM182.902 246.17C184.182 246.17 185.232 245.85 186.052 245.21C186.872 244.57 187.282 243.75 187.282 242.75V240.41H182.242C181.342 240.41 180.632 240.66 180.112 241.16C179.592 241.66 179.332 242.34 179.332 243.2C179.332 244.12 179.642 244.85 180.262 245.39C180.902 245.91 181.782 246.17 182.902 246.17ZM202.271 248C200.851 248 199.741 247.62 198.941 246.86C198.161 246.1 197.771 245.03 197.771 243.65V233.96H193.121V231.5H197.771V226.85H200.471V231.5H207.071V233.96H200.471V243.65C200.471 244.91 201.071 245.54 202.271 245.54H206.771V248H202.271ZM210.809 248V245.54H216.659V233.96H211.559V231.5H219.359V245.54H224.909V248H210.809ZM217.709 228.53C217.049 228.53 216.529 228.36 216.149 228.02C215.769 227.68 215.579 227.22 215.579 226.64C215.579 226.04 215.769 225.57 216.149 225.23C216.529 224.87 217.049 224.69 217.709 224.69C218.369 224.69 218.889 224.87 219.269 225.23C219.649 225.57 219.839 226.04 219.839 226.64C219.839 227.22 219.649 227.68 219.269 228.02C218.889 228.36 218.369 228.53 217.709 228.53ZM234.047 248.24C232.727 248.24 231.587 247.99 230.627 247.49C229.667 246.99 228.917 246.27 228.377 245.33C227.857 244.37 227.597 243.24 227.597 241.94V237.56C227.597 236.24 227.857 235.11 228.377 234.17C228.917 233.23 229.667 232.51 230.627 232.01C231.587 231.51 232.727 231.26 234.047 231.26C235.367 231.26 236.507 231.51 237.467 232.01C238.427 232.51 239.167 233.23 239.687 234.17C240.227 235.11 240.497 236.23 240.497 237.53V241.94C240.497 243.24 240.227 244.37 239.687 245.33C239.167 246.27 238.427 246.99 237.467 247.49C236.507 247.99 235.367 248.24 234.047 248.24ZM234.047 245.84C235.227 245.84 236.147 245.51 236.807 244.85C237.467 244.19 237.797 243.22 237.797 241.94V237.56C237.797 236.28 237.467 235.31 236.807 234.65C236.147 233.99 235.227 233.66 234.047 233.66C232.887 233.66 231.967 233.99 231.287 234.65C230.627 235.31 230.297 236.28 230.297 237.56V241.94C230.297 243.22 230.627 244.19 231.287 244.85C231.967 245.51 232.887 245.84 234.047 245.84ZM244.596 248V231.5H247.296V234.65H247.866L247.296 235.28C247.296 233.98 247.686 232.98 248.466 232.28C249.246 231.56 250.326 231.2 251.706 231.2C253.366 231.2 254.686 231.71 255.666 232.73C256.646 233.75 257.136 235.14 257.136 236.9V248H254.436V237.2C254.436 236.02 254.116 235.12 253.476 234.5C252.856 233.86 252.006 233.54 250.926 233.54C249.806 233.54 248.916 233.88 248.256 234.56C247.616 235.24 247.296 236.22 247.296 237.5V248H244.596Z" fill="var(--fill-0, white)"/>
<path id="Vector_8" d="M597 291L486 239.5L364.5 282V424L486 446L608 424L597 291Z" stroke="var(--stroke-0, #00ADFF)" stroke-width="6"/>
<path id="Vector_9" d="M485.5 185V523" stroke="var(--stroke-0, white)" stroke-opacity="0.5"/>
<path id="Vector_10" d="M339.249 268.566L632.249 436.566" stroke="var(--stroke-0, white)" stroke-opacity="0.5"/>
<path id="Vector_11" d="M632.249 270.434L339.249 438.434" stroke="var(--stroke-0, white)" stroke-opacity="0.5"/>
</g>
</svg>
