<svg preserveAspectRatio="none" width="100%" height="100%" overflow="visible" style="display: block;" viewBox="0 0 1513 1062" fill="none" xmlns="http://www.w3.org/2000/svg">
<g id="Group">
<path id="Vector" d="M625.46 508.012L533.06 493.865L529.7 690.15L625.46 508.012Z" fill="var(--fill-0, #19435D)" stroke="var(--stroke-0, #19435D)" stroke-linejoin="bevel"/>
<path id="Vector_2" d="M529.7 690.15L664.1 647.71L625.46 508.012L529.7 690.15Z" fill="var(--fill-0, #0C2435)" stroke="var(--stroke-0, #0C2435)" stroke-linejoin="bevel"/>
<path id="Vector_3" d="M833.78 407.217L672.5 347.093L625.46 508.012L833.78 407.217Z" fill="var(--fill-0, #0C2435)" stroke="var(--stroke-0, #0C2435)" stroke-linejoin="bevel"/>
<path id="Vector_4" d="M625.46 508.012L672.5 347.093L533.06 493.865L625.46 508.012Z" fill="var(--fill-0, #246688)" stroke="var(--stroke-0, #246688)" stroke-linejoin="bevel"/>
<path id="Vector_5" d="M316.34 384.228L297.86 580.513L533.06 493.865L316.34 384.228Z" fill="var(--fill-0, #19435D)" stroke="var(--stroke-0, #19435D)" stroke-linejoin="bevel"/>
<path id="Vector_6" d="M533.06 493.865L297.86 580.513L529.7 690.15L533.06 493.865Z" fill="var(--fill-0, #00101C)" stroke="var(--stroke-0, #00101C)" stroke-linejoin="bevel"/>
<path id="Vector_7" d="M672.5 347.094L561.62 299.349L533.06 493.865L672.5 347.094Z" fill="var(--fill-0, #112E42)" stroke="var(--stroke-0, #112E42)" stroke-linejoin="bevel"/>
<path id="Vector_8" d="M506.18 891.74L645.62 882.898L529.7 690.15L506.18 891.74Z" fill="var(--fill-0, #246688)" stroke="var(--stroke-0, #246688)" stroke-linejoin="bevel"/>
<path id="Vector_9" d="M529.7 690.15L645.62 882.898L664.1 647.71L529.7 690.15Z" fill="var(--fill-0, #0C2435)" stroke="var(--stroke-0, #0C2435)" stroke-linejoin="bevel"/>
<path id="Vector_10" d="M356.66 886.435L506.18 891.74L529.7 690.15L356.66 886.435Z" fill="var(--fill-0, #15384F)" stroke="var(--stroke-0, #15384F)" stroke-linejoin="bevel"/>
<path id="Vector_11" d="M297.86 580.514L276.02 667.162L529.7 690.15L297.86 580.514Z" fill="var(--fill-0, #297EA6)" stroke="var(--stroke-0, #297EA6)" stroke-linejoin="bevel"/>
<path id="Vector_12" d="M561.62 299.348L316.34 384.228L533.06 493.865L561.62 299.348Z" fill="var(--fill-0, #246688)" stroke="var(--stroke-0, #246688)" stroke-linejoin="bevel"/>
<path id="Vector_13" d="M297.86 580.513L202.1 520.39L276.02 667.162L297.86 580.513Z" fill="var(--fill-0, #00101C)" stroke="var(--stroke-0, #00101C)" stroke-linejoin="bevel"/>
<path id="Vector_14" d="M902.66 462.035L833.78 407.217L664.1 647.71L902.66 462.035Z" fill="var(--fill-0, #297EA6)" stroke="var(--stroke-0, #297EA6)" stroke-linejoin="bevel"/>
<path id="Vector_15" d="M664.1 647.71L833.78 407.217L625.46 508.012L664.1 647.71Z" fill="var(--fill-0, #19435D)" stroke="var(--stroke-0, #19435D)" stroke-linejoin="bevel"/>
<path id="Vector_16" d="M721.22 157.882L531.38 182.638L561.62 299.348L721.22 157.882Z" fill="var(--fill-0, #1D4E6B)" stroke="var(--stroke-0, #1D4E6B)" stroke-linejoin="bevel"/>
<path id="Vector_17" d="M791.78 879.362L867.38 744.968L664.1 647.71L791.78 879.362Z" fill="var(--fill-0, #0C2435)" stroke="var(--stroke-0, #0C2435)" stroke-linejoin="bevel"/>
<path id="Vector_18" d="M276.02 667.162L356.66 886.435L529.7 690.15L276.02 667.162Z" fill="var(--fill-0, #081A28)" stroke="var(--stroke-0, #081A28)" stroke-linejoin="bevel"/>
<path id="Vector_19" d="M645.62 882.898L791.78 879.362L664.1 647.71L645.62 882.898Z" fill="var(--fill-0, #19435D)" stroke="var(--stroke-0, #19435D)" stroke-linejoin="bevel"/>
<path id="Vector_20" d="M670.82 1061.5L791.78 879.362L645.62 882.898L670.82 1061.5Z" fill="var(--fill-0, #246688)" stroke="var(--stroke-0, #246688)" stroke-linejoin="bevel"/>
<path id="Vector_21" d="M867.38 744.968L902.66 462.035L664.1 647.71L867.38 744.968Z" fill="var(--fill-0, #19435D)" stroke="var(--stroke-0, #19435D)" stroke-linejoin="bevel"/>
<path id="Vector_22" d="M316.34 384.228L202.1 520.39L297.86 580.513L316.34 384.228Z" fill="var(--fill-0, #1D4E6B)" stroke="var(--stroke-0, #1D4E6B)" stroke-linejoin="bevel"/>
<path id="Vector_23" d="M276.02 667.162L203.78 713.138L356.66 886.435L276.02 667.162Z" fill="var(--fill-0, #19435D)" stroke="var(--stroke-0, #19435D)" stroke-linejoin="bevel"/>
<path id="Vector_24" d="M202.1 520.39L203.78 713.138L276.02 667.162L202.1 520.39Z" fill="var(--fill-0, #205A7A)" stroke="var(--stroke-0, #205A7A)" stroke-linejoin="bevel"/>
<path id="Vector_25" d="M721.22 157.882L561.62 299.348L672.5 347.093L721.22 157.882Z" fill="var(--fill-0, #00101C)" stroke="var(--stroke-0, #00101C)" stroke-linejoin="bevel"/>
<path id="Vector_26" d="M561.62 299.348L356.66 198.553L316.34 384.228L561.62 299.348Z" fill="var(--fill-0, #0C2435)" stroke="var(--stroke-0, #0C2435)" stroke-linejoin="bevel"/>
<path id="Vector_27" d="M867.38 744.968L988.34 513.317L902.66 462.035L867.38 744.968Z" fill="var(--fill-0, #0C2435)" stroke="var(--stroke-0, #0C2435)" stroke-linejoin="bevel"/>
<path id="Vector_28" d="M820.34 134.894L721.22 157.882L833.78 407.217L820.34 134.894Z" fill="var(--fill-0, #297EA6)" stroke="var(--stroke-0, #297EA6)" stroke-linejoin="bevel"/>
<path id="Vector_29" d="M833.78 407.217L721.22 157.882L672.5 347.093L833.78 407.217Z" fill="var(--fill-0, #277297)" stroke="var(--stroke-0, #277297)" stroke-linejoin="bevel"/>
<path id="Vector_30" d="M531.38 182.638L356.66 198.553L561.62 299.348L531.38 182.638Z" fill="var(--fill-0, #081A28)" stroke="var(--stroke-0, #081A28)" stroke-linejoin="bevel"/>
<path id="Vector_31" d="M316.34 384.229L207.14 322.337L202.1 520.39L316.34 384.229Z" fill="var(--fill-0, #15384F)" stroke="var(--stroke-0, #15384F)" stroke-linejoin="bevel"/>
<path id="Vector_32" d="M820.34 134.894L833.78 407.217L988.34 154.345L820.34 134.894Z" fill="var(--fill-0, #081A28)" stroke="var(--stroke-0, #081A28)" stroke-linejoin="bevel"/>
<path id="Vector_33" d="M531.38 182.638L457.46 0.5L356.66 198.553L531.38 182.638Z" fill="var(--fill-0, #112E42)" stroke="var(--stroke-0, #112E42)" stroke-linejoin="bevel"/>
<path id="Vector_34" d="M223.94 235.688L207.14 322.337L316.34 384.228L223.94 235.688Z" fill="var(--fill-0, #277297)" stroke="var(--stroke-0, #277297)" stroke-linejoin="bevel"/>
<path id="Vector_35" d="M356.66 886.435L486.02 1061.5L506.18 891.74L356.66 886.435Z" fill="var(--fill-0, #15384F)" stroke="var(--stroke-0, #15384F)" stroke-linejoin="bevel"/>
<path id="Vector_36" d="M506.18 891.74L670.82 1061.5L645.62 882.898L506.18 891.74Z" fill="var(--fill-0, #112E42)" stroke="var(--stroke-0, #112E42)" stroke-linejoin="bevel"/>
<path id="Vector_37" d="M343.22 1061.5H486.02L356.66 886.435L343.22 1061.5Z" fill="var(--fill-0, #297EA6)" stroke="var(--stroke-0, #297EA6)" stroke-linejoin="bevel"/>
<path id="Vector_38" d="M486.02 1061.5H670.82L506.18 891.74L486.02 1061.5Z" fill="var(--fill-0, #297EA6)" stroke="var(--stroke-0, #297EA6)" stroke-linejoin="bevel"/>
<path id="Vector_39" d="M356.66 198.553L223.94 235.688L316.34 384.228L356.66 198.553Z" fill="var(--fill-0, #246688)" stroke="var(--stroke-0, #246688)" stroke-linejoin="bevel"/>
<path id="Vector_40" d="M1003.46 870.52L1026.98 755.578L867.38 744.968L1003.46 870.52Z" fill="var(--fill-0, #19435D)" stroke="var(--stroke-0, #19435D)" stroke-linejoin="bevel"/>
<path id="Vector_41" d="M867.38 744.968L1026.98 755.578L988.34 513.316L867.38 744.968Z" fill="var(--fill-0, #00101C)" stroke="var(--stroke-0, #00101C)" stroke-linejoin="bevel"/>
<path id="Vector_42" d="M1003.46 870.52L867.38 744.968L791.78 879.362L1003.46 870.52Z" fill="var(--fill-0, #19435D)" stroke="var(--stroke-0, #19435D)" stroke-linejoin="bevel"/>
<path id="Vector_43" d="M129.86 905.887L343.22 1061.5L356.66 886.435L129.86 905.887Z" fill="var(--fill-0, #081A28)" stroke="var(--stroke-0, #081A28)" stroke-linejoin="bevel"/>
<path id="Vector_44" d="M1033.7 304.653L833.78 407.217L902.66 462.035L1033.7 304.653Z" fill="var(--fill-0, #112E42)" stroke="var(--stroke-0, #112E42)" stroke-linejoin="bevel"/>
<path id="Vector_45" d="M721.22 157.882L652.34 0.5L531.38 182.638L721.22 157.882Z" fill="var(--fill-0, #112E42)" stroke="var(--stroke-0, #112E42)" stroke-linejoin="bevel"/>
<path id="Vector_46" d="M877.46 1061.5L1003.46 870.52L791.78 879.362L877.46 1061.5Z" fill="var(--fill-0, #00101C)" stroke="var(--stroke-0, #00101C)" stroke-linejoin="bevel"/>
<path id="Vector_47" d="M0.5 744.968L129.86 905.886L203.78 713.138L0.5 744.968Z" fill="var(--fill-0, #297EA6)" stroke="var(--stroke-0, #297EA6)" stroke-linejoin="bevel"/>
<path id="Vector_48" d="M203.78 713.139L129.86 905.887L356.66 886.435L203.78 713.139Z" fill="var(--fill-0, #277297)" stroke="var(--stroke-0, #277297)" stroke-linejoin="bevel"/>
<path id="Vector_49" d="M0.5 744.968L203.78 713.138L202.1 520.39L0.5 744.968Z" fill="var(--fill-0, #112E42)" stroke="var(--stroke-0, #112E42)" stroke-linejoin="bevel"/>
<path id="Vector_50" d="M988.34 513.317L1033.7 304.653L902.66 462.035L988.34 513.317Z" fill="var(--fill-0, #00101C)" stroke="var(--stroke-0, #00101C)" stroke-linejoin="bevel"/>
<path id="Vector_51" d="M1114.34 336.483L1033.7 304.653L988.34 513.317L1114.34 336.483Z" fill="var(--fill-0, #277297)" stroke="var(--stroke-0, #277297)" stroke-linejoin="bevel"/>
<path id="Vector_52" d="M670.82 1061.5H877.46L791.78 879.361L670.82 1061.5Z" fill="var(--fill-0, #19435D)" stroke="var(--stroke-0, #19435D)" stroke-linejoin="bevel"/>
<path id="Vector_53" d="M774.98 0.5L721.22 157.882L820.34 134.893L774.98 0.5Z" fill="var(--fill-0, #112E42)" stroke="var(--stroke-0, #112E42)" stroke-linejoin="bevel"/>
<path id="Vector_54" d="M774.98 0.5H652.34L721.22 157.882L774.98 0.5Z" fill="var(--fill-0, #0C2435)" stroke="var(--stroke-0, #0C2435)" stroke-linejoin="bevel"/>
<path id="Vector_55" d="M356.66 198.553L272.66 0.5L223.94 235.688L356.66 198.553Z" fill="var(--fill-0, #00101C)" stroke="var(--stroke-0, #00101C)" stroke-linejoin="bevel"/>
<path id="Vector_56" d="M1226.9 893.508L1134.5 640.637L1026.98 755.578L1226.9 893.508Z" fill="var(--fill-0, #0C2435)" stroke="var(--stroke-0, #0C2435)" stroke-linejoin="bevel"/>
<path id="Vector_57" d="M1026.98 755.578L1134.5 640.636L988.34 513.316L1026.98 755.578Z" fill="var(--fill-0, #15384F)" stroke="var(--stroke-0, #15384F)" stroke-linejoin="bevel"/>
<path id="Vector_58" d="M652.34 0.5H457.46L531.38 182.638L652.34 0.5Z" fill="var(--fill-0, #00101C)" stroke="var(--stroke-0, #00101C)" stroke-linejoin="bevel"/>
<path id="Vector_59" d="M0.5 341.789V490.329L207.14 322.337L0.5 341.789Z" fill="var(--fill-0, #205A7A)" stroke="var(--stroke-0, #205A7A)" stroke-linejoin="bevel"/>
<path id="Vector_60" d="M207.14 322.337L0.5 490.329L202.1 520.39L207.14 322.337Z" fill="var(--fill-0, #277297)" stroke="var(--stroke-0, #277297)" stroke-linejoin="bevel"/>
<path id="Vector_61" d="M0.5 490.328V744.968L202.1 520.39L0.5 490.328Z" fill="var(--fill-0, #15384F)" stroke="var(--stroke-0, #15384F)" stroke-linejoin="bevel"/>
<path id="Vector_62" d="M1033.7 304.653L988.34 154.345L833.78 407.216L1033.7 304.653Z" fill="var(--fill-0, #19435D)" stroke="var(--stroke-0, #19435D)" stroke-linejoin="bevel"/>
<path id="Vector_63" d="M1228.58 492.097L1114.34 336.483L988.34 513.317L1228.58 492.097Z" fill="var(--fill-0, #297EA6)" stroke="var(--stroke-0, #297EA6)" stroke-linejoin="bevel"/>
<path id="Vector_64" d="M1033.7 304.654L1203.38 168.492L988.34 154.345L1033.7 304.654Z" fill="var(--fill-0, #19435D)" stroke="var(--stroke-0, #19435D)" stroke-linejoin="bevel"/>
<path id="Vector_65" d="M963.14 0.5H774.98L820.34 134.893L963.14 0.5Z" fill="var(--fill-0, #205A7A)" stroke="var(--stroke-0, #205A7A)" stroke-linejoin="bevel"/>
<path id="Vector_66" d="M223.94 235.688L0.5 341.788L207.14 322.337L223.94 235.688Z" fill="var(--fill-0, #205A7A)" stroke="var(--stroke-0, #205A7A)" stroke-linejoin="bevel"/>
<path id="Vector_67" d="M0.5 149.04V341.788L223.94 235.688L0.5 149.04Z" fill="var(--fill-0, #1D4E6B)" stroke="var(--stroke-0, #1D4E6B)" stroke-linejoin="bevel"/>
<path id="Vector_68" d="M129.86 905.887L121.46 1061.5H343.22L129.86 905.887Z" fill="var(--fill-0, #205A7A)" stroke="var(--stroke-0, #205A7A)" stroke-linejoin="bevel"/>
<path id="Vector_69" d="M0.5 902.35L121.46 1061.5L129.86 905.887L0.5 902.35Z" fill="var(--fill-0, #081A28)" stroke="var(--stroke-0, #081A28)" stroke-linejoin="bevel"/>
<path id="Vector_70" d="M457.46 0.5H272.66L356.66 198.553L457.46 0.5Z" fill="var(--fill-0, #1D4E6B)" stroke="var(--stroke-0, #1D4E6B)" stroke-linejoin="bevel"/>
<path id="Vector_71" d="M0.5 744.968V902.35L129.86 905.887L0.5 744.968Z" fill="var(--fill-0, #19435D)" stroke="var(--stroke-0, #19435D)" stroke-linejoin="bevel"/>
<path id="Vector_72" d="M877.46 1061.5H1037.06L1003.46 870.52L877.46 1061.5Z" fill="var(--fill-0, #277297)" stroke="var(--stroke-0, #277297)" stroke-linejoin="bevel"/>
<path id="Vector_73" d="M1003.46 870.52L1226.9 893.508L1026.98 755.578L1003.46 870.52Z" fill="var(--fill-0, #00101C)" stroke="var(--stroke-0, #00101C)" stroke-linejoin="bevel"/>
<path id="Vector_74" d="M1361.3 529.232L1228.58 492.097L1134.5 640.637L1361.3 529.232Z" fill="var(--fill-0, #1D4E6B)" stroke="var(--stroke-0, #1D4E6B)" stroke-linejoin="bevel"/>
<path id="Vector_75" d="M1134.5 640.637L1228.58 492.097L988.34 513.317L1134.5 640.637Z" fill="var(--fill-0, #205A7A)" stroke="var(--stroke-0, #205A7A)" stroke-linejoin="bevel"/>
<path id="Vector_76" d="M1117.7 0.5H963.14L988.34 154.345L1117.7 0.5Z" fill="var(--fill-0, #00101C)" stroke="var(--stroke-0, #00101C)" stroke-linejoin="bevel"/>
<path id="Vector_77" d="M272.66 0.5H186.98L223.94 235.688L272.66 0.5Z" fill="var(--fill-0, #081A28)" stroke="var(--stroke-0, #081A28)" stroke-linejoin="bevel"/>
<path id="Vector_78" d="M1203.38 168.492L1033.7 304.653L1114.34 336.483L1203.38 168.492Z" fill="var(--fill-0, #0C2435)" stroke="var(--stroke-0, #0C2435)" stroke-linejoin="bevel"/>
<path id="Vector_79" d="M988.34 154.345L963.14 0.5L820.34 134.893L988.34 154.345Z" fill="var(--fill-0, #205A7A)" stroke="var(--stroke-0, #205A7A)" stroke-linejoin="bevel"/>
<path id="Vector_80" d="M186.98 0.5L0.5 149.04L223.94 235.688L186.98 0.5Z" fill="var(--fill-0, #1D4E6B)" stroke="var(--stroke-0, #1D4E6B)" stroke-linejoin="bevel"/>
<path id="Vector_81" d="M1144.58 1061.5L1226.9 893.508L1003.46 870.52L1144.58 1061.5Z" fill="var(--fill-0, #19435D)" stroke="var(--stroke-0, #19435D)" stroke-linejoin="bevel"/>
<path id="Vector_82" d="M0.5 902.35V1061.5H121.46L0.5 902.35Z" fill="var(--fill-0, #0C2435)" stroke="var(--stroke-0, #0C2435)" stroke-linejoin="bevel"/>
<path id="Vector_83" d="M1037.06 1061.5H1144.58L1003.46 870.52L1037.06 1061.5Z" fill="var(--fill-0, #0C2435)" stroke="var(--stroke-0, #0C2435)" stroke-linejoin="bevel"/>
<path id="Vector_84" d="M1379.78 412.522L1203.38 168.492L1114.34 336.483L1379.78 412.522Z" fill="var(--fill-0, #246688)" stroke="var(--stroke-0, #246688)" stroke-linejoin="bevel"/>
<path id="Vector_85" d="M1203.38 168.492L1117.7 0.5L988.34 154.345L1203.38 168.492Z" fill="var(--fill-0, #00101C)" stroke="var(--stroke-0, #00101C)" stroke-linejoin="bevel"/>
<path id="Vector_86" d="M1373.06 766.188L1361.3 529.231L1134.5 640.636L1373.06 766.188Z" fill="var(--fill-0, #277297)" stroke="var(--stroke-0, #277297)" stroke-linejoin="bevel"/>
<path id="Vector_87" d="M1228.58 492.097L1379.78 412.522L1114.34 336.483L1228.58 492.097Z" fill="var(--fill-0, #112E42)" stroke="var(--stroke-0, #112E42)" stroke-linejoin="bevel"/>
<path id="Vector_88" d="M186.98 0.5H0.5V149.04L186.98 0.5Z" fill="var(--fill-0, #15384F)" stroke="var(--stroke-0, #15384F)" stroke-linejoin="bevel"/>
<path id="Vector_89" d="M1226.9 893.508L1373.06 766.188L1134.5 640.637L1226.9 893.508Z" fill="var(--fill-0, #246688)" stroke="var(--stroke-0, #246688)" stroke-linejoin="bevel"/>
<path id="Vector_90" d="M1341.14 927.107L1373.06 766.188L1226.9 893.508L1341.14 927.107Z" fill="var(--fill-0, #00101C)" stroke="var(--stroke-0, #00101C)" stroke-linejoin="bevel"/>
<path id="Vector_91" d="M1512.5 509.78L1379.78 412.521L1361.3 529.231L1512.5 509.78Z" fill="var(--fill-0, #19435D)" stroke="var(--stroke-0, #19435D)" stroke-linejoin="bevel"/>
<path id="Vector_92" d="M1361.3 529.231L1379.78 412.521L1228.58 492.096L1361.3 529.231Z" fill="var(--fill-0, #297EA6)" stroke="var(--stroke-0, #297EA6)" stroke-linejoin="bevel"/>
<path id="Vector_93" d="M1203.38 168.492L1289.06 0.5H1117.7L1203.38 168.492Z" fill="var(--fill-0, #0C2435)" stroke="var(--stroke-0, #0C2435)" stroke-linejoin="bevel"/>
<path id="Vector_94" d="M1144.58 1061.5L1341.14 927.107L1226.9 893.508L1144.58 1061.5Z" fill="var(--fill-0, #1D4E6B)" stroke="var(--stroke-0, #1D4E6B)" stroke-linejoin="bevel"/>
<path id="Vector_95" d="M1379.78 412.522L1351.22 134.894L1203.38 168.492L1379.78 412.522Z" fill="var(--fill-0, #15384F)" stroke="var(--stroke-0, #15384F)" stroke-linejoin="bevel"/>
<path id="Vector_96" d="M1351.22 134.893L1289.06 0.5L1203.38 168.492L1351.22 134.893Z" fill="var(--fill-0, #1D4E6B)" stroke="var(--stroke-0, #1D4E6B)" stroke-linejoin="bevel"/>
<path id="Vector_97" d="M1144.58 1061.5H1381.46L1341.14 927.106L1144.58 1061.5Z" fill="var(--fill-0, #112E42)" stroke="var(--stroke-0, #112E42)" stroke-linejoin="bevel"/>
<path id="Vector_98" d="M1512.5 840.458V693.686L1373.06 766.188L1512.5 840.458Z" fill="var(--fill-0, #1D4E6B)" stroke="var(--stroke-0, #1D4E6B)" stroke-linejoin="bevel"/>
<path id="Vector_99" d="M1512.5 693.687V509.78L1361.3 529.232L1512.5 693.687Z" fill="var(--fill-0, #112E42)" stroke="var(--stroke-0, #112E42)" stroke-linejoin="bevel"/>
<path id="Vector_100" d="M1512.5 693.686L1361.3 529.231L1373.06 766.188L1512.5 693.686Z" fill="var(--fill-0, #081A28)" stroke="var(--stroke-0, #081A28)" stroke-linejoin="bevel"/>
<path id="Vector_101" d="M1379.78 412.522L1512.5 193.249L1351.22 134.894L1379.78 412.522Z" fill="var(--fill-0, #0C2435)" stroke="var(--stroke-0, #0C2435)" stroke-linejoin="bevel"/>
<path id="Vector_102" d="M1512.5 840.458L1373.06 766.188L1341.14 927.107L1512.5 840.458Z" fill="var(--fill-0, #297EA6)" stroke="var(--stroke-0, #297EA6)" stroke-linejoin="bevel"/>
<path id="Vector_103" d="M1512.5 509.78V419.595L1379.78 412.521L1512.5 509.78Z" fill="var(--fill-0, #0C2435)" stroke="var(--stroke-0, #0C2435)" stroke-linejoin="bevel"/>
<path id="Vector_104" d="M1351.22 134.893L1512.5 0.5H1289.06L1351.22 134.893Z" fill="var(--fill-0, #081A28)" stroke="var(--stroke-0, #081A28)" stroke-linejoin="bevel"/>
<path id="Vector_105" d="M1512.5 1061.5V840.458L1341.14 927.107L1512.5 1061.5Z" fill="var(--fill-0, #277297)" stroke="var(--stroke-0, #277297)" stroke-linejoin="bevel"/>
<path id="Vector_106" d="M1512.5 419.595V193.249L1379.78 412.522L1512.5 419.595Z" fill="var(--fill-0, #081A28)" stroke="var(--stroke-0, #081A28)" stroke-linejoin="bevel"/>
<path id="Vector_107" d="M1381.46 1061.5H1512.5L1341.14 927.106L1381.46 1061.5Z" fill="var(--fill-0, #0C2435)" stroke="var(--stroke-0, #0C2435)" stroke-linejoin="bevel"/>
<path id="Vector_108" d="M1512.5 193.248V0.5L1351.22 134.893L1512.5 193.248Z" fill="var(--fill-0, #1D4E6B)" stroke="var(--stroke-0, #1D4E6B)" stroke-linejoin="bevel"/>
</g>
</svg>
