<svg id="visual" viewBox="0 0 900 600" width="900" height="600" xmlns="http://www.w3.org/2000/svg" xmlns:xlink="http://www.w3.org/1999/xlink" version="1.1"><g stroke-width="1" stroke-linejoin="bevel"><path d="M372 287L317 279L315 390Z" fill="#19435d" stroke="#19435d"></path><path d="M315 390L395 366L372 287Z" fill="#0c2435" stroke="#0c2435"></path><path d="M496 230L400 196L372 287Z" fill="#0c2435" stroke="#0c2435"></path><path d="M372 287L400 196L317 279Z" fill="#246688" stroke="#246688"></path><path d="M188 217L177 328L317 279Z" fill="#19435d" stroke="#19435d"></path><path d="M317 279L177 328L315 390Z" fill="#00101c" stroke="#00101c"></path><path d="M400 196L334 169L317 279Z" fill="#112e42" stroke="#112e42"></path><path d="M301 504L384 499L315 390Z" fill="#246688" stroke="#246688"></path><path d="M315 390L384 499L395 366Z" fill="#0c2435" stroke="#0c2435"></path><path d="M212 501L301 504L315 390Z" fill="#15384f" stroke="#15384f"></path><path d="M177 328L164 377L315 390Z" fill="#297ea6" stroke="#297ea6"></path><path d="M334 169L188 217L317 279Z" fill="#246688" stroke="#246688"></path><path d="M177 328L120 294L164 377Z" fill="#00101c" stroke="#00101c"></path><path d="M537 261L496 230L395 366Z" fill="#297ea6" stroke="#297ea6"></path><path d="M395 366L496 230L372 287Z" fill="#19435d" stroke="#19435d"></path><path d="M429 89L316 103L334 169Z" fill="#1d4e6b" stroke="#1d4e6b"></path><path d="M471 497L516 421L395 366Z" fill="#0c2435" stroke="#0c2435"></path><path d="M164 377L212 501L315 390Z" fill="#081a28" stroke="#081a28"></path><path d="M384 499L471 497L395 366Z" fill="#19435d" stroke="#19435d"></path><path d="M399 600L471 497L384 499Z" fill="#246688" stroke="#246688"></path><path d="M516 421L537 261L395 366Z" fill="#19435d" stroke="#19435d"></path><path d="M188 217L120 294L177 328Z" fill="#1d4e6b" stroke="#1d4e6b"></path><path d="M164 377L121 403L212 501Z" fill="#19435d" stroke="#19435d"></path><path d="M120 294L121 403L164 377Z" fill="#205a7a" stroke="#205a7a"></path><path d="M429 89L334 169L400 196Z" fill="#00101c" stroke="#00101c"></path><path d="M334 169L212 112L188 217Z" fill="#0c2435" stroke="#0c2435"></path><path d="M516 421L588 290L537 261Z" fill="#0c2435" stroke="#0c2435"></path><path d="M488 76L429 89L496 230Z" fill="#297ea6" stroke="#297ea6"></path><path d="M496 230L429 89L400 196Z" fill="#277297" stroke="#277297"></path><path d="M316 103L212 112L334 169Z" fill="#081a28" stroke="#081a28"></path><path d="M188 217L123 182L120 294Z" fill="#15384f" stroke="#15384f"></path><path d="M488 76L496 230L588 87Z" fill="#081a28" stroke="#081a28"></path><path d="M316 103L272 0L212 112Z" fill="#112e42" stroke="#112e42"></path><path d="M133 133L123 182L188 217Z" fill="#277297" stroke="#277297"></path><path d="M212 501L289 600L301 504Z" fill="#15384f" stroke="#15384f"></path><path d="M301 504L399 600L384 499Z" fill="#112e42" stroke="#112e42"></path><path d="M204 600L289 600L212 501Z" fill="#297ea6" stroke="#297ea6"></path><path d="M289 600L399 600L301 504Z" fill="#297ea6" stroke="#297ea6"></path><path d="M212 112L133 133L188 217Z" fill="#246688" stroke="#246688"></path><path d="M597 492L611 427L516 421Z" fill="#19435d" stroke="#19435d"></path><path d="M516 421L611 427L588 290Z" fill="#00101c" stroke="#00101c"></path><path d="M597 492L516 421L471 497Z" fill="#19435d" stroke="#19435d"></path><path d="M77 512L204 600L212 501Z" fill="#081a28" stroke="#081a28"></path><path d="M615 172L496 230L537 261Z" fill="#112e42" stroke="#112e42"></path><path d="M429 89L388 0L316 103Z" fill="#112e42" stroke="#112e42"></path><path d="M522 600L597 492L471 497Z" fill="#00101c" stroke="#00101c"></path><path d="M0 421L77 512L121 403Z" fill="#297ea6" stroke="#297ea6"></path><path d="M121 403L77 512L212 501Z" fill="#277297" stroke="#277297"></path><path d="M0 421L121 403L120 294Z" fill="#112e42" stroke="#112e42"></path><path d="M588 290L615 172L537 261Z" fill="#00101c" stroke="#00101c"></path><path d="M663 190L615 172L588 290Z" fill="#277297" stroke="#277297"></path><path d="M399 600L522 600L471 497Z" fill="#19435d" stroke="#19435d"></path><path d="M461 0L429 89L488 76Z" fill="#112e42" stroke="#112e42"></path><path d="M461 0L388 0L429 89Z" fill="#0c2435" stroke="#0c2435"></path><path d="M212 112L162 0L133 133Z" fill="#00101c" stroke="#00101c"></path><path d="M730 505L675 362L611 427Z" fill="#0c2435" stroke="#0c2435"></path><path d="M611 427L675 362L588 290Z" fill="#15384f" stroke="#15384f"></path><path d="M388 0L272 0L316 103Z" fill="#00101c" stroke="#00101c"></path><path d="M0 193L0 277L123 182Z" fill="#205a7a" stroke="#205a7a"></path><path d="M123 182L0 277L120 294Z" fill="#277297" stroke="#277297"></path><path d="M0 277L0 421L120 294Z" fill="#15384f" stroke="#15384f"></path><path d="M615 172L588 87L496 230Z" fill="#19435d" stroke="#19435d"></path><path d="M731 278L663 190L588 290Z" fill="#297ea6" stroke="#297ea6"></path><path d="M615 172L716 95L588 87Z" fill="#19435d" stroke="#19435d"></path><path d="M573 0L461 0L488 76Z" fill="#205a7a" stroke="#205a7a"></path><path d="M133 133L0 193L123 182Z" fill="#205a7a" stroke="#205a7a"></path><path d="M0 84L0 193L133 133Z" fill="#1d4e6b" stroke="#1d4e6b"></path><path d="M77 512L72 600L204 600Z" fill="#205a7a" stroke="#205a7a"></path><path d="M0 510L72 600L77 512Z" fill="#081a28" stroke="#081a28"></path><path d="M272 0L162 0L212 112Z" fill="#1d4e6b" stroke="#1d4e6b"></path><path d="M0 421L0 510L77 512Z" fill="#19435d" stroke="#19435d"></path><path d="M522 600L617 600L597 492Z" fill="#277297" stroke="#277297"></path><path d="M597 492L730 505L611 427Z" fill="#00101c" stroke="#00101c"></path><path d="M810 299L731 278L675 362Z" fill="#1d4e6b" stroke="#1d4e6b"></path><path d="M675 362L731 278L588 290Z" fill="#205a7a" stroke="#205a7a"></path><path d="M665 0L573 0L588 87Z" fill="#00101c" stroke="#00101c"></path><path d="M162 0L111 0L133 133Z" fill="#081a28" stroke="#081a28"></path><path d="M716 95L615 172L663 190Z" fill="#0c2435" stroke="#0c2435"></path><path d="M588 87L573 0L488 76Z" fill="#205a7a" stroke="#205a7a"></path><path d="M111 0L0 84L133 133Z" fill="#1d4e6b" stroke="#1d4e6b"></path><path d="M681 600L730 505L597 492Z" fill="#19435d" stroke="#19435d"></path><path d="M0 510L0 600L72 600Z" fill="#0c2435" stroke="#0c2435"></path><path d="M617 600L681 600L597 492Z" fill="#0c2435" stroke="#0c2435"></path><path d="M821 233L716 95L663 190Z" fill="#246688" stroke="#246688"></path><path d="M716 95L665 0L588 87Z" fill="#00101c" stroke="#00101c"></path><path d="M817 433L810 299L675 362Z" fill="#277297" stroke="#277297"></path><path d="M731 278L821 233L663 190Z" fill="#112e42" stroke="#112e42"></path><path d="M111 0L0 0L0 84Z" fill="#15384f" stroke="#15384f"></path><path d="M730 505L817 433L675 362Z" fill="#246688" stroke="#246688"></path><path d="M798 524L817 433L730 505Z" fill="#00101c" stroke="#00101c"></path><path d="M900 288L821 233L810 299Z" fill="#19435d" stroke="#19435d"></path><path d="M810 299L821 233L731 278Z" fill="#297ea6" stroke="#297ea6"></path><path d="M716 95L767 0L665 0Z" fill="#0c2435" stroke="#0c2435"></path><path d="M681 600L798 524L730 505Z" fill="#1d4e6b" stroke="#1d4e6b"></path><path d="M821 233L804 76L716 95Z" fill="#15384f" stroke="#15384f"></path><path d="M804 76L767 0L716 95Z" fill="#1d4e6b" stroke="#1d4e6b"></path><path d="M681 600L822 600L798 524Z" fill="#112e42" stroke="#112e42"></path><path d="M900 475L900 392L817 433Z" fill="#1d4e6b" stroke="#1d4e6b"></path><path d="M900 392L900 288L810 299Z" fill="#112e42" stroke="#112e42"></path><path d="M900 392L810 299L817 433Z" fill="#081a28" stroke="#081a28"></path><path d="M821 233L900 109L804 76Z" fill="#0c2435" stroke="#0c2435"></path><path d="M900 475L817 433L798 524Z" fill="#297ea6" stroke="#297ea6"></path><path d="M900 288L900 237L821 233Z" fill="#0c2435" stroke="#0c2435"></path><path d="M804 76L900 0L767 0Z" fill="#081a28" stroke="#081a28"></path><path d="M900 600L900 475L798 524Z" fill="#277297" stroke="#277297"></path><path d="M900 237L900 109L821 233Z" fill="#081a28" stroke="#081a28"></path><path d="M822 600L900 600L798 524Z" fill="#0c2435" stroke="#0c2435"></path><path d="M900 109L900 0L804 76Z" fill="#1d4e6b" stroke="#1d4e6b"></path></g></svg>