<svg preserveAspectRatio="none" width="100%" height="100%" overflow="visible" style="display: block;" viewBox="0 0 600 475" fill="none" xmlns="http://www.w3.org/2000/svg">
<g id="Telemetry Illustration C 1" clip-path="url(#clip0_0_27)">
<path id="Vector" d="M600 0H0V475H600V0Z" fill="var(--fill-0, black)" fill-opacity="0.4"/>
<path id="Vector_2" d="M32.744 36V24.32H34.472V34.416H39.576V36H32.744ZM44.0818 36V34.464H46.4338V25.856H44.0818V24.32H50.5458V25.856H48.1938V34.464H50.5458V36H44.0818ZM57.6755 36L54.7155 24.32H56.4915L58.3635 32.096C58.4808 32.5547 58.5822 33.0133 58.6675 33.472C58.7635 33.92 58.8328 34.272 58.8755 34.528C58.9182 34.272 58.9768 33.92 59.0515 33.472C59.1368 33.0133 59.2382 32.5493 59.3555 32.08L61.2115 24.32H62.9395L59.9635 36H57.6755ZM67.0452 36V24.32H73.9092V25.856H68.7412V29.168H73.3492V30.688H68.7412V34.464H73.9092V36H67.0452ZM92.5047 36V25.904H89.3847V24.304H97.3527V25.904H94.2327V36H92.5047ZM101.586 36V24.32H108.45V25.856H103.282V29.168H107.89V30.688H103.282V34.464H108.45V36H101.586ZM113.34 36V24.32H115.068V34.416H120.172V36H113.34ZM124.614 36V24.32H131.478V25.856H126.31V29.168H130.918V30.688H126.31V34.464H131.478V36H124.614ZM135.68 36V24.32H137.808L138.976 28.064C139.093 28.416 139.194 28.7573 139.28 29.088C139.365 29.408 139.424 29.648 139.456 29.808C139.498 29.648 139.557 29.408 139.632 29.088C139.717 28.7573 139.813 28.416 139.92 28.064L141.04 24.32H143.168V36H141.536V32.064C141.536 31.5627 141.546 31.008 141.568 30.4C141.6 29.7813 141.642 29.1627 141.696 28.544C141.749 27.9147 141.802 27.3173 141.856 26.752C141.909 26.176 141.957 25.6747 142 25.248L140.272 30.928H138.608L136.848 25.248C136.901 25.664 136.954 26.1493 137.008 26.704C137.061 27.248 137.109 27.8293 137.152 28.448C137.194 29.0667 137.232 29.6907 137.264 30.32C137.296 30.9387 137.312 31.52 137.312 32.064V36H135.68ZM147.641 36V24.32H154.505V25.856H149.337V29.168H153.945V30.688H149.337V34.464H154.505V36H147.641ZM161.587 36V25.904H158.467V24.304H166.435V25.904H163.315V36H161.587ZM170.509 36V24.32H174.173C174.909 24.32 175.549 24.464 176.093 24.752C176.637 25.0293 177.058 25.424 177.357 25.936C177.666 26.448 177.821 27.0507 177.821 27.744C177.821 28.5227 177.618 29.2 177.213 29.776C176.818 30.3413 176.28 30.7413 175.597 30.976L177.981 36H176.013L173.885 31.2H172.237V36H170.509ZM172.237 29.68H174.173C174.749 29.68 175.208 29.5093 175.549 29.168C175.89 28.816 176.061 28.352 176.061 27.776C176.061 27.1787 175.89 26.7093 175.549 26.368C175.208 26.0267 174.749 25.856 174.173 25.856H172.237V29.68ZM184.615 36V31.696L181.143 24.32H182.935L184.999 28.736C185.137 29.024 185.249 29.296 185.335 29.552C185.42 29.7973 185.479 29.9893 185.511 30.128C185.532 29.9893 185.585 29.7973 185.671 29.552C185.767 29.296 185.879 29.024 186.007 28.736L188.023 24.32H189.815L186.343 31.696V36H184.615Z" fill="var(--fill-0, #FF45CE)"/>
<path id="Vector_3" d="M33.07 114V100.86H34.69V112.524H40.63V114H33.07ZM45.753 114V100.86H53.313V102.336H47.355V106.404H52.683V107.862H47.355V112.524H53.313V114H45.753ZM57.8059 114L61.2259 100.86H63.4039L66.8059 114H65.1679L64.3039 110.508H60.3259L59.4619 114H57.8059ZM60.6499 109.14H63.9619L62.9539 105.09C62.7619 104.322 62.6119 103.68 62.5039 103.164C62.3959 102.648 62.3299 102.312 62.3059 102.156C62.2819 102.312 62.2159 102.648 62.1079 103.164C61.9999 103.68 61.8499 104.316 61.6579 105.072L60.6499 109.14ZM71.5149 114V100.86H74.9169C75.7689 100.86 76.5009 101.022 77.1129 101.346C77.7369 101.67 78.2169 102.126 78.5529 102.714C78.9009 103.302 79.0749 103.998 79.0749 104.802V110.04C79.0749 110.844 78.9009 111.546 78.5529 112.146C78.2169 112.734 77.7369 113.19 77.1129 113.514C76.5009 113.838 75.7689 114 74.9169 114H71.5149ZM73.1349 112.56H74.9169C75.7089 112.56 76.3269 112.338 76.7709 111.894C77.2269 111.45 77.4549 110.832 77.4549 110.04V104.802C77.4549 104.022 77.2269 103.41 76.7709 102.966C76.3269 102.522 75.7089 102.3 74.9169 102.3H73.1349V112.56ZM84.6119 114V100.86H92.1719V102.336H86.2139V106.404H91.5419V107.862H86.2139V112.524H92.1719V114H84.6119ZM97.4208 114V100.86H101.489C102.269 100.86 102.953 101.022 103.541 101.346C104.129 101.658 104.585 102.096 104.909 102.66C105.233 103.224 105.395 103.884 105.395 104.64C105.395 105.528 105.161 106.29 104.693 106.926C104.237 107.562 103.613 108 102.821 108.24L105.575 114H103.667L101.147 108.42H99.0408V114H97.4208ZM99.0408 106.962H101.489C102.161 106.962 102.701 106.752 103.109 106.332C103.517 105.9 103.721 105.336 103.721 104.64C103.721 103.932 103.517 103.368 103.109 102.948C102.701 102.528 102.161 102.318 101.489 102.318H99.0408V106.962ZM114.19 114.18C113.326 114.18 112.582 114.036 111.958 113.748C111.346 113.46 110.872 113.046 110.536 112.506C110.2 111.966 110.026 111.324 110.014 110.58H111.634C111.634 111.24 111.856 111.762 112.3 112.146C112.756 112.53 113.386 112.722 114.19 112.722C114.946 112.722 115.534 112.536 115.954 112.164C116.386 111.792 116.602 111.276 116.602 110.616C116.602 110.088 116.458 109.626 116.17 109.23C115.894 108.834 115.492 108.558 114.964 108.402L113.182 107.844C112.282 107.568 111.586 107.106 111.094 106.458C110.614 105.81 110.374 105.048 110.374 104.172C110.374 103.464 110.53 102.852 110.842 102.336C111.166 101.808 111.616 101.4 112.192 101.112C112.768 100.812 113.446 100.662 114.226 100.662C115.378 100.662 116.302 100.986 116.998 101.634C117.694 102.27 118.048 103.122 118.06 104.19H116.44C116.44 103.542 116.242 103.038 115.846 102.678C115.462 102.306 114.916 102.12 114.208 102.12C113.512 102.12 112.966 102.288 112.57 102.624C112.186 102.96 111.994 103.428 111.994 104.028C111.994 104.568 112.138 105.036 112.426 105.432C112.714 105.828 113.128 106.11 113.668 106.278L115.468 106.854C116.344 107.13 117.022 107.598 117.502 108.258C117.982 108.918 118.222 109.692 118.222 110.58C118.222 111.3 118.054 111.93 117.718 112.47C117.382 113.01 116.908 113.43 116.296 113.73C115.696 114.03 114.994 114.18 114.19 114.18ZM123.345 114V100.86H124.965V106.476H129.177V100.86H130.797V114H129.177V107.952H124.965V114H123.345ZM136.514 114V112.524H139.196V102.336H136.514V100.86H143.534V102.336H140.852V112.524H143.534V114H136.514ZM149.233 114V100.86H153.463C154.279 100.86 154.987 101.022 155.587 101.346C156.187 101.658 156.649 102.102 156.973 102.678C157.309 103.254 157.477 103.938 157.477 104.73C157.477 105.51 157.309 106.194 156.973 106.782C156.649 107.358 156.187 107.808 155.587 108.132C154.987 108.444 154.279 108.6 153.463 108.6H150.853V114H149.233ZM150.853 107.142H153.463C154.171 107.142 154.735 106.926 155.155 106.494C155.587 106.05 155.803 105.462 155.803 104.73C155.803 103.986 155.587 103.398 155.155 102.966C154.735 102.534 154.171 102.318 153.463 102.318H150.853V107.142Z" fill="var(--fill-0, white)"/>
<path id="Vector_4" d="M36.472 188.18C35.68 188.18 34.99 188.03 34.402 187.73C33.826 187.43 33.376 186.998 33.052 186.434C32.74 185.858 32.584 185.18 32.584 184.4V178.46C32.584 177.668 32.74 176.99 33.052 176.426C33.376 175.862 33.826 175.43 34.402 175.13C34.99 174.83 35.68 174.68 36.472 174.68C37.264 174.68 37.948 174.836 38.524 175.148C39.1 175.448 39.544 175.88 39.856 176.444C40.168 177.008 40.324 177.68 40.324 178.46H38.704C38.704 177.716 38.506 177.146 38.11 176.75C37.726 176.342 37.18 176.138 36.472 176.138C35.764 176.138 35.206 176.336 34.798 176.732C34.402 177.128 34.204 177.698 34.204 178.442V184.4C34.204 185.144 34.402 185.72 34.798 186.128C35.206 186.524 35.764 186.722 36.472 186.722C37.18 186.722 37.726 186.524 38.11 186.128C38.506 185.72 38.704 185.144 38.704 184.4H40.324C40.324 185.168 40.168 185.84 39.856 186.416C39.544 186.98 39.1 187.418 38.524 187.73C37.948 188.03 37.264 188.18 36.472 188.18ZM49.353 188.18C48.561 188.18 47.877 188.03 47.301 187.73C46.737 187.43 46.299 186.998 45.987 186.434C45.687 185.858 45.537 185.18 45.537 184.4V178.46C45.537 177.668 45.687 176.99 45.987 176.426C46.299 175.862 46.737 175.43 47.301 175.13C47.877 174.83 48.561 174.68 49.353 174.68C50.145 174.68 50.823 174.83 51.387 175.13C51.963 175.43 52.401 175.862 52.701 176.426C53.013 176.99 53.169 177.662 53.169 178.442V184.4C53.169 185.18 53.013 185.858 52.701 186.434C52.401 186.998 51.963 187.43 51.387 187.73C50.823 188.03 50.145 188.18 49.353 188.18ZM49.353 186.722C50.061 186.722 50.601 186.524 50.973 186.128C51.357 185.72 51.549 185.144 51.549 184.4V178.46C51.549 177.716 51.357 177.146 50.973 176.75C50.601 176.342 50.061 176.138 49.353 176.138C48.657 176.138 48.117 176.342 47.733 176.75C47.349 177.146 47.157 177.716 47.157 178.46V184.4C47.157 185.144 47.349 185.72 47.733 186.128C48.117 186.524 48.657 186.722 49.353 186.722ZM58.9759 188V174.86H60.5959V186.524H66.5359V188H58.9759ZM71.9289 188V174.86H73.5489V186.524H79.4889V188H71.9289ZM83.7119 188L87.1319 174.86H89.3099L92.7119 188H91.0739L90.2099 184.508H86.2319L85.3679 188H83.7119ZM86.5559 183.14H89.8679L88.8599 179.09C88.6679 178.322 88.5179 177.68 88.4099 177.164C88.3019 176.648 88.2359 176.312 88.2119 176.156C88.1879 176.312 88.1219 176.648 88.0139 177.164C87.9059 177.68 87.7559 178.316 87.5639 179.072L86.5559 183.14ZM97.4388 188V174.86H101.165C102.365 174.86 103.301 175.16 103.973 175.76C104.657 176.36 104.999 177.194 104.999 178.262C104.999 178.862 104.873 179.384 104.621 179.828C104.369 180.272 104.009 180.614 103.541 180.854C103.085 181.094 102.533 181.208 101.885 181.196V180.926C102.581 180.914 103.181 181.046 103.685 181.322C104.201 181.598 104.597 181.994 104.873 182.51C105.161 183.026 105.305 183.638 105.305 184.346C105.305 185.09 105.149 185.738 104.837 186.29C104.525 186.842 104.081 187.268 103.505 187.568C102.929 187.856 102.239 188 101.435 188H97.4388ZM99.0228 186.542H101.255C102.011 186.542 102.605 186.344 103.037 185.948C103.481 185.54 103.703 184.988 103.703 184.292C103.703 183.572 103.481 182.99 103.037 182.546C102.605 182.09 102.011 181.862 101.255 181.862H99.0228V186.542ZM99.0228 180.458H101.147C101.843 180.458 102.389 180.272 102.785 179.9C103.193 179.528 103.397 179.024 103.397 178.388C103.397 177.752 103.199 177.248 102.803 176.876C102.407 176.504 101.861 176.318 101.165 176.318H99.0228V180.458ZM114.118 188.18C113.326 188.18 112.642 188.03 112.066 187.73C111.502 187.43 111.064 186.998 110.752 186.434C110.452 185.858 110.302 185.18 110.302 184.4V178.46C110.302 177.668 110.452 176.99 110.752 176.426C111.064 175.862 111.502 175.43 112.066 175.13C112.642 174.83 113.326 174.68 114.118 174.68C114.91 174.68 115.588 174.83 116.152 175.13C116.728 175.43 117.166 175.862 117.466 176.426C117.778 176.99 117.934 177.662 117.934 178.442V184.4C117.934 185.18 117.778 185.858 117.466 186.434C117.166 186.998 116.728 187.43 116.152 187.73C115.588 188.03 114.91 188.18 114.118 188.18ZM114.118 186.722C114.826 186.722 115.366 186.524 115.738 186.128C116.122 185.72 116.314 185.144 116.314 184.4V178.46C116.314 177.716 116.122 177.146 115.738 176.75C115.366 176.342 114.826 176.138 114.118 176.138C113.422 176.138 112.882 176.342 112.498 176.75C112.114 177.146 111.922 177.716 111.922 178.46V184.4C111.922 185.144 112.114 185.72 112.498 186.128C112.882 186.524 113.422 186.722 114.118 186.722ZM123.327 188V174.86H127.395C128.175 174.86 128.859 175.022 129.447 175.346C130.035 175.658 130.491 176.096 130.815 176.66C131.139 177.224 131.301 177.884 131.301 178.64C131.301 179.528 131.067 180.29 130.599 180.926C130.143 181.562 129.519 182 128.727 182.24L131.481 188H129.573L127.053 182.42H124.947V188H123.327ZM124.947 180.962H127.395C128.067 180.962 128.607 180.752 129.015 180.332C129.423 179.9 129.627 179.336 129.627 178.64C129.627 177.932 129.423 177.368 129.015 176.948C128.607 176.528 128.067 176.318 127.395 176.318H124.947V180.962ZM135.524 188L138.944 174.86H141.122L144.524 188H142.886L142.022 184.508H138.044L137.18 188H135.524ZM138.368 183.14H141.68L140.672 179.09C140.48 178.322 140.33 177.68 140.222 177.164C140.114 176.648 140.048 176.312 140.024 176.156C140 176.312 139.934 176.648 139.826 177.164C139.718 177.68 139.568 178.316 139.376 179.072L138.368 183.14ZM152.167 188V176.318H148.567V174.842H157.387V176.318H153.787V188H152.167ZM162.42 188V186.524H165.102V176.336H162.42V174.86H169.44V176.336H166.758V186.524H169.44V188H162.42ZM178.883 188.18C178.091 188.18 177.407 188.03 176.831 187.73C176.267 187.43 175.829 186.998 175.517 186.434C175.217 185.858 175.067 185.18 175.067 184.4V178.46C175.067 177.668 175.217 176.99 175.517 176.426C175.829 175.862 176.267 175.43 176.831 175.13C177.407 174.83 178.091 174.68 178.883 174.68C179.675 174.68 180.353 174.83 180.917 175.13C181.493 175.43 181.931 175.862 182.231 176.426C182.543 176.99 182.699 177.662 182.699 178.442V184.4C182.699 185.18 182.543 185.858 182.231 186.434C181.931 186.998 181.493 187.43 180.917 187.73C180.353 188.03 179.675 188.18 178.883 188.18ZM178.883 186.722C179.591 186.722 180.131 186.524 180.503 186.128C180.887 185.72 181.079 185.144 181.079 184.4V178.46C181.079 177.716 180.887 177.146 180.503 176.75C180.131 176.342 179.591 176.138 178.883 176.138C178.187 176.138 177.647 176.342 177.263 176.75C176.879 177.146 176.687 177.716 176.687 178.46V184.4C176.687 185.144 176.879 185.72 177.263 186.128C177.647 186.524 178.187 186.722 178.883 186.722ZM188.056 188V174.86H190.216L194.23 186.11C194.206 185.81 194.176 185.444 194.14 185.012C194.116 184.568 194.092 184.106 194.068 183.626C194.056 183.134 194.05 182.672 194.05 182.24V174.86H195.616V188H193.456L189.46 176.75C189.484 177.038 189.508 177.404 189.532 177.848C189.556 178.28 189.574 178.742 189.586 179.234C189.61 179.714 189.622 180.176 189.622 180.62V188H188.056Z" fill="var(--fill-0, white)"/>
<path id="Vector_5" d="M32.656 262V248.86H36.886C37.702 248.86 38.41 249.022 39.01 249.346C39.61 249.658 40.072 250.102 40.396 250.678C40.732 251.254 40.9 251.938 40.9 252.73C40.9 253.51 40.732 254.194 40.396 254.782C40.072 255.358 39.61 255.808 39.01 256.132C38.41 256.444 37.702 256.6 36.886 256.6H34.276V262H32.656ZM34.276 255.142H36.886C37.594 255.142 38.158 254.926 38.578 254.494C39.01 254.05 39.226 253.462 39.226 252.73C39.226 251.986 39.01 251.398 38.578 250.966C38.158 250.534 37.594 250.318 36.886 250.318H34.276V255.142ZM45.609 262V248.86H49.677C50.457 248.86 51.141 249.022 51.729 249.346C52.317 249.658 52.773 250.096 53.097 250.66C53.421 251.224 53.583 251.884 53.583 252.64C53.583 253.528 53.349 254.29 52.881 254.926C52.425 255.562 51.801 256 51.009 256.24L53.763 262H51.855L49.335 256.42H47.229V262H45.609ZM47.229 254.962H49.677C50.349 254.962 50.889 254.752 51.297 254.332C51.705 253.9 51.909 253.336 51.909 252.64C51.909 251.932 51.705 251.368 51.297 250.948C50.889 250.528 50.349 250.318 49.677 250.318H47.229V254.962ZM62.3059 262.18C61.5139 262.18 60.8299 262.03 60.2539 261.73C59.6899 261.43 59.2519 260.998 58.9399 260.434C58.6399 259.858 58.4899 259.18 58.4899 258.4V252.46C58.4899 251.668 58.6399 250.99 58.9399 250.426C59.2519 249.862 59.6899 249.43 60.2539 249.13C60.8299 248.83 61.5139 248.68 62.3059 248.68C63.0979 248.68 63.7759 248.83 64.3399 249.13C64.9159 249.43 65.3539 249.862 65.6539 250.426C65.9659 250.99 66.1219 251.662 66.1219 252.442V258.4C66.1219 259.18 65.9659 259.858 65.6539 260.434C65.3539 260.998 64.9159 261.43 64.3399 261.73C63.7759 262.03 63.0979 262.18 62.3059 262.18ZM62.3059 260.722C63.0139 260.722 63.5539 260.524 63.9259 260.128C64.3099 259.72 64.5019 259.144 64.5019 258.4V252.46C64.5019 251.716 64.3099 251.146 63.9259 250.75C63.5539 250.342 63.0139 250.138 62.3059 250.138C61.6099 250.138 61.0699 250.342 60.6859 250.75C60.3019 251.146 60.1099 251.716 60.1099 252.46V258.4C60.1099 259.144 60.3019 259.72 60.6859 260.128C61.0699 260.524 61.6099 260.722 62.3059 260.722ZM71.5329 262V248.86H75.2589C76.4589 248.86 77.3949 249.16 78.0669 249.76C78.7509 250.36 79.0929 251.194 79.0929 252.262C79.0929 252.862 78.9669 253.384 78.7149 253.828C78.4629 254.272 78.1029 254.614 77.6349 254.854C77.1789 255.094 76.6269 255.208 75.9789 255.196V254.926C76.6749 254.914 77.2749 255.046 77.7789 255.322C78.2949 255.598 78.6909 255.994 78.9669 256.51C79.2549 257.026 79.3989 257.638 79.3989 258.346C79.3989 259.09 79.2429 259.738 78.9309 260.29C78.6189 260.842 78.1749 261.268 77.5989 261.568C77.0229 261.856 76.3329 262 75.5289 262H71.5329ZM73.1169 260.542H75.3489C76.1049 260.542 76.6989 260.344 77.1309 259.948C77.5749 259.54 77.7969 258.988 77.7969 258.292C77.7969 257.572 77.5749 256.99 77.1309 256.546C76.6989 256.09 76.1049 255.862 75.3489 255.862H73.1169V260.542ZM73.1169 254.458H75.2409C75.9369 254.458 76.4829 254.272 76.8789 253.9C77.2869 253.528 77.4909 253.024 77.4909 252.388C77.4909 251.752 77.2929 251.248 76.8969 250.876C76.5009 250.504 75.9549 250.318 75.2589 250.318H73.1169V254.458ZM84.8819 262V248.86H86.5019V260.524H92.4419V262H84.8819ZM97.5648 262V248.86H105.125V250.336H99.1668V254.404H104.495V255.862H99.1668V260.524H105.125V262H97.5648ZM110.086 262V248.86H112.21L113.578 253.108C113.71 253.492 113.83 253.876 113.938 254.26C114.046 254.632 114.124 254.92 114.172 255.124C114.232 254.92 114.31 254.632 114.406 254.26C114.502 253.876 114.61 253.486 114.73 253.09L116.026 248.86H118.15V262H116.566V257.23C116.566 256.702 116.584 256.102 116.62 255.43C116.656 254.758 116.704 254.074 116.764 253.378C116.824 252.67 116.884 251.998 116.944 251.362C117.016 250.714 117.076 250.15 117.124 249.67L115 256.24H113.29L111.148 249.67C111.208 250.138 111.268 250.684 111.328 251.308C111.388 251.92 111.442 252.574 111.49 253.27C111.538 253.954 111.58 254.638 111.616 255.322C111.652 256.006 111.67 256.642 111.67 257.23V262H110.086ZM140.096 262.18C139.232 262.18 138.488 262.036 137.864 261.748C137.252 261.46 136.778 261.046 136.442 260.506C136.106 259.966 135.932 259.324 135.92 258.58H137.54C137.54 259.24 137.762 259.762 138.206 260.146C138.662 260.53 139.292 260.722 140.096 260.722C140.852 260.722 141.44 260.536 141.86 260.164C142.292 259.792 142.508 259.276 142.508 258.616C142.508 258.088 142.364 257.626 142.076 257.23C141.8 256.834 141.398 256.558 140.87 256.402L139.088 255.844C138.188 255.568 137.492 255.106 137 254.458C136.52 253.81 136.28 253.048 136.28 252.172C136.28 251.464 136.436 250.852 136.748 250.336C137.072 249.808 137.522 249.4 138.098 249.112C138.674 248.812 139.352 248.662 140.132 248.662C141.284 248.662 142.208 248.986 142.904 249.634C143.6 250.27 143.954 251.122 143.966 252.19H142.346C142.346 251.542 142.148 251.038 141.752 250.678C141.368 250.306 140.822 250.12 140.114 250.12C139.418 250.12 138.872 250.288 138.476 250.624C138.092 250.96 137.9 251.428 137.9 252.028C137.9 252.568 138.044 253.036 138.332 253.432C138.62 253.828 139.034 254.11 139.574 254.278L141.374 254.854C142.25 255.13 142.928 255.598 143.408 256.258C143.888 256.918 144.128 257.692 144.128 258.58C144.128 259.3 143.96 259.93 143.624 260.47C143.288 261.01 142.814 261.43 142.202 261.73C141.602 262.03 140.9 262.18 140.096 262.18ZM152.977 262.18C152.185 262.18 151.501 262.03 150.925 261.73C150.361 261.43 149.923 260.998 149.611 260.434C149.311 259.858 149.161 259.18 149.161 258.4V252.46C149.161 251.668 149.311 250.99 149.611 250.426C149.923 249.862 150.361 249.43 150.925 249.13C151.501 248.83 152.185 248.68 152.977 248.68C153.769 248.68 154.447 248.83 155.011 249.13C155.587 249.43 156.025 249.862 156.325 250.426C156.637 250.99 156.793 251.662 156.793 252.442V258.4C156.793 259.18 156.637 259.858 156.325 260.434C156.025 260.998 155.587 261.43 155.011 261.73C154.447 262.03 153.769 262.18 152.977 262.18ZM152.977 260.722C153.685 260.722 154.225 260.524 154.597 260.128C154.981 259.72 155.173 259.144 155.173 258.4V252.46C155.173 251.716 154.981 251.146 154.597 250.75C154.225 250.342 153.685 250.138 152.977 250.138C152.281 250.138 151.741 250.342 151.357 250.75C150.973 251.146 150.781 251.716 150.781 252.46V258.4C150.781 259.144 150.973 259.72 151.357 260.128C151.741 260.524 152.281 260.722 152.977 260.722ZM162.6 262V248.86H164.22V260.524H170.16V262H162.6ZM177.767 262L174.383 248.86H176.057L178.289 257.788C178.445 258.412 178.577 258.994 178.685 259.534C178.793 260.062 178.871 260.464 178.919 260.74C178.967 260.464 179.039 260.062 179.135 259.534C179.243 258.994 179.375 258.412 179.531 257.788L181.745 248.86H183.383L179.981 262H177.767ZM188.326 262V260.524H191.008V250.336H188.326V248.86H195.346V250.336H192.664V260.524H195.346V262H188.326ZM201.009 262V248.86H203.169L207.183 260.11C207.159 259.81 207.129 259.444 207.093 259.012C207.069 258.568 207.045 258.106 207.021 257.626C207.009 257.134 207.003 256.672 207.003 256.24V248.86H208.569V262H206.409L202.413 250.75C202.437 251.038 202.461 251.404 202.485 251.848C202.509 252.28 202.527 252.742 202.539 253.234C202.563 253.714 202.575 254.176 202.575 254.62V262H201.009ZM217.814 262.18C217.022 262.18 216.332 262.03 215.744 261.73C215.168 261.43 214.718 260.998 214.394 260.434C214.082 259.858 213.926 259.18 213.926 258.4V252.46C213.926 251.668 214.082 250.99 214.394 250.426C214.718 249.862 215.168 249.43 215.744 249.13C216.332 248.83 217.022 248.68 217.814 248.68C218.606 248.68 219.29 248.836 219.866 249.148C220.442 249.448 220.886 249.88 221.198 250.444C221.51 251.008 221.666 251.68 221.666 252.46H220.046C220.046 251.716 219.848 251.146 219.452 250.75C219.068 250.342 218.522 250.138 217.814 250.138C217.106 250.138 216.548 250.336 216.14 250.732C215.744 251.128 215.546 251.698 215.546 252.442V258.4C215.546 259.144 215.744 259.72 216.14 260.128C216.548 260.536 217.106 260.74 217.814 260.74C218.522 260.74 219.068 260.536 219.452 260.128C219.848 259.72 220.046 259.144 220.046 258.4V256.78H217.382V255.304H221.666V258.4C221.666 259.168 221.51 259.84 221.198 260.416C220.886 260.98 220.442 261.418 219.866 261.73C219.29 262.03 218.606 262.18 217.814 262.18Z" fill="var(--fill-0, white)"/>
<path id="Vector_6" d="M540.301 114.18C539.497 114.18 538.795 114.042 538.195 113.766C537.607 113.478 537.151 113.07 536.827 112.542C536.503 112.014 536.341 111.396 536.341 110.688C536.341 109.908 536.551 109.236 536.971 108.672C537.403 108.108 538.081 107.604 539.005 107.16L540.751 106.314C541.279 106.062 541.687 105.732 541.975 105.324C542.263 104.916 542.407 104.466 542.407 103.974C542.407 103.398 542.215 102.942 541.831 102.606C541.459 102.27 540.949 102.102 540.301 102.102C539.653 102.102 539.137 102.276 538.753 102.624C538.381 102.96 538.195 103.416 538.195 103.992C538.195 104.472 538.333 104.916 538.609 105.324C538.897 105.732 539.287 106.056 539.779 106.296L541.525 107.124C542.485 107.568 543.181 108.078 543.613 108.654C544.045 109.218 544.261 109.896 544.261 110.688C544.261 111.756 543.901 112.608 543.181 113.244C542.473 113.868 541.513 114.18 540.301 114.18ZM540.301 112.74C541.033 112.74 541.609 112.554 542.029 112.182C542.461 111.798 542.677 111.288 542.677 110.652C542.677 110.136 542.539 109.668 542.263 109.248C541.987 108.828 541.591 108.492 541.075 108.24L539.347 107.394C538.387 106.926 537.691 106.422 537.259 105.882C536.827 105.342 536.611 104.694 536.611 103.938C536.611 103.266 536.761 102.684 537.061 102.192C537.361 101.7 537.787 101.322 538.339 101.058C538.891 100.794 539.545 100.662 540.301 100.662C541.057 100.662 541.711 100.794 542.263 101.058C542.815 101.322 543.241 101.7 543.541 102.192C543.841 102.684 543.991 103.266 543.991 103.938C543.991 104.694 543.775 105.342 543.343 105.882C542.911 106.41 542.197 106.92 541.201 107.412L539.473 108.258C538.981 108.498 538.597 108.828 538.321 109.248C538.057 109.656 537.925 110.112 537.925 110.616C537.925 111.264 538.135 111.78 538.555 112.164C538.987 112.548 539.569 112.74 540.301 112.74ZM549.384 114L554.082 102.336H549.114V104.28H547.494V100.86H555.684V102.444L551.13 114H549.384ZM557.459 114L566.423 100.86H567.755L558.791 114H557.459ZM565.217 114.09C564.461 114.09 563.855 113.874 563.399 113.442C562.943 113.01 562.715 112.416 562.715 111.66V110.49C562.715 109.734 562.943 109.14 563.399 108.708C563.855 108.276 564.461 108.06 565.217 108.06C565.973 108.06 566.579 108.276 567.035 108.708C567.491 109.14 567.719 109.734 567.719 110.49V111.66C567.719 112.416 567.491 113.01 567.035 113.442C566.579 113.874 565.973 114.09 565.217 114.09ZM565.217 112.848C565.997 112.848 566.387 112.452 566.387 111.66V110.49C566.387 109.686 565.997 109.284 565.217 109.284C564.437 109.284 564.047 109.686 564.047 110.49V111.66C564.047 112.452 564.437 112.848 565.217 112.848ZM559.997 106.8C559.241 106.8 558.635 106.584 558.179 106.152C557.723 105.72 557.495 105.126 557.495 104.37V103.2C557.495 102.444 557.723 101.85 558.179 101.418C558.635 100.986 559.241 100.77 559.997 100.77C560.753 100.77 561.359 100.986 561.815 101.418C562.271 101.85 562.499 102.444 562.499 103.2V104.37C562.499 105.126 562.271 105.72 561.815 106.152C561.359 106.584 560.753 106.8 559.997 106.8ZM559.997 105.576C560.777 105.576 561.167 105.174 561.167 104.37V103.2C561.167 102.396 560.777 101.994 559.997 101.994C559.613 101.994 559.319 102.096 559.115 102.3C558.923 102.492 558.827 102.792 558.827 103.2V104.37C558.827 104.778 558.923 105.084 559.115 105.288C559.319 105.48 559.613 105.576 559.997 105.576Z" fill="var(--fill-0, #FF45CE)"/>
<path id="Vector_7" d="M538.267 188L541.993 182.024L541.921 181.97C541.693 182.306 541.381 182.564 540.985 182.744C540.589 182.924 540.145 183.014 539.653 183.014C538.945 183.014 538.321 182.846 537.781 182.51C537.253 182.174 536.845 181.7 536.557 181.088C536.269 180.464 536.125 179.738 536.125 178.91C536.125 178.058 536.299 177.32 536.647 176.696C536.995 176.06 537.481 175.568 538.105 175.22C538.729 174.86 539.455 174.68 540.283 174.68C541.123 174.68 541.855 174.86 542.479 175.22C543.115 175.568 543.607 176.06 543.955 176.696C544.303 177.32 544.477 178.058 544.477 178.91C544.477 179.57 544.381 180.218 544.189 180.854C544.009 181.49 543.733 182.102 543.361 182.69L540.067 188H538.267ZM540.301 181.7C541.069 181.7 541.687 181.448 542.155 180.944C542.623 180.428 542.857 179.75 542.857 178.91C542.857 178.07 542.623 177.398 542.155 176.894C541.687 176.378 541.069 176.12 540.301 176.12C539.533 176.12 538.915 176.378 538.447 176.894C537.979 177.398 537.745 178.07 537.745 178.91C537.745 179.75 537.979 180.428 538.447 180.944C538.915 181.448 539.533 181.7 540.301 181.7ZM547.71 188V186.344L551.724 182.078C552.408 181.346 552.906 180.698 553.218 180.134C553.53 179.558 553.686 179.006 553.686 178.478C553.686 177.746 553.482 177.17 553.074 176.75C552.678 176.33 552.132 176.12 551.436 176.12C550.668 176.12 550.062 176.336 549.618 176.768C549.186 177.2 548.97 177.794 548.97 178.55H547.35C547.374 177.758 547.554 177.074 547.89 176.498C548.238 175.91 548.712 175.46 549.312 175.148C549.924 174.836 550.632 174.68 551.436 174.68C552.228 174.68 552.912 174.836 553.488 175.148C554.076 175.448 554.526 175.88 554.838 176.444C555.15 177.008 555.306 177.68 555.306 178.46C555.306 179.204 555.108 179.942 554.712 180.674C554.316 181.406 553.668 182.24 552.768 183.176L549.528 186.524H555.522V188H547.71ZM557.459 188L566.423 174.86H567.755L558.791 188H557.459ZM565.217 188.09C564.461 188.09 563.855 187.874 563.399 187.442C562.943 187.01 562.715 186.416 562.715 185.66V184.49C562.715 183.734 562.943 183.14 563.399 182.708C563.855 182.276 564.461 182.06 565.217 182.06C565.973 182.06 566.579 182.276 567.035 182.708C567.491 183.14 567.719 183.734 567.719 184.49V185.66C567.719 186.416 567.491 187.01 567.035 187.442C566.579 187.874 565.973 188.09 565.217 188.09ZM565.217 186.848C565.997 186.848 566.387 186.452 566.387 185.66V184.49C566.387 183.686 565.997 183.284 565.217 183.284C564.437 183.284 564.047 183.686 564.047 184.49V185.66C564.047 186.452 564.437 186.848 565.217 186.848ZM559.997 180.8C559.241 180.8 558.635 180.584 558.179 180.152C557.723 179.72 557.495 179.126 557.495 178.37V177.2C557.495 176.444 557.723 175.85 558.179 175.418C558.635 174.986 559.241 174.77 559.997 174.77C560.753 174.77 561.359 174.986 561.815 175.418C562.271 175.85 562.499 176.444 562.499 177.2V178.37C562.499 179.126 562.271 179.72 561.815 180.152C561.359 180.584 560.753 180.8 559.997 180.8ZM559.997 179.576C560.777 179.576 561.167 179.174 561.167 178.37V177.2C561.167 176.396 560.777 175.994 559.997 175.994C559.613 175.994 559.319 176.096 559.115 176.3C558.923 176.492 558.827 176.792 558.827 177.2V178.37C558.827 178.778 558.923 179.084 559.115 179.288C559.319 179.48 559.613 179.576 559.997 179.576Z" fill="var(--fill-0, #FF45CE)"/>
<path id="Vector_8" d="M538.231 262L542.929 250.336H537.961V252.28H536.341V248.86H544.531V250.444L539.977 262H538.231ZM551.454 262.18C550.65 262.18 549.948 262.042 549.348 261.766C548.76 261.478 548.304 261.07 547.98 260.542C547.656 260.014 547.494 259.396 547.494 258.688C547.494 257.908 547.704 257.236 548.124 256.672C548.556 256.108 549.234 255.604 550.158 255.16L551.904 254.314C552.432 254.062 552.84 253.732 553.128 253.324C553.416 252.916 553.56 252.466 553.56 251.974C553.56 251.398 553.368 250.942 552.984 250.606C552.612 250.27 552.102 250.102 551.454 250.102C550.806 250.102 550.29 250.276 549.906 250.624C549.534 250.96 549.348 251.416 549.348 251.992C549.348 252.472 549.486 252.916 549.762 253.324C550.05 253.732 550.44 254.056 550.932 254.296L552.678 255.124C553.638 255.568 554.334 256.078 554.766 256.654C555.198 257.218 555.414 257.896 555.414 258.688C555.414 259.756 555.054 260.608 554.334 261.244C553.626 261.868 552.666 262.18 551.454 262.18ZM551.454 260.74C552.186 260.74 552.762 260.554 553.182 260.182C553.614 259.798 553.83 259.288 553.83 258.652C553.83 258.136 553.692 257.668 553.416 257.248C553.14 256.828 552.744 256.492 552.228 256.24L550.5 255.394C549.54 254.926 548.844 254.422 548.412 253.882C547.98 253.342 547.764 252.694 547.764 251.938C547.764 251.266 547.914 250.684 548.214 250.192C548.514 249.7 548.94 249.322 549.492 249.058C550.044 248.794 550.698 248.662 551.454 248.662C552.21 248.662 552.864 248.794 553.416 249.058C553.968 249.322 554.394 249.7 554.694 250.192C554.994 250.684 555.144 251.266 555.144 251.938C555.144 252.694 554.928 253.342 554.496 253.882C554.064 254.41 553.35 254.92 552.354 255.412L550.626 256.258C550.134 256.498 549.75 256.828 549.474 257.248C549.21 257.656 549.078 258.112 549.078 258.616C549.078 259.264 549.288 259.78 549.708 260.164C550.14 260.548 550.722 260.74 551.454 260.74ZM557.459 262L566.423 248.86H567.755L558.791 262H557.459ZM565.217 262.09C564.461 262.09 563.855 261.874 563.399 261.442C562.943 261.01 562.715 260.416 562.715 259.66V258.49C562.715 257.734 562.943 257.14 563.399 256.708C563.855 256.276 564.461 256.06 565.217 256.06C565.973 256.06 566.579 256.276 567.035 256.708C567.491 257.14 567.719 257.734 567.719 258.49V259.66C567.719 260.416 567.491 261.01 567.035 261.442C566.579 261.874 565.973 262.09 565.217 262.09ZM565.217 260.848C565.997 260.848 566.387 260.452 566.387 259.66V258.49C566.387 257.686 565.997 257.284 565.217 257.284C564.437 257.284 564.047 257.686 564.047 258.49V259.66C564.047 260.452 564.437 260.848 565.217 260.848ZM559.997 254.8C559.241 254.8 558.635 254.584 558.179 254.152C557.723 253.72 557.495 253.126 557.495 252.37V251.2C557.495 250.444 557.723 249.85 558.179 249.418C558.635 248.986 559.241 248.77 559.997 248.77C560.753 248.77 561.359 248.986 561.815 249.418C562.271 249.85 562.499 250.444 562.499 251.2V252.37C562.499 253.126 562.271 253.72 561.815 254.152C561.359 254.584 560.753 254.8 559.997 254.8ZM559.997 253.576C560.777 253.576 561.167 253.174 561.167 252.37V251.2C561.167 250.396 560.777 249.994 559.997 249.994C559.613 249.994 559.319 250.096 559.115 250.3C558.923 250.492 558.827 250.792 558.827 251.2V252.37C558.827 252.778 558.923 253.084 559.115 253.288C559.319 253.48 559.613 253.576 559.997 253.576Z" fill="var(--fill-0, #FF45CE)"/>
<path id="Vector_9" d="M469.5 129V142" stroke="var(--stroke-0, white)" stroke-width="5"/>
<path id="Vector_10" d="M520.5 203V216" stroke="var(--stroke-0, white)" stroke-width="5"/>
<path id="Vector_11" d="M440.5 277V290" stroke="var(--stroke-0, white)" stroke-width="5"/>
<path id="Vector_12" d="M31 135.5H467" stroke="var(--stroke-0, #FF45CE)" stroke-width="5"/>
<path id="Vector_13" d="M31 209.5H518" stroke="var(--stroke-0, #FF45CE)" stroke-width="5"/>
<path id="Vector_14" d="M31 283.5H438" stroke="var(--stroke-0, #FF45CE)" stroke-width="5"/>
<path id="Vector_15" d="M472 135.5H568" stroke="var(--stroke-0, #0C2435)" stroke-opacity="0.4" stroke-width="5"/>
<path id="Vector_16" d="M523 209.5H568" stroke="var(--stroke-0, #0C2435)" stroke-opacity="0.4" stroke-width="5"/>
<path id="Vector_17" d="M443 283.5H568" stroke="var(--stroke-0, #0C2435)" stroke-opacity="0.4" stroke-width="5"/>
<path id="Vector_18" d="M31 58H568" stroke="var(--stroke-0, #0C2435)" stroke-opacity="0.4" stroke-width="2"/>
<path id="Vector_19" d="M31 321H568" stroke="var(--stroke-0, #0C2435)" stroke-opacity="0.4" stroke-width="2"/>
<path id="Vector_20" d="M287 352.5H35C33.067 352.5 31.5 354.067 31.5 356V438C31.5 439.933 33.067 441.5 35 441.5H287C288.933 441.5 290.5 439.933 290.5 438V356C290.5 354.067 288.933 352.5 287 352.5Z" fill="var(--fill-0, #FF45CE)" fill-opacity="0.13" stroke="var(--stroke-0, #7E376B)"/>
<path id="Vector_21" d="M119.026 398V391.25C119.026 388.51 120.226 386.9 122.626 386.42L128.176 385.31C128.676 385.21 128.926 384.88 128.926 384.32V382.1C128.926 381.5 128.626 381.2 128.026 381.2H119.626V378.86L121.636 377.3H128.206C131.566 377.3 133.246 378.98 133.246 382.34V384.29C133.246 387.03 132.046 388.64 129.646 389.12L124.096 390.23C123.596 390.33 123.346 390.66 123.346 391.22V394.1H133.246V398H119.026ZM136.61 390.62V387.08H145.61V390.62H136.61ZM148.966 398V391.25C148.966 388.51 150.166 386.9 152.566 386.42L158.116 385.31C158.616 385.21 158.866 384.88 158.866 384.32V382.1C158.866 381.5 158.566 381.2 157.966 381.2H149.566V378.86L151.576 377.3H158.146C161.506 377.3 163.186 378.98 163.186 382.34V384.29C163.186 387.03 161.986 388.64 159.586 389.12L154.036 390.23C153.536 390.33 153.286 390.66 153.286 391.22V394.1H163.186V398H148.966ZM166.91 394.94V391.4L173.24 377.3H176.9L177.41 378.2L171.65 391.04H176.81V385.1H181.13V398H176.81V394.94H166.91ZM185.754 398V377.3H190.074V385.4H197.754V377.3H202.074V398H197.754V389.3H190.074V398H185.754Z" fill="var(--fill-0, #FF45CE)"/>
<path id="Vector_22" d="M101.748 423V412.766H107.768V413.914H102.98V417.316H107.404V418.464H103.008V423H101.748ZM113.293 423.14C112.677 423.14 112.145 423.023 111.697 422.79C111.258 422.557 110.917 422.221 110.675 421.782C110.441 421.334 110.325 420.807 110.325 420.2V415.58C110.325 414.964 110.441 414.437 110.675 413.998C110.917 413.559 111.258 413.223 111.697 412.99C112.145 412.757 112.677 412.64 113.293 412.64C113.909 412.64 114.436 412.757 114.875 412.99C115.323 413.223 115.663 413.559 115.897 413.998C116.139 414.437 116.261 414.959 116.261 415.566V420.2C116.261 420.807 116.139 421.334 115.897 421.782C115.663 422.221 115.323 422.557 114.875 422.79C114.436 423.023 113.909 423.14 113.293 423.14ZM113.293 422.006C113.843 422.006 114.263 421.852 114.553 421.544C114.851 421.227 115.001 420.779 115.001 420.2V415.58C115.001 415.001 114.851 414.558 114.553 414.25C114.263 413.933 113.843 413.774 113.293 413.774C112.751 413.774 112.331 413.933 112.033 414.25C111.734 414.558 111.585 415.001 111.585 415.58V420.2C111.585 420.779 111.734 421.227 112.033 421.544C112.331 421.852 112.751 422.006 113.293 422.006ZM119.055 423V412.78H122.219C122.826 412.78 123.358 412.906 123.815 413.158C124.273 413.401 124.627 413.741 124.879 414.18C125.131 414.619 125.257 415.132 125.257 415.72C125.257 416.411 125.075 417.003 124.711 417.498C124.357 417.993 123.871 418.333 123.255 418.52L125.397 423H123.913L121.953 418.66H120.315V423H119.055ZM120.315 417.526H122.219C122.742 417.526 123.162 417.363 123.479 417.036C123.797 416.7 123.955 416.261 123.955 415.72C123.955 415.169 123.797 414.731 123.479 414.404C123.162 414.077 122.742 413.914 122.219 413.914H120.315V417.526ZM127.506 423V412.78H129.158L130.222 416.084C130.325 416.383 130.418 416.681 130.502 416.98C130.586 417.269 130.647 417.493 130.684 417.652C130.731 417.493 130.791 417.269 130.866 416.98C130.941 416.681 131.025 416.378 131.118 416.07L132.126 412.78H133.778V423H132.546V419.29C132.546 418.879 132.56 418.413 132.588 417.89C132.616 417.367 132.653 416.835 132.7 416.294C132.747 415.743 132.793 415.221 132.84 414.726C132.896 414.222 132.943 413.783 132.98 413.41L131.328 418.52H129.998L128.332 413.41C128.379 413.774 128.425 414.199 128.472 414.684C128.519 415.16 128.561 415.669 128.598 416.21C128.635 416.742 128.668 417.274 128.696 417.806C128.724 418.338 128.738 418.833 128.738 419.29V423H127.506ZM135.816 423L138.476 412.78H140.17L142.816 423H141.542L140.87 420.284H137.776L137.104 423H135.816ZM138.028 419.22H140.604L139.82 416.07C139.671 415.473 139.554 414.973 139.47 414.572C139.386 414.171 139.335 413.909 139.316 413.788C139.298 413.909 139.246 414.171 139.162 414.572C139.078 414.973 138.962 415.468 138.812 416.056L138.028 419.22ZM147.361 423V413.914H144.561V412.766H151.421V413.914H148.621V423H147.361ZM165.34 423.14C164.724 423.14 164.192 423.023 163.744 422.79C163.305 422.557 162.965 422.221 162.722 421.782C162.489 421.334 162.372 420.807 162.372 420.2V415.58C162.372 414.964 162.489 414.437 162.722 413.998C162.965 413.559 163.305 413.223 163.744 412.99C164.192 412.757 164.724 412.64 165.34 412.64C165.956 412.64 166.483 412.757 166.922 412.99C167.37 413.223 167.711 413.559 167.944 413.998C168.187 414.437 168.308 414.959 168.308 415.566V420.2C168.308 420.807 168.187 421.334 167.944 421.782C167.711 422.221 167.37 422.557 166.922 422.79C166.483 423.023 165.956 423.14 165.34 423.14ZM165.34 422.006C165.891 422.006 166.311 421.852 166.6 421.544C166.899 421.227 167.048 420.779 167.048 420.2V415.58C167.048 415.001 166.899 414.558 166.6 414.25C166.311 413.933 165.891 413.774 165.34 413.774C164.799 413.774 164.379 413.933 164.08 414.25C163.781 414.558 163.632 415.001 163.632 415.58V420.2C163.632 420.779 163.781 421.227 164.08 421.544C164.379 421.852 164.799 422.006 165.34 422.006ZM171.103 423V412.78H174.393C175.027 412.78 175.578 412.906 176.045 413.158C176.511 413.401 176.871 413.746 177.123 414.194C177.384 414.642 177.515 415.174 177.515 415.79C177.515 416.397 177.384 416.929 177.123 417.386C176.871 417.834 176.511 418.184 176.045 418.436C175.578 418.679 175.027 418.8 174.393 418.8H172.363V423H171.103ZM172.363 417.666H174.393C174.943 417.666 175.382 417.498 175.709 417.162C176.045 416.817 176.213 416.359 176.213 415.79C176.213 415.211 176.045 414.754 175.709 414.418C175.382 414.082 174.943 413.914 174.393 413.914H172.363V417.666ZM182.059 423V413.914H179.259V412.766H186.119V413.914H183.319V423H182.059ZM188.634 423V421.852H190.72V413.928H188.634V412.78H194.094V413.928H192.008V421.852H194.094V423H188.634ZM200.038 423.14C199.422 423.14 198.89 423.023 198.442 422.79C198.003 422.557 197.663 422.221 197.42 421.782C197.187 421.334 197.07 420.807 197.07 420.2V415.58C197.07 414.964 197.187 414.437 197.42 413.998C197.663 413.559 198.003 413.223 198.442 412.99C198.89 412.757 199.422 412.64 200.038 412.64C200.654 412.64 201.181 412.757 201.62 412.99C202.068 413.223 202.409 413.559 202.642 413.998C202.885 414.437 203.006 414.959 203.006 415.566V420.2C203.006 420.807 202.885 421.334 202.642 421.782C202.409 422.221 202.068 422.557 201.62 422.79C201.181 423.023 200.654 423.14 200.038 423.14ZM200.038 422.006C200.589 422.006 201.009 421.852 201.298 421.544C201.597 421.227 201.746 420.779 201.746 420.2V415.58C201.746 415.001 201.597 414.558 201.298 414.25C201.009 413.933 200.589 413.774 200.038 413.774C199.497 413.774 199.077 413.933 198.778 414.25C198.479 414.558 198.33 415.001 198.33 415.58V420.2C198.33 420.779 198.479 421.227 198.778 421.544C199.077 421.852 199.497 422.006 200.038 422.006ZM205.773 423V412.78H207.453L210.575 421.53C210.556 421.297 210.533 421.012 210.505 420.676C210.486 420.331 210.467 419.971 210.449 419.598C210.439 419.215 210.435 418.856 210.435 418.52V412.78H211.653V423H209.973L206.865 414.25C206.883 414.474 206.902 414.759 206.921 415.104C206.939 415.44 206.953 415.799 206.963 416.182C206.981 416.555 206.991 416.915 206.991 417.26V423H205.773ZM217.443 423.14C216.771 423.14 216.193 423.028 215.707 422.804C215.231 422.58 214.863 422.258 214.601 421.838C214.34 421.418 214.205 420.919 214.195 420.34H215.455C215.455 420.853 215.628 421.259 215.973 421.558C216.328 421.857 216.818 422.006 217.443 422.006C218.031 422.006 218.489 421.861 218.815 421.572C219.151 421.283 219.319 420.881 219.319 420.368C219.319 419.957 219.207 419.598 218.983 419.29C218.769 418.982 218.456 418.767 218.045 418.646L216.659 418.212C215.959 417.997 215.418 417.638 215.035 417.134C214.662 416.63 214.475 416.037 214.475 415.356C214.475 414.805 214.597 414.329 214.839 413.928C215.091 413.517 215.441 413.2 215.889 412.976C216.337 412.743 216.865 412.626 217.471 412.626C218.367 412.626 219.086 412.878 219.627 413.382C220.169 413.877 220.444 414.539 220.453 415.37H219.193C219.193 414.866 219.039 414.474 218.731 414.194C218.433 413.905 218.008 413.76 217.457 413.76C216.916 413.76 216.491 413.891 216.183 414.152C215.885 414.413 215.735 414.777 215.735 415.244C215.735 415.664 215.847 416.028 216.071 416.336C216.295 416.644 216.617 416.863 217.037 416.994L218.437 417.442C219.119 417.657 219.646 418.021 220.019 418.534C220.393 419.047 220.579 419.649 220.579 420.34C220.579 420.9 220.449 421.39 220.187 421.81C219.926 422.23 219.557 422.557 219.081 422.79C218.615 423.023 218.069 423.14 217.443 423.14Z" fill="var(--fill-0, #8C9AAD)"/>
<path id="Vector_23" d="M564 352.5H312C310.067 352.5 308.5 354.067 308.5 356V438C308.5 439.933 310.067 441.5 312 441.5H564C565.933 441.5 567.5 439.933 567.5 438V356C567.5 354.067 565.933 352.5 564 352.5Z" fill="var(--fill-0, #FF45CE)" fill-opacity="0.13" stroke="var(--stroke-0, #7E376B)"/>
<path id="Vector_24" d="M430.888 392.96V383.36C430.888 379.32 432.908 377.3 436.948 377.3H441.898L443.908 378.86V381.2H436.828C435.748 381.2 435.208 381.74 435.208 382.82V385.1H440.068C443.428 385.1 445.108 386.78 445.108 390.14V392.96C445.108 396.32 443.428 398 440.068 398H435.928C432.568 398 430.888 396.32 430.888 392.96ZM435.208 393.2C435.208 393.8 435.508 394.1 436.108 394.1H439.888C440.488 394.1 440.788 393.8 440.788 393.2V389.9C440.788 389.3 440.488 389 439.888 389H435.208V393.2Z" fill="var(--fill-0, #FF45CE)"/>
<path id="Vector_25" d="M324.964 423V413.914H322.164V412.766H329.024V413.914H326.224V423H324.964ZM331.468 423V412.78H337.348V413.928H332.714V417.092H336.858V418.226H332.714V421.852H337.348V423H331.468ZM339.443 423L342.103 412.78H343.797L346.443 423H345.169L344.497 420.284H341.403L340.731 423H339.443ZM341.655 419.22H344.231L343.447 416.07C343.298 415.473 343.181 414.973 343.097 414.572C343.013 414.171 342.962 413.909 342.943 413.788C342.924 413.909 342.873 414.171 342.789 414.572C342.705 414.973 342.588 415.468 342.439 416.056L341.655 419.22ZM348.481 423V412.78H350.133L351.197 416.084C351.3 416.383 351.393 416.681 351.477 416.98C351.561 417.269 351.622 417.493 351.659 417.652C351.706 417.493 351.767 417.269 351.841 416.98C351.916 416.681 352 416.378 352.093 416.07L353.101 412.78H354.753V423H353.521V419.29C353.521 418.879 353.535 418.413 353.563 417.89C353.591 417.367 353.629 416.835 353.675 416.294C353.722 415.743 353.769 415.221 353.815 414.726C353.871 414.222 353.918 413.783 353.955 413.41L352.303 418.52H350.973L349.307 413.41C349.354 413.774 349.401 414.199 349.447 414.684C349.494 415.16 349.536 415.669 349.573 416.21C349.611 416.742 349.643 417.274 349.671 417.806C349.699 418.338 349.713 418.833 349.713 419.29V423H348.481ZM360.348 423.14C359.676 423.14 359.097 423.028 358.612 422.804C358.136 422.58 357.767 422.258 357.506 421.838C357.245 421.418 357.109 420.919 357.1 420.34H358.36C358.36 420.853 358.533 421.259 358.878 421.558C359.233 421.857 359.723 422.006 360.348 422.006C360.936 422.006 361.393 421.861 361.72 421.572C362.056 421.283 362.224 420.881 362.224 420.368C362.224 419.957 362.112 419.598 361.888 419.29C361.673 418.982 361.361 418.767 360.95 418.646L359.564 418.212C358.864 417.997 358.323 417.638 357.94 417.134C357.567 416.63 357.38 416.037 357.38 415.356C357.38 414.805 357.501 414.329 357.744 413.928C357.996 413.517 358.346 413.2 358.794 412.976C359.242 412.743 359.769 412.626 360.376 412.626C361.272 412.626 361.991 412.878 362.532 413.382C363.073 413.877 363.349 414.539 363.358 415.37H362.098C362.098 414.866 361.944 414.474 361.636 414.194C361.337 413.905 360.913 413.76 360.362 413.76C359.821 413.76 359.396 413.891 359.088 414.152C358.789 414.413 358.64 414.777 358.64 415.244C358.64 415.664 358.752 416.028 358.976 416.336C359.2 416.644 359.522 416.863 359.942 416.994L361.342 417.442C362.023 417.657 362.551 418.021 362.924 418.534C363.297 419.047 363.484 419.649 363.484 420.34C363.484 420.9 363.353 421.39 363.092 421.81C362.831 422.23 362.462 422.557 361.986 422.79C361.519 423.023 360.973 423.14 360.348 423.14ZM366.068 423V412.78H367.328V417.148H370.604V412.78H371.864V423H370.604V418.296H367.328V423H366.068ZM374.911 423V421.852H376.997V413.928H374.911V412.78H380.371V413.928H378.285V421.852H380.371V423H374.911ZM383.404 423V412.78H386.694C387.328 412.78 387.879 412.906 388.346 413.158C388.812 413.401 389.172 413.746 389.424 414.194C389.685 414.642 389.816 415.174 389.816 415.79C389.816 416.397 389.685 416.929 389.424 417.386C389.172 417.834 388.812 418.184 388.346 418.436C387.879 418.679 387.328 418.8 386.694 418.8H384.664V423H383.404ZM384.664 417.666H386.694C387.244 417.666 387.683 417.498 388.01 417.162C388.346 416.817 388.514 416.359 388.514 415.79C388.514 415.211 388.346 414.754 388.01 414.418C387.683 414.082 387.244 413.914 386.694 413.914H384.664V417.666ZM405.373 425.52L403.875 423.042L404.015 423.126C403.977 423.126 403.926 423.126 403.861 423.126C403.805 423.135 403.739 423.14 403.665 423.14C403.039 423.14 402.493 423.019 402.027 422.776C401.569 422.524 401.215 422.174 400.963 421.726C400.711 421.269 400.585 420.737 400.585 420.13V415.65C400.585 415.034 400.711 414.502 400.963 414.054C401.215 413.606 401.569 413.261 402.027 413.018C402.493 412.766 403.039 412.64 403.665 412.64C404.299 412.64 404.845 412.766 405.303 413.018C405.76 413.261 406.115 413.606 406.367 414.054C406.619 414.502 406.745 415.034 406.745 415.65V420.13C406.745 420.755 406.609 421.301 406.339 421.768C406.068 422.235 405.685 422.585 405.191 422.818L406.829 425.52H405.373ZM403.665 422.02C404.215 422.02 404.654 421.847 404.981 421.502C405.317 421.157 405.485 420.699 405.485 420.13V415.65C405.485 415.071 405.317 414.614 404.981 414.278C404.654 413.933 404.215 413.76 403.665 413.76C403.114 413.76 402.671 413.933 402.335 414.278C402.008 414.614 401.845 415.071 401.845 415.65V420.13C401.845 420.699 402.008 421.157 402.335 421.502C402.671 421.847 403.114 422.02 403.665 422.02ZM412.339 423.14C411.387 423.14 410.659 422.879 410.155 422.356C409.651 421.824 409.399 421.105 409.399 420.2V412.78H410.659V420.2C410.659 420.76 410.794 421.203 411.065 421.53C411.345 421.857 411.77 422.02 412.339 422.02C412.899 422.02 413.319 421.857 413.599 421.53C413.879 421.203 414.019 420.76 414.019 420.2V412.78H415.279V420.2C415.279 421.115 415.027 421.833 414.523 422.356C414.028 422.879 413.3 423.14 412.339 423.14ZM417.514 423L420.174 412.78H421.868L424.514 423H423.24L422.568 420.284H419.474L418.802 423H417.514ZM419.726 419.22H422.302L421.518 416.07C421.368 415.473 421.252 414.973 421.168 414.572C421.084 414.171 421.032 413.909 421.014 413.788C420.995 413.909 420.944 414.171 420.86 414.572C420.776 414.973 420.659 415.468 420.51 416.056L419.726 419.22ZM427.098 423V412.78H428.358V421.852H432.978V423H427.098ZM435.633 423V421.852H437.719V413.928H435.633V412.78H441.093V413.928H439.007V421.852H441.093V423H435.633ZM446.407 423V413.914H443.607V412.766H450.467V413.914H447.667V423H446.407ZM452.982 423V421.852H455.068V413.928H452.982V412.78H458.442V413.928H456.356V421.852H458.442V423H452.982ZM461.586 423V412.78H467.466V413.928H462.832V417.092H466.976V418.226H462.832V421.852H467.466V423H461.586ZM473.117 423.14C472.445 423.14 471.866 423.028 471.381 422.804C470.905 422.58 470.536 422.258 470.275 421.838C470.014 421.418 469.878 420.919 469.869 420.34H471.129C471.129 420.853 471.302 421.259 471.647 421.558C472.002 421.857 472.492 422.006 473.117 422.006C473.705 422.006 474.162 421.861 474.489 421.572C474.825 421.283 474.993 420.881 474.993 420.368C474.993 419.957 474.881 419.598 474.657 419.29C474.442 418.982 474.13 418.767 473.719 418.646L472.333 418.212C471.633 417.997 471.092 417.638 470.709 417.134C470.336 416.63 470.149 416.037 470.149 415.356C470.149 414.805 470.27 414.329 470.513 413.928C470.765 413.517 471.115 413.2 471.563 412.976C472.011 412.743 472.538 412.626 473.145 412.626C474.041 412.626 474.76 412.878 475.301 413.382C475.842 413.877 476.118 414.539 476.127 415.37H474.867C474.867 414.866 474.713 414.474 474.405 414.194C474.106 413.905 473.682 413.76 473.131 413.76C472.59 413.76 472.165 413.891 471.857 414.152C471.558 414.413 471.409 414.777 471.409 415.244C471.409 415.664 471.521 416.028 471.745 416.336C471.969 416.644 472.291 416.863 472.711 416.994L474.111 417.442C474.792 417.657 475.32 418.021 475.693 418.534C476.066 419.047 476.253 419.649 476.253 420.34C476.253 420.9 476.122 421.39 475.861 421.81C475.6 422.23 475.231 422.557 474.755 422.79C474.288 423.023 473.742 423.14 473.117 423.14ZM487.274 423V412.78H488.926L489.99 416.084C490.093 416.383 490.186 416.681 490.27 416.98C490.354 417.269 490.415 417.493 490.452 417.652C490.499 417.493 490.559 417.269 490.634 416.98C490.709 416.681 490.793 416.378 490.886 416.07L491.894 412.78H493.546V423H492.314V419.29C492.314 418.879 492.328 418.413 492.356 417.89C492.384 417.367 492.421 416.835 492.468 416.294C492.515 415.743 492.561 415.221 492.608 414.726C492.664 414.222 492.711 413.783 492.748 413.41L491.096 418.52H489.766L488.1 413.41C488.147 413.774 488.193 414.199 488.24 414.684C488.287 415.16 488.329 415.669 488.366 416.21C488.403 416.742 488.436 417.274 488.464 417.806C488.492 418.338 488.506 418.833 488.506 419.29V423H487.274ZM496.284 423V412.78H502.164V413.928H497.53V417.092H501.674V418.226H497.53V421.852H502.164V423H496.284ZM504.259 423L506.919 412.78H508.613L511.259 423H509.985L509.313 420.284H506.219L505.547 423H504.259ZM506.471 419.22H509.047L508.263 416.07C508.114 415.473 507.997 414.973 507.913 414.572C507.829 414.171 507.778 413.909 507.759 413.788C507.74 413.909 507.689 414.171 507.605 414.572C507.521 414.973 507.404 415.468 507.255 416.056L506.471 419.22ZM516.49 423.14C515.818 423.14 515.239 423.028 514.754 422.804C514.278 422.58 513.909 422.258 513.648 421.838C513.386 421.418 513.251 420.919 513.242 420.34H514.502C514.502 420.853 514.674 421.259 515.02 421.558C515.374 421.857 515.864 422.006 516.49 422.006C517.078 422.006 517.535 421.861 517.862 421.572C518.198 421.283 518.366 420.881 518.366 420.368C518.366 419.957 518.254 419.598 518.03 419.29C517.815 418.982 517.502 418.767 517.092 418.646L515.706 418.212C515.006 417.997 514.464 417.638 514.082 417.134C513.708 416.63 513.522 416.037 513.522 415.356C513.522 414.805 513.643 414.329 513.886 413.928C514.138 413.517 514.488 413.2 514.936 412.976C515.384 412.743 515.911 412.626 516.518 412.626C517.414 412.626 518.132 412.878 518.674 413.382C519.215 413.877 519.49 414.539 519.5 415.37H518.24C518.24 414.866 518.086 414.474 517.778 414.194C517.479 413.905 517.054 413.76 516.504 413.76C515.962 413.76 515.538 413.891 515.23 414.152C514.931 414.413 514.782 414.777 514.782 415.244C514.782 415.664 514.894 416.028 515.118 416.336C515.342 416.644 515.664 416.863 516.084 416.994L517.484 417.442C518.165 417.657 518.692 418.021 519.066 418.534C519.439 419.047 519.626 419.649 519.626 420.34C519.626 420.9 519.495 421.39 519.234 421.81C518.972 422.23 518.604 422.557 518.128 422.79C517.661 423.023 517.115 423.14 516.49 423.14ZM525.108 423.14C524.156 423.14 523.428 422.879 522.924 422.356C522.42 421.824 522.168 421.105 522.168 420.2V412.78H523.428V420.2C523.428 420.76 523.563 421.203 523.834 421.53C524.114 421.857 524.539 422.02 525.108 422.02C525.668 422.02 526.088 421.857 526.368 421.53C526.648 421.203 526.788 420.76 526.788 420.2V412.78H528.048V420.2C528.048 421.115 527.796 421.833 527.292 422.356C526.797 422.879 526.069 423.14 525.108 423.14ZM530.871 423V412.78H534.035C534.641 412.78 535.173 412.906 535.631 413.158C536.088 413.401 536.443 413.741 536.695 414.18C536.947 414.619 537.073 415.132 537.073 415.72C537.073 416.411 536.891 417.003 536.527 417.498C536.172 417.993 535.687 418.333 535.071 418.52L537.213 423H535.729L533.769 418.66H532.131V423H530.871ZM532.131 417.526H534.035C534.557 417.526 534.977 417.363 535.295 417.036C535.612 416.7 535.771 416.261 535.771 415.72C535.771 415.169 535.612 414.731 535.295 414.404C534.977 414.077 534.557 413.914 534.035 413.914H532.131V417.526ZM539.657 423V412.78H545.537V413.928H540.903V417.092H545.047V418.226H540.903V421.852H545.537V423H539.657ZM548.22 423V412.78H550.866C551.528 412.78 552.098 412.906 552.574 413.158C553.059 413.41 553.432 413.765 553.694 414.222C553.964 414.679 554.1 415.221 554.1 415.846V419.92C554.1 420.545 553.964 421.091 553.694 421.558C553.432 422.015 553.059 422.37 552.574 422.622C552.098 422.874 551.528 423 550.866 423H548.22ZM549.48 421.88H550.866C551.482 421.88 551.962 421.707 552.308 421.362C552.662 421.017 552.84 420.536 552.84 419.92V415.846C552.84 415.239 552.662 414.763 552.308 414.418C551.962 414.073 551.482 413.9 550.866 413.9H549.48V421.88Z" fill="var(--fill-0, #8C9AAD)"/>
</g>
<defs>
<clipPath id="clip0_0_27">
<rect width="600" height="475" fill="white"/>
</clipPath>
</defs>
</svg>
