<svg preserveAspectRatio="none" width="100%" height="100%" overflow="visible" style="display: block;" viewBox="0 0 600 153" fill="none" xmlns="http://www.w3.org/2000/svg">
<g id="your_score_table 1" clip-path="url(#clip0_0_321)">
<path id="Vector" d="M600 0H0V153H600V0Z" fill="var(--fill-0, black)" fill-opacity="0.4"/>
<path id="Vector_2" d="M193 30.5H35C33.067 30.5 31.5 32.067 31.5 34V116C31.5 117.933 33.067 119.5 35 119.5H193C194.933 119.5 196.5 117.933 196.5 116V34C196.5 32.067 194.933 30.5 193 30.5Z" fill="var(--fill-0, #FF45CE)" fill-opacity="0.13" stroke="var(--stroke-0, #7E376B)"/>
<path id="Vector_3" d="M83.8887 59.2V55.3H98.1087V61.75L90.6387 76H86.7687L86.2587 75.1L93.7887 60.85V59.2H83.8887ZM101.832 72.94V69.4L108.162 55.3H111.822L112.332 56.2L106.572 69.04H111.732V63.1H116.052V76H111.732V72.94H101.832ZM119.236 64.12V58.96C119.236 56.52 120.456 55.3 122.896 55.3H124.516C126.956 55.3 128.176 56.52 128.176 58.96V64.12C128.176 66.56 126.956 67.78 124.516 67.78H122.896C120.456 67.78 119.236 66.56 119.236 64.12ZM122.476 64.42C122.476 64.7 122.616 64.84 122.896 64.84H124.516C124.796 64.84 124.936 64.7 124.936 64.42V58.66C124.936 58.38 124.796 58.24 124.516 58.24H122.896C122.616 58.24 122.476 58.38 122.476 58.66V64.42ZM124.996 74.8L134.896 55L137.896 56.5L127.996 76.3L124.996 74.8ZM134.716 72.34V67.18C134.716 64.74 135.936 63.52 138.376 63.52H139.996C142.436 63.52 143.656 64.74 143.656 67.18V72.34C143.656 74.78 142.436 76 139.996 76H138.376C135.936 76 134.716 74.78 134.716 72.34ZM137.956 72.64C137.956 72.92 138.096 73.06 138.376 73.06H139.996C140.276 73.06 140.416 72.92 140.416 72.64V66.88C140.416 66.6 140.276 66.46 139.996 66.46H138.376C138.096 66.46 137.956 66.6 137.956 66.88V72.64Z" fill="var(--fill-0, #FF45CE)"/>
<path id="Vector_4" d="M73.8373 101V97.178L70.7573 90.78H72.0593L74.0893 94.98C74.2013 95.2133 74.29 95.414 74.3553 95.582C74.4207 95.7407 74.4627 95.8573 74.4813 95.932C74.5 95.8573 74.542 95.7407 74.6073 95.582C74.682 95.414 74.7753 95.2133 74.8873 94.98L76.8753 90.78H78.1773L75.0973 97.178V101H73.8373ZM83.1419 101.14C82.5259 101.14 81.9939 101.023 81.5459 100.79C81.1072 100.557 80.7665 100.221 80.5239 99.782C80.2905 99.334 80.1739 98.8067 80.1739 98.2V93.58C80.1739 92.964 80.2905 92.4367 80.5239 91.998C80.7665 91.5593 81.1072 91.2233 81.5459 90.99C81.9939 90.7567 82.5259 90.64 83.1419 90.64C83.7579 90.64 84.2852 90.7567 84.7239 90.99C85.1719 91.2233 85.5125 91.5593 85.7459 91.998C85.9885 92.4367 86.1099 92.9593 86.1099 93.566V98.2C86.1099 98.8067 85.9885 99.334 85.7459 99.782C85.5125 100.221 85.1719 100.557 84.7239 100.79C84.2852 101.023 83.7579 101.14 83.1419 101.14ZM83.1419 100.006C83.6925 100.006 84.1125 99.852 84.4019 99.544C84.7005 99.2267 84.8499 98.7787 84.8499 98.2V93.58C84.8499 93.0013 84.7005 92.558 84.4019 92.25C84.1125 91.9327 83.6925 91.774 83.1419 91.774C82.6005 91.774 82.1805 91.9327 81.8819 92.25C81.5832 92.558 81.4339 93.0013 81.4339 93.58V98.2C81.4339 98.7787 81.5832 99.2267 81.8819 99.544C82.1805 99.852 82.6005 100.006 83.1419 100.006ZM91.8164 101.14C90.8644 101.14 90.1364 100.879 89.6324 100.356C89.1284 99.824 88.8764 99.1053 88.8764 98.2V90.78H90.1364V98.2C90.1364 98.76 90.2717 99.2033 90.5424 99.53C90.8224 99.8567 91.2471 100.02 91.8164 100.02C92.3764 100.02 92.7964 99.8567 93.0764 99.53C93.3564 99.2033 93.4964 98.76 93.4964 98.2V90.78H94.7564V98.2C94.7564 99.1147 94.5044 99.8333 94.0004 100.356C93.5057 100.879 92.7777 101.14 91.8164 101.14ZM97.5789 101V90.78H100.743C101.35 90.78 101.882 90.906 102.339 91.158C102.796 91.4007 103.151 91.7413 103.403 92.18C103.655 92.6187 103.781 93.132 103.781 93.72C103.781 94.4107 103.599 95.0033 103.235 95.498C102.88 95.9927 102.395 96.3333 101.779 96.52L103.921 101H102.437L100.477 96.66H98.8389V101H97.5789ZM98.8389 95.526H100.743C101.266 95.526 101.686 95.3627 102.003 95.036C102.32 94.7 102.479 94.2613 102.479 93.72C102.479 93.1693 102.32 92.7307 102.003 92.404C101.686 92.0773 101.266 91.914 100.743 91.914H98.8389V95.526ZM117.896 101.14C117.224 101.14 116.645 101.028 116.16 100.804C115.684 100.58 115.315 100.258 115.054 99.838C114.793 99.418 114.657 98.9187 114.648 98.34H115.908C115.908 98.8533 116.081 99.2593 116.426 99.558C116.781 99.8567 117.271 100.006 117.896 100.006C118.484 100.006 118.941 99.8613 119.268 99.572C119.604 99.2827 119.772 98.8813 119.772 98.368C119.772 97.9573 119.66 97.598 119.436 97.29C119.221 96.982 118.909 96.7673 118.498 96.646L117.112 96.212C116.412 95.9973 115.871 95.638 115.488 95.134C115.115 94.63 114.928 94.0373 114.928 93.356C114.928 92.8053 115.049 92.3293 115.292 91.928C115.544 91.5173 115.894 91.2 116.342 90.976C116.79 90.7427 117.317 90.626 117.924 90.626C118.82 90.626 119.539 90.878 120.08 91.382C120.621 91.8767 120.897 92.5393 120.906 93.37H119.646C119.646 92.866 119.492 92.474 119.184 92.194C118.885 91.9047 118.461 91.76 117.91 91.76C117.369 91.76 116.944 91.8907 116.636 92.152C116.337 92.4133 116.188 92.7773 116.188 93.244C116.188 93.664 116.3 94.028 116.524 94.336C116.748 94.644 117.07 94.8633 117.49 94.994L118.89 95.442C119.571 95.6567 120.099 96.0207 120.472 96.534C120.845 97.0473 121.032 97.6493 121.032 98.34C121.032 98.9 120.901 99.39 120.64 99.81C120.379 100.23 120.01 100.557 119.534 100.79C119.067 101.023 118.521 101.14 117.896 101.14ZM126.571 101.14C125.955 101.14 125.418 101.023 124.961 100.79C124.513 100.557 124.163 100.221 123.911 99.782C123.668 99.334 123.547 98.8067 123.547 98.2V93.58C123.547 92.964 123.668 92.4367 123.911 91.998C124.163 91.5593 124.513 91.2233 124.961 90.99C125.418 90.7567 125.955 90.64 126.571 90.64C127.187 90.64 127.719 90.7613 128.167 91.004C128.615 91.2373 128.96 91.5733 129.203 92.012C129.445 92.4507 129.567 92.9733 129.567 93.58H128.307C128.307 93.0013 128.153 92.558 127.845 92.25C127.546 91.9327 127.121 91.774 126.571 91.774C126.02 91.774 125.586 91.928 125.269 92.236C124.961 92.544 124.807 92.9873 124.807 93.566V98.2C124.807 98.7787 124.961 99.2267 125.269 99.544C125.586 99.852 126.02 100.006 126.571 100.006C127.121 100.006 127.546 99.852 127.845 99.544C128.153 99.2267 128.307 98.7787 128.307 98.2H129.567C129.567 98.7973 129.445 99.32 129.203 99.768C128.96 100.207 128.615 100.547 128.167 100.79C127.719 101.023 127.187 101.14 126.571 101.14ZM135.189 101.14C134.573 101.14 134.041 101.023 133.593 100.79C133.154 100.557 132.814 100.221 132.571 99.782C132.338 99.334 132.221 98.8067 132.221 98.2V93.58C132.221 92.964 132.338 92.4367 132.571 91.998C132.814 91.5593 133.154 91.2233 133.593 90.99C134.041 90.7567 134.573 90.64 135.189 90.64C135.805 90.64 136.332 90.7567 136.771 90.99C137.219 91.2233 137.56 91.5593 137.793 91.998C138.036 92.4367 138.157 92.9593 138.157 93.566V98.2C138.157 98.8067 138.036 99.334 137.793 99.782C137.56 100.221 137.219 100.557 136.771 100.79C136.332 101.023 135.805 101.14 135.189 101.14ZM135.189 100.006C135.74 100.006 136.16 99.852 136.449 99.544C136.748 99.2267 136.897 98.7787 136.897 98.2V93.58C136.897 93.0013 136.748 92.558 136.449 92.25C136.16 91.9327 135.74 91.774 135.189 91.774C134.648 91.774 134.228 91.9327 133.929 92.25C133.63 92.558 133.481 93.0013 133.481 93.58V98.2C133.481 98.7787 133.63 99.2267 133.929 99.544C134.228 99.852 134.648 100.006 135.189 100.006ZM140.952 101V90.78H144.116C144.722 90.78 145.254 90.906 145.712 91.158C146.169 91.4007 146.524 91.7413 146.776 92.18C147.028 92.6187 147.154 93.132 147.154 93.72C147.154 94.4107 146.972 95.0033 146.608 95.498C146.253 95.9927 145.768 96.3333 145.152 96.52L147.294 101H145.81L143.85 96.66H142.212V101H140.952ZM142.212 95.526H144.116C144.638 95.526 145.058 95.3627 145.376 95.036C145.693 94.7 145.852 94.2613 145.852 93.72C145.852 93.1693 145.693 92.7307 145.376 92.404C145.058 92.0773 144.638 91.914 144.116 91.914H142.212V95.526ZM149.738 101V90.78H155.618V91.928H150.984V95.092H155.128V96.226H150.984V99.852H155.618V101H149.738Z" fill="var(--fill-0, #8C9AAD)"/>
<path id="Vector_5" d="M379 30.5H221C219.067 30.5 217.5 32.067 217.5 34V116C217.5 117.933 219.067 119.5 221 119.5H379C380.933 119.5 382.5 117.933 382.5 116V34C382.5 32.067 380.933 30.5 379 30.5Z" fill="var(--fill-0, #FF45CE)" fill-opacity="0.13" stroke="var(--stroke-0, #7E376B)"/>
<path id="Vector_6" d="M565 30.5H407C405.067 30.5 403.5 32.067 403.5 34V116C403.5 117.933 405.067 119.5 407 119.5H565C566.933 119.5 568.5 117.933 568.5 116V34C568.5 32.067 566.933 30.5 565 30.5Z" fill="var(--fill-0, #FF45CE)" fill-opacity="0.13" stroke="var(--stroke-0, #7E376B)"/>
<path id="Vector_7" d="M270.689 73.44V71.1H279.389C279.989 71.1 280.289 70.8 280.289 70.2V67.2C280.289 66.6 279.989 66.3 279.389 66.3H272.909V62.4H279.389C279.989 62.4 280.289 62.1 280.289 61.5V59.1C280.289 58.5 279.989 58.2 279.389 58.2H270.989V55.86L272.999 54.3H279.569C282.929 54.3 284.609 55.98 284.609 59.34V61.26C284.609 62.06 284.359 62.71 283.859 63.21L282.809 64.26L283.859 65.31C284.359 65.81 284.609 66.46 284.609 67.26V69.96C284.609 73.32 282.929 75 279.569 75H272.699L270.689 73.44ZM289.172 75V71.1H293.762V58.2H289.922V55.86L291.932 54.3H298.082V71.1H302.192V75H289.172ZM305.736 63.12V57.96C305.736 55.52 306.956 54.3 309.396 54.3H311.016C313.456 54.3 314.676 55.52 314.676 57.96V63.12C314.676 65.56 313.456 66.78 311.016 66.78H309.396C306.956 66.78 305.736 65.56 305.736 63.12ZM308.976 63.42C308.976 63.7 309.116 63.84 309.396 63.84H311.016C311.296 63.84 311.436 63.7 311.436 63.42V57.66C311.436 57.38 311.296 57.24 311.016 57.24H309.396C309.116 57.24 308.976 57.38 308.976 57.66V63.42ZM311.496 73.8L321.396 54L324.396 55.5L314.496 75.3L311.496 73.8ZM321.216 71.34V66.18C321.216 63.74 322.436 62.52 324.876 62.52H326.496C328.936 62.52 330.156 63.74 330.156 66.18V71.34C330.156 73.78 328.936 75 326.496 75H324.876C322.436 75 321.216 73.78 321.216 71.34ZM324.456 71.64C324.456 71.92 324.596 72.06 324.876 72.06H326.496C326.776 72.06 326.916 71.92 326.916 71.64V65.88C326.916 65.6 326.776 65.46 326.496 65.46H324.876C324.596 65.46 324.456 65.6 324.456 65.88V71.64Z" fill="var(--fill-0, white)"/>
<path id="Vector_8" d="M469.916 75V68.25C469.916 65.51 471.116 63.9 473.516 63.42L479.066 62.31C479.566 62.21 479.816 61.88 479.816 61.32V59.1C479.816 58.5 479.516 58.2 478.916 58.2H470.516V55.86L472.526 54.3H479.096C482.456 54.3 484.136 55.98 484.136 59.34V61.29C484.136 64.03 482.936 65.64 480.536 66.12L474.986 67.23C474.486 67.33 474.236 67.66 474.236 68.22V71.1H484.136V75H469.916ZM487.56 73.44V71.1H496.86C497.46 71.1 497.76 70.8 497.76 70.2V66.9C497.76 66.3 497.46 66 496.86 66H487.86V54.3H501.18V58.2H492.18V62.1H497.04C500.4 62.1 502.08 63.78 502.08 67.14V69.96C502.08 73.32 500.4 75 497.04 75H489.57L487.56 73.44Z" fill="var(--fill-0, #00ADFF)"/>
<path id="Vector_9" d="M245.086 101V90.766H251.106V91.914H246.318V95.316H250.742V96.464H246.346V101H245.086ZM253.9 101V99.852H255.986V91.928H253.9V90.78H259.36V91.928H257.274V99.852H259.36V101H253.9ZM262.505 101V90.78H268.385V91.928H263.751V95.092H267.895V96.226H263.751V99.852H268.385V101H262.505ZM271.389 101V90.78H272.649V99.852H277.269V101H271.389ZM279.742 101V90.78H282.388C283.05 90.78 283.62 90.906 284.096 91.158C284.581 91.41 284.954 91.7647 285.216 92.222C285.486 92.6793 285.622 93.2207 285.622 93.846V97.92C285.622 98.5453 285.486 99.0913 285.216 99.558C284.954 100.015 284.581 100.37 284.096 100.622C283.62 100.874 283.05 101 282.388 101H279.742ZM281.002 99.88H282.388C283.004 99.88 283.484 99.7073 283.83 99.362C284.184 99.0167 284.362 98.536 284.362 97.92V93.846C284.362 93.2393 284.184 92.7633 283.83 92.418C283.484 92.0727 283.004 91.9 282.388 91.9H281.002V99.88ZM296.503 101L299.163 90.78H300.857L303.503 101H302.229L301.557 98.284H298.463L297.791 101H296.503ZM298.715 97.22H301.291L300.507 94.07C300.357 93.4727 300.241 92.9733 300.157 92.572C300.073 92.1707 300.021 91.9093 300.003 91.788C299.984 91.9093 299.933 92.1707 299.849 92.572C299.765 92.9733 299.648 93.468 299.499 94.056L298.715 97.22ZM307.809 101L305.177 90.78H306.479L308.215 97.724C308.337 98.2093 308.439 98.662 308.523 99.082C308.607 99.4927 308.668 99.8053 308.705 100.02C308.743 99.8053 308.799 99.4927 308.873 99.082C308.957 98.662 309.06 98.2093 309.181 97.724L310.903 90.78H312.177L309.531 101H307.809ZM314.552 101V90.78H320.432V91.928H315.798V95.092H319.942V96.226H315.798V99.852H320.432V101H314.552ZM323.114 101V90.78H326.278C326.885 90.78 327.417 90.906 327.874 91.158C328.332 91.4007 328.686 91.7413 328.938 92.18C329.19 92.6187 329.316 93.132 329.316 93.72C329.316 94.4107 329.134 95.0033 328.77 95.498C328.416 95.9927 327.93 96.3333 327.314 96.52L329.456 101H327.972L326.012 96.66H324.374V101H323.114ZM324.374 95.526H326.278C326.801 95.526 327.221 95.3627 327.538 95.036C327.856 94.7 328.014 94.2613 328.014 93.72C328.014 93.1693 327.856 92.7307 327.538 92.404C327.221 92.0773 326.801 91.914 326.278 91.914H324.374V95.526ZM331.201 101L333.861 90.78H335.555L338.201 101H336.927L336.255 98.284H333.161L332.489 101H331.201ZM333.413 97.22H335.989L335.205 94.07C335.056 93.4727 334.939 92.9733 334.855 92.572C334.771 92.1707 334.72 91.9093 334.701 91.788C334.682 91.9093 334.631 92.1707 334.547 92.572C334.463 92.9733 334.346 93.468 334.197 94.056L333.413 97.22ZM343.431 101.14C342.815 101.14 342.279 101.023 341.821 100.79C341.373 100.557 341.023 100.221 340.771 99.782C340.529 99.334 340.407 98.8067 340.407 98.2V93.58C340.407 92.964 340.529 92.4367 340.771 91.998C341.023 91.5593 341.373 91.2233 341.821 90.99C342.279 90.7567 342.815 90.64 343.431 90.64C344.047 90.64 344.579 90.7613 345.027 91.004C345.475 91.2373 345.821 91.5733 346.063 92.012C346.306 92.4507 346.427 92.9733 346.427 93.58H345.167C345.167 93.0013 345.013 92.558 344.705 92.25C344.407 91.9327 343.982 91.774 343.431 91.774C342.881 91.774 342.447 91.928 342.129 92.236C341.821 92.544 341.667 92.9873 341.667 93.566V98.2C341.667 98.7787 341.821 99.2267 342.129 99.544C342.447 99.8613 342.881 100.02 343.431 100.02C343.982 100.02 344.407 99.8613 344.705 99.544C345.013 99.2267 345.167 98.7787 345.167 98.2V96.94H343.095V95.792H346.427V98.2C346.427 98.7973 346.306 99.32 346.063 99.768C345.821 100.207 345.475 100.547 345.027 100.79C344.579 101.023 344.047 101.14 343.431 101.14ZM349.25 101V90.78H355.13V91.928H350.496V95.092H354.64V96.226H350.496V99.852H355.13V101H349.25Z" fill="var(--fill-0, #8C9AAD)"/>
<path id="Vector_10" d="M437.663 101V91.914H434.863V90.766H441.723V91.914H438.923V101H437.663ZM444.167 101V90.78H450.047V91.928H445.413V95.092H449.557V96.226H445.413V99.852H450.047V101H444.167ZM452.142 101L454.802 90.78H456.496L459.142 101H457.868L457.196 98.284H454.102L453.43 101H452.142ZM454.354 97.22H456.93L456.146 94.07C455.997 93.4727 455.88 92.9733 455.796 92.572C455.712 92.1707 455.661 91.9093 455.642 91.788C455.623 91.9093 455.572 92.1707 455.488 92.572C455.404 92.9733 455.287 93.468 455.138 94.056L454.354 97.22ZM461.18 101V90.78H462.832L463.896 94.084C463.999 94.3827 464.092 94.6813 464.176 94.98C464.26 95.2693 464.321 95.4933 464.358 95.652C464.405 95.4933 464.466 95.2693 464.54 94.98C464.615 94.6813 464.699 94.378 464.792 94.07L465.8 90.78H467.452V101H466.22V97.29C466.22 96.8793 466.234 96.4127 466.262 95.89C466.29 95.3673 466.328 94.8353 466.374 94.294C466.421 93.7433 466.468 93.2207 466.514 92.726C466.57 92.222 466.617 91.7833 466.654 91.41L465.002 96.52H463.672L462.006 91.41C462.053 91.774 462.1 92.1987 462.146 92.684C462.193 93.16 462.235 93.6687 462.272 94.21C462.31 94.742 462.342 95.274 462.37 95.806C462.398 96.338 462.412 96.8327 462.412 97.29V101H461.18ZM473.047 101.14C472.375 101.14 471.796 101.028 471.311 100.804C470.835 100.58 470.466 100.258 470.205 99.838C469.944 99.418 469.808 98.9187 469.799 98.34H471.059C471.059 98.8533 471.232 99.2593 471.577 99.558C471.932 99.8567 472.422 100.006 473.047 100.006C473.635 100.006 474.092 99.8613 474.419 99.572C474.755 99.2827 474.923 98.8813 474.923 98.368C474.923 97.9573 474.811 97.598 474.587 97.29C474.372 96.982 474.06 96.7673 473.649 96.646L472.263 96.212C471.563 95.9973 471.022 95.638 470.639 95.134C470.266 94.63 470.079 94.0373 470.079 93.356C470.079 92.8053 470.2 92.3293 470.443 91.928C470.695 91.5173 471.045 91.2 471.493 90.976C471.941 90.7427 472.468 90.626 473.075 90.626C473.971 90.626 474.69 90.878 475.231 91.382C475.772 91.8767 476.048 92.5393 476.057 93.37H474.797C474.797 92.866 474.643 92.474 474.335 92.194C474.036 91.9047 473.612 91.76 473.061 91.76C472.52 91.76 472.095 91.8907 471.787 92.152C471.488 92.4133 471.339 92.7773 471.339 93.244C471.339 93.664 471.451 94.028 471.675 94.336C471.899 94.644 472.221 94.8633 472.641 94.994L474.041 95.442C474.722 95.6567 475.25 96.0207 475.623 96.534C475.996 97.0473 476.183 97.6493 476.183 98.34C476.183 98.9 476.052 99.39 475.791 99.81C475.53 100.23 475.161 100.557 474.685 100.79C474.218 101.023 473.672 101.14 473.047 101.14ZM489.71 101V91.914H486.91V90.766H493.77V91.914H490.97V101H489.71ZM496.215 101V90.78H502.095V91.928H497.461V95.092H501.605V96.226H497.461V99.852H502.095V101H496.215ZM507.745 101.14C507.073 101.14 506.494 101.028 506.009 100.804C505.533 100.58 505.164 100.258 504.903 99.838C504.642 99.418 504.506 98.9187 504.497 98.34H505.757C505.757 98.8533 505.93 99.2593 506.275 99.558C506.63 99.8567 507.12 100.006 507.745 100.006C508.333 100.006 508.79 99.8613 509.117 99.572C509.453 99.2827 509.621 98.8813 509.621 98.368C509.621 97.9573 509.509 97.598 509.285 97.29C509.07 96.982 508.758 96.7673 508.347 96.646L506.961 96.212C506.261 95.9973 505.72 95.638 505.337 95.134C504.964 94.63 504.777 94.0373 504.777 93.356C504.777 92.8053 504.898 92.3293 505.141 91.928C505.393 91.5173 505.743 91.2 506.191 90.976C506.639 90.7427 507.166 90.626 507.773 90.626C508.669 90.626 509.388 90.878 509.929 91.382C510.47 91.8767 510.746 92.5393 510.755 93.37H509.495C509.495 92.866 509.341 92.474 509.033 92.194C508.734 91.9047 508.31 91.76 507.759 91.76C507.218 91.76 506.793 91.8907 506.485 92.152C506.186 92.4133 506.037 92.7773 506.037 93.244C506.037 93.664 506.149 94.028 506.373 94.336C506.597 94.644 506.919 94.8633 507.339 94.994L508.739 95.442C509.42 95.6567 509.948 96.0207 510.321 96.534C510.694 97.0473 510.881 97.6493 510.881 98.34C510.881 98.9 510.75 99.39 510.489 99.81C510.228 100.23 509.859 100.557 509.383 100.79C508.916 101.023 508.37 101.14 507.745 101.14ZM515.734 101V91.914H512.934V90.766H519.794V91.914H516.994V101H515.734ZM522.238 101V90.78H528.118V91.928H523.484V95.092H527.628V96.226H523.484V99.852H528.118V101H522.238ZM530.801 101V90.78H533.447C534.109 90.78 534.679 90.906 535.155 91.158C535.64 91.41 536.013 91.7647 536.275 92.222C536.545 92.6793 536.681 93.2207 536.681 93.846V97.92C536.681 98.5453 536.545 99.0913 536.275 99.558C536.013 100.015 535.64 100.37 535.155 100.622C534.679 100.874 534.109 101 533.447 101H530.801ZM532.061 99.88H533.447C534.063 99.88 534.543 99.7073 534.889 99.362C535.243 99.0167 535.421 98.536 535.421 97.92V93.846C535.421 93.2393 535.243 92.7633 534.889 92.418C534.543 92.0727 534.063 91.9 533.447 91.9H532.061V99.88Z" fill="var(--fill-0, #8C9AAD)"/>
</g>
<defs>
<clipPath id="clip0_0_321">
<rect width="600" height="153" fill="white"/>
</clipPath>
</defs>
</svg>
