<svg width="557" height="132" viewBox="0 0 557 132" fill="none" xmlns="http://www.w3.org/2000/svg">
<path d="M117.241 90.3896V42.0896H140.061C147.901 42.0896 151.821 46.0096 151.821 53.8496V58.0496C151.821 59.6363 151.354 60.9896 150.421 62.1096L147.971 65.0496L150.911 67.4996C152.451 68.7596 153.221 70.6263 153.221 73.0996V78.6296C153.221 86.4696 149.301 90.3896 141.461 90.3896H117.241ZM127.321 81.2896H141.041C142.441 81.2896 143.141 80.5896 143.141 79.1896V72.1896C143.141 70.7896 142.441 70.0896 141.041 70.0896H127.321V81.2896ZM127.321 60.9896H139.641C141.041 60.9896 141.741 60.2896 141.741 58.8896V53.2896C141.741 51.8896 141.041 51.1896 139.641 51.1896H127.321V60.9896ZM162.205 78.6296V53.8496C162.205 46.0096 166.125 42.0896 173.965 42.0896H189.925C197.765 42.0896 201.685 46.0096 201.685 53.8496V78.6296C201.685 86.4696 197.765 90.3896 189.925 90.3896H173.965C166.125 90.3896 162.205 86.4696 162.205 78.6296ZM172.285 79.1896C172.285 80.5896 172.985 81.2896 174.385 81.2896H189.505C190.905 81.2896 191.605 80.5896 191.605 79.1896V53.2896C191.605 51.8896 190.905 51.1896 189.505 51.1896H174.385C172.985 51.1896 172.285 51.8896 172.285 53.2896V79.1896ZM211.766 78.6296V53.8496C211.766 46.0096 215.686 42.0896 223.526 42.0896H239.486C247.326 42.0896 251.246 46.0096 251.246 53.8496V78.6296C251.246 86.4696 247.326 90.3896 239.486 90.3896H223.526C215.686 90.3896 211.766 86.4696 211.766 78.6296ZM221.846 79.1896C221.846 80.5896 222.546 81.2896 223.946 81.2896H239.066C240.466 81.2896 241.166 80.5896 241.166 79.1896V53.2896C241.166 51.8896 240.466 51.1896 239.066 51.1896H223.946C222.546 51.1896 221.846 51.8896 221.846 53.2896V79.1896ZM262.026 90.3896V42.0896H274.066L287.646 71.0696L301.226 42.0896H313.266V90.3896H303.186V59.8696L291.846 84.0896H283.446L272.106 59.8696V90.3896H262.026ZM320.3 88.4996L334.65 42.0896H350.05L364.4 88.4996L363.14 90.3896H354.74L351.8 80.5896H332.9L329.96 90.3896H321.56L320.3 88.4996ZM335.63 71.4896H349.07L342.91 51.1896H341.79L335.63 71.4896ZM363.855 51.1896V42.0896H403.335V51.1896H388.635V90.3896H378.555V51.1896H363.855ZM410.776 90.3896V42.0896H420.856V60.9896H438.776V42.0896H448.856V90.3896H438.776V70.0896H420.856V90.3896H410.776ZM459.637 78.6296V53.8496C459.637 46.0096 463.557 42.0896 471.397 42.0896H487.357C495.197 42.0896 499.117 46.0096 499.117 53.8496V78.6296C499.117 86.4696 495.197 90.3896 487.357 90.3896H471.397C463.557 90.3896 459.637 86.4696 459.637 78.6296ZM469.717 79.1896C469.717 80.5896 470.417 81.2896 471.817 81.2896H486.937C488.337 81.2896 489.037 80.5896 489.037 79.1896V53.2896C489.037 51.8896 488.337 51.1896 486.937 51.1896H471.817C470.417 51.1896 469.717 51.8896 469.717 53.2896V79.1896ZM509.897 90.3896V42.0896H520.817L539.997 73.7996V42.0896H550.077V90.3896H539.157L519.977 58.6796V90.3896H509.897Z" fill="black"/>
<path d="M29.6291 44.9665L65.9193 24.0144L102.211 44.9668L102.21 86.8723L65.9201 107.824L29.6278 86.8725L29.6291 44.9665Z" stroke="#FF45CE" stroke-width="11"/>
</svg>
